<?xml version="1.0" encoding="utf-8"?>
<!-- Generator: Adobe Illustrator 24.2.1, SVG Export Plug-In . SVG Version: 6.00 Build 0)  -->
<svg version="1.1" id="Layer_1" xmlns="http://www.w3.org/2000/svg" xmlns:xlink="http://www.w3.org/1999/xlink" x="0px" y="0px"
	 viewBox="0 0 223.2 100.8" style="enable-background:new 0 0 223.2 100.8;" xml:space="preserve">
<style type="text/css">
	.st0{fill:#E54C3C;}
</style>
<path class="st0" d="M125.84,18.13c1.74-11.89,16.82-17.02,28.74-10.47c5.59,3.07,10.35,9.31,11.23,16.7
	c-2.09,0.46-4.17,1.2-6.15,2.3c-6.54,3.59-11.94,11.51-11.33,20.52c-3.23,0.47-6.18,1.95-8.37,4.7c-0.05,0.06-0.08,0.12-0.13,0.18
	c-0.04,0-0.09,0.01-0.13,0.01c-0.14-4.1-0.85-8.31-2.57-12.24c6.81-0.32,12.11-5.41,13.1-6.9c6.13-9.3,0.86-19.89-8.42-16.57
	c0,0,5.6-1.24,6.14,9.13c0,0-2.43,7.68-9.97,8.08C130.44,33.96,124.24,29.06,125.84,18.13z M150.46,47.02
	c1.19-0.01,2.4,0.12,3.63,0.36c2.45,0.48,4.92,1.44,7.24,2.81c0.65,0.38,1.28,0.8,1.91,1.25c-1.5-5.62,0.63-11.27,4.61-13.48
	c1.86-1.03,4.09-1.31,6.56-0.48c-1.06-0.26-6.99-1.24-7.29,8.89c-0.01,0.26-0.03,0.49-0.03,0.76c0,0,1.35,6.13,7.39,7.44
	c-1.17,0.87-2.14,2.03-2.75,3.5c-0.17,0.39-0.3,0.77-0.42,1.15c1.19,2.99,1.98,5.76,2.43,8.32c0.77,0.47,1.65,0.81,2.61,1
	c4.31,0.87,9.49-2.69,4.68,1.67c-0.77,0.7-3.6,2.69-6.8,1.83c0.1,2.6-0.14,4.92-0.59,6.97c4.23,1.07,8.75,0.73,12.73-1.72
	c9.93-6.14,8.06-16.34,3.1-20.98c-1.63-1.52-3.53-2.55-5.48-3.11c4.41-2.24,7.59-6.82,6.55-13.91c-0.56-3.84-2.53-6.96-5.31-9.22
	c-4.87-3.96-12.28-5.25-19.3-3.01c-1.4,0.45-2.79,1.02-4.13,1.76C155.85,32.1,150.83,38.98,150.46,47.02z M132.1,74.5
	c0.36-0.8,0.71-1.61,1.02-2.44c1.25-3.3,2.09-6.75,2.34-10.12c0.27-3.8,0.18-7.07-0.12-9.92c-0.31-2.97-0.86-5.46-1.49-7.48
	c-0.83-2.62-1.78-4.47-2.53-5.68c-0.89-0.35-1.78-0.8-2.68-1.36c-1.42-1.41-2.88-2.62-4.34-3.62c-0.29-0.31-1.13-0.72-1.13-0.72
	c-12.33-7.5-25.28-1.36-30.6,7.22c-7.3,11.79-2.89,27.41,9.13,29.81c11.03,2.21,16.35-3.85,16.35-11.54c0-7.69-7.7-10.58-7.7-10.58
	c-10.58,0-9.62,5.77-9.62,5.77c-2.88-9.61,8.17-14.42,17.32-7.69c2.45,1.81,14.47,16.4-2.89,28.37
	c-13.95,9.62-28.85-2.4-52.89-21.63C38.23,33.66,3.6,59.62,3.6,59.62s34.63-17.31,51.94,2.89c17.3,20.2,32.7,30.78,54.82,28.85
	c5.42-0.47,10.35-2.82,14.45-6.36c0.05,0.08,0.08,0.17,0.13,0.25c0.59-0.61,1.17-1.25,1.73-1.94c0.12-0.15,0.25-0.29,0.37-0.45
	C128.97,80.44,130.71,77.57,132.1,74.5z M212.3,43.76c-8.65-4.81-15.87-0.48-18.26,4.32c-2.12,4.24-1.93,7.21-0.49,10.1
	c1.44,2.89,1.44,2.41,2.4,9.14c0.97,6.73-5.77,10.58-5.77,10.58c-4.25,5.38-11.8,5.08-17.31,3.94c-1.37,3.95-3.41,6.59-4.69,7.97
	c11.18,3.22,23.12-0.22,28.74-5.17c8.51-7.51,5.76-16.35,5.76-16.35c-1.44-1.93-3.36-13.94,1.45-15.86c3.98-1.6,4.81,1.92,4.81,1.92
	c-9.14-0.96-4.33,10.1-4.33,10.1c3.85,5.28,12.5-0.97,12.5-0.97C220.47,60.59,221.74,49,212.3,43.76z M170.43,81.26
	c0.41-0.99,0.73-1.98,0.98-2.97c0.64-2.51,0.79-4.98,0.62-7.33c-0.18-2.4-0.68-4.68-1.33-6.74c-0.41-1.03-0.87-2.02-1.42-2.94
	c-1.12-1.87-2.48-3.5-3.98-4.92c-0.67-0.63-1.36-1.22-2.08-1.76c-3.84-2.86-8.35-4.35-12.64-4.25c-0.59,0.01-1.19,0.07-1.77,0.15
	c-3.45,0.45-6.65,2-9.1,4.76c-0.15,5.12-0.99,9.86-1.57,13.34c0,0.02-0.01,0.03-0.01,0.04c-0.24,1.43-0.55,2.73-0.89,3.98
	c1.1,1.52,2.57,2.79,4.34,3.71c8.55,4.43,12.99-3,12.99-3c0.32-0.62,0.59-1.2,0.82-1.76c3.22-7.69-1.52-9.22-1.52-9.22
	c0.86,0.16,1.6,0.43,2.31,0.73c0.1,0.04,0.2,0.09,0.3,0.14c0.43,0.21,0.83,0.45,1.19,0.71c0.02,0.18,1.71,2.33,2.4,2.92
	c0.94,2.16,0.8,4.79-0.37,7.31c-1.21,2.6-3.52,5.08-6.91,6.75c-1.87,0.92-11.26,3.11-17.67-2.63c-1.74,3.56-3.88,6.1-5.95,7.9
	c-0.82,0.71-1.61,1.31-2.38,1.8c5.85,7.53,15.12,9.95,27.5,6.45c4.56-1.29,8.11-3.29,10.84-5.69c0.07,0.03,1.55-1.39,2.13-2.14
	c0.85-1.1,1.58-2.22,2.18-3.34C169.82,82.61,170.15,81.93,170.43,81.26z"/>
</svg>
