<?xml version="1.0" encoding="utf-8"?>
<!-- Generator: Adobe Illustrator 24.2.1, SVG Export Plug-In . SVG Version: 6.00 Build 0)  -->
<svg version="1.1" id="Layer_1" xmlns="http://www.w3.org/2000/svg" xmlns:xlink="http://www.w3.org/1999/xlink" x="0px" y="0px"
	 viewBox="0 0 306 108" style="enable-background:new 0 0 306 108;" xml:space="preserve">
<style type="text/css">
	.st0{fill:none;}
	.st1{fill:#FFFFFF;}
	.st2{opacity:0.7;}
	.st3{fill:none;stroke:#FFFFFF;stroke-width:1.9123;stroke-miterlimit:10;}
</style>
<g>
	<path class="st0" d="M19.8,65.58h1.96c0.5,0,0.9,0.4,0.9,0.9c0,0.5-0.4,0.9-0.9,0.9h-1.54c3.64,13.69,16.14,23.8,30.96,23.8
		c14.82,0,27.32-10.11,30.96-23.8h-1.65c-0.5,0-0.9-0.4-0.9-0.9c0-0.5,0.4-0.9,0.9-0.9h2.07c0.34-1.67,0.56-3.39,0.62-5.14h-64
		C19.25,62.19,19.46,63.91,19.8,65.58z M67.44,65.58h6.53c0.5,0,0.9,0.4,0.9,0.9c0,0.5-0.4,0.9-0.9,0.9h-6.53
		c-0.5,0-0.9-0.4-0.9-0.9C66.54,65.98,66.94,65.58,67.44,65.58z M54.39,65.58h6.53c0.5,0,0.9,0.4,0.9,0.9c0,0.5-0.4,0.9-0.9,0.9
		h-6.53c-0.5,0-0.9-0.4-0.9-0.9C53.49,65.98,53.89,65.58,54.39,65.58z M41.34,65.58h6.53c0.5,0,0.9,0.4,0.9,0.9
		c0,0.5-0.4,0.9-0.9,0.9h-6.53c-0.5,0-0.9-0.4-0.9-0.9C40.44,65.98,40.84,65.58,41.34,65.58z M28.29,65.58h6.53
		c0.5,0,0.9,0.4,0.9,0.9c0,0.5-0.4,0.9-0.9,0.9h-6.53c-0.5,0-0.9-0.4-0.9-0.9C27.39,65.98,27.79,65.58,28.29,65.58z"/>
	<path class="st0" d="M128.69,49.26h6.51v-4.78c0-1.23-1-2.23-2.23-2.23h-5.21v7h0.75H128.69z"/>
	<path class="st0" d="M137.52,44.49v18.03c0,0.72,0.55,1.32,1.23,1.33l0.02,0c0.69,0,1.25-0.56,1.25-1.25V43.94c0-2.21,1.8-4,4-4
		s4,1.8,4,4v8.76c0,0.88,0.68,1.61,1.51,1.63l0.03,0c0.85,0,1.54-0.69,1.54-1.54v-9.77c0-1.7,1.38-3.08,3.08-3.08
		c1.7,0,3.08,1.38,3.08,3.08v0.67c0,0.47,0.35,0.88,0.79,0.91c0.49,0.03,0.9-0.36,0.9-0.84c0-1.93,1.44-3.53,3.3-3.78
		c-0.5-1.88-2.22-3.28-4.26-3.28c-0.42,0-0.83,0.06-1.23,0.18c-0.5,0.14-1.03-0.06-1.3-0.49c-1.63-2.56-4.41-4.09-7.44-4.09
		c-2.26,0-4.41,0.86-6.06,2.42c-0.33,0.31-0.8,0.4-1.22,0.24c-0.65-0.26-1.34-0.39-2.04-0.39c-1.61,0-3.14,0.7-4.21,1.91
		c-0.29,0.33-0.73,0.47-1.16,0.36c-0.35-0.09-0.71-0.13-1.08-0.13c-2.03,0-3.74,1.38-4.25,3.24h4.96
		C135.48,39.94,137.52,41.98,137.52,44.49z"/>
	<path class="st0" d="M90.84,23.28H11.52v79.33h79.33V23.28z M84.38,68.89c-0.15,0.52-0.32,1.03-0.49,1.54
		c-3.26,9.41-10.46,16.99-19.63,20.74h12.12c0.71,0,1.28,0.57,1.28,1.28c0,0.71-0.57,1.28-1.28,1.28h-50.4
		c-0.71,0-1.28-0.57-1.28-1.28c0-0.71,0.58-1.28,1.28-1.28H38.1c-9.17-3.76-16.37-11.34-19.63-20.74c-0.18-0.51-0.34-1.02-0.49-1.54
		c-0.91-3.09-1.4-6.36-1.4-9.74c0-0.71,0.58-1.28,1.28-1.28h4.73c2.51-2.99,6.48-6.15,10.88-7.98c1.58-0.65,3.21-1.14,4.84-1.38
		c2.82-0.41,5.62-0.31,8.4,0.05l-3.48-9.87l-3.05-8.66c-0.13-0.37,0-0.78,0.32-1l1.45-1.01c0.47-0.32,1.11-0.09,1.28,0.46l2.75,9.17
		l3.4,11.32c0.57,0.1,1.13,0.21,1.69,0.33l-2.59-12.19l-1.75-8.24c-0.08-0.38,0.1-0.78,0.45-0.95l1.57-0.8
		c0.51-0.26,1.11,0.06,1.21,0.63l1.5,9.19l2.11,12.91c0.65,0.15,1.29,0.3,1.93,0.45c4.23,0.99,8.6,2.01,12.89,2.02
		c0.02,0,0.04,0,0.06,0c0.28,0,0.58-0.01,0.88-0.02c1.13-0.05,2.39-0.24,3.41-0.84c0.99-0.58,1.87-1.77,1.65-2.93
		c-0.1-0.5,0.11-1,0.52-1.29c0.41-0.29,0.96-0.31,1.39-0.06c3.92,2.31,6.02,6.32,5.69,10.68h2.49c0.71,0,1.28,0.58,1.28,1.28
		C85.78,62.53,85.28,65.8,84.38,68.89z"/>
	<path class="st0" d="M171.33,55.31h-6.51v21.74h5.66C172.02,70.01,172.31,62.52,171.33,55.31z"/>
	<path class="st0" d="M127.77,92.15c0,0.79,0.65,1.44,1.44,1.44h31.85c0.79,0,1.44-0.65,1.44-1.44v-0.49h-34.73V92.15z"/>
	<path class="st0" d="M161.27,43.76c0,1.81-1.53,3.28-3.37,3.16c-1.66-0.11-2.96-1.53-2.96-3.23v-0.67c0-0.42-0.34-0.76-0.76-0.76
		c-0.42,0-0.76,0.34-0.76,0.76v6.25h9.07v-1.44v-5.53C161.8,42.41,161.27,43.02,161.27,43.76z"/>
	<path class="st0" d="M153.43,52.79c0,2.13-1.73,3.86-3.86,3.86l-0.07,0c-2.09-0.04-3.79-1.81-3.79-3.95v-1.12h-3.36V62.6
		c0,1.97-1.6,3.57-3.57,3.57l-0.07,0c-0.6-0.01-1.16-0.19-1.65-0.47c-0.23-0.13-0.45-0.29-0.65-0.47c-0.73-0.67-1.2-1.63-1.2-2.71
		V51.58h-6.51h-0.15h-0.78v26.63v11.13h34.73v-4.79v-6.33v0V54.15v-2.57h-9.07V52.79z"/>
	<path class="st0" d="M142.34,43.94v5.32h3.36v-5.32c0-0.93-0.75-1.68-1.68-1.68S142.34,43.01,142.34,43.94z"/>
	<path class="st0" d="M232.6,7.21c0.18-0.02,0.35-0.07,0.51-0.15c0.16-0.08,0.3-0.21,0.4-0.37c0.11-0.16,0.16-0.39,0.16-0.69
		c0-0.11-0.01-0.24-0.04-0.39c-0.02-0.15-0.08-0.29-0.17-0.42c-0.05-0.06-0.1-0.12-0.17-0.19c-0.06-0.06-0.15-0.12-0.26-0.16
		c-0.11-0.04-0.24-0.08-0.41-0.11c-0.17-0.03-0.38-0.05-0.63-0.05h-4.02v2.55h4.14C232.26,7.24,232.42,7.23,232.6,7.21z"/>
	<path class="st0" d="M264.84,6.06c-0.07-0.12-0.13-0.25-0.18-0.41c-0.05-0.14-0.08-0.27-0.09-0.41c-0.02,0.07-0.04,0.13-0.05,0.19
		c-0.01,0.06-0.03,0.12-0.05,0.18c-0.03,0.07-0.06,0.14-0.08,0.2c-0.03,0.06-0.05,0.13-0.08,0.2l-1.57,3.45h3.64L264.84,6.06z"/>
	<path class="st0" d="M144.86,7.21c0.18-0.02,0.35-0.07,0.51-0.15c0.16-0.08,0.3-0.21,0.4-0.37c0.11-0.16,0.16-0.39,0.16-0.69
		c0-0.11-0.01-0.24-0.04-0.39c-0.02-0.15-0.08-0.29-0.17-0.42c-0.05-0.06-0.1-0.12-0.17-0.19c-0.06-0.06-0.15-0.12-0.26-0.16
		c-0.11-0.04-0.24-0.08-0.41-0.11c-0.17-0.03-0.38-0.05-0.63-0.05h-4.02v2.55h4.14C144.52,7.24,144.68,7.23,144.86,7.21z"/>
	<path class="st0" d="M130.64,11.38c0.24-0.01,0.47-0.05,0.71-0.12c0.23-0.06,0.46-0.16,0.66-0.3c0.21-0.14,0.4-0.33,0.58-0.57
		c0.16-0.21,0.3-0.51,0.43-0.89c0.13-0.38,0.2-0.9,0.2-1.55c0-0.5-0.05-0.92-0.15-1.26c-0.1-0.34-0.22-0.63-0.36-0.87
		c-0.17-0.26-0.36-0.47-0.57-0.62s-0.44-0.26-0.67-0.33c-0.23-0.07-0.47-0.12-0.71-0.13c-0.24-0.01-0.47-0.02-0.69-0.02h-2.98v6.69
		h2.85C130.17,11.4,130.4,11.4,130.64,11.38z"/>
	<path class="st0" d="M70.94,57.87h8.48c0.1-1.02,0.03-2.01-0.19-2.95c-1.36,0.9-2.85,1.59-4.39,2.09
		C73.57,57.42,72.26,57.7,70.94,57.87z"/>
	<path class="st0" d="M33.43,54.49c0,0,0.09-0.05,0.25-0.14c0.16-0.09,0.4-0.21,0.7-0.36c0.6-0.28,1.48-0.61,2.5-0.79
		c1.02-0.19,2.17-0.22,3.26-0.06c0.54,0.08,1.07,0.2,1.55,0.36c0.48,0.16,0.92,0.36,1.3,0.57c-0.86-0.14-1.87-0.26-2.9-0.24
		c-1.03,0.01-2.08,0.15-2.99,0.39c-0.91,0.23-1.68,0.56-2.22,0.83c-0.27,0.14-0.48,0.25-0.62,0.33c-0.14,0.08-0.22,0.13-0.22,0.13
		c-1.03,0.62-1.96,1.42-2.73,2.35h6.96c0.81-0.78,1.77-1.39,2.81-1.79c0,0,0.07-0.03,0.2-0.07c0.13-0.05,0.32-0.1,0.55-0.17
		c0.47-0.12,1.15-0.24,1.92-0.23c0.76,0.01,1.6,0.15,2.35,0.44c0.75,0.28,1.41,0.7,1.86,1.14c-0.61-0.18-1.31-0.37-2.04-0.47
		c-0.73-0.11-1.47-0.12-2.14-0.06c-0.66,0.06-1.23,0.2-1.64,0.32c-0.2,0.06-0.36,0.12-0.47,0.16c-0.11,0.04-0.17,0.06-0.17,0.06
		c-0.46,0.18-0.9,0.4-1.31,0.67h23.85c-0.92-0.1-1.91-0.24-2.96-0.43c-2.21-0.39-4.62-0.98-6.94-1.56
		c-2.32-0.59-4.56-1.15-6.45-1.57c1.93,0.12,4.24,0.47,6.59,0.9c2.36,0.42,4.77,0.9,6.96,1.21c2.18,0.32,4.14,0.46,5.54,0.48
		c0.7,0.01,1.26,0,1.65-0.02c0.19-0.01,0.34-0.01,0.45-0.02c0.1-0.01,0.15-0.01,0.15-0.01c1.84-0.1,3.67-0.41,5.42-0.97
		c1.56-0.5,3.05-1.21,4.38-2.14c-0.47-1.16-1.2-2.21-2.18-3.1c-0.46,1.22-1.38,2.33-2.63,3.06c-1.85,1.08-4,1.21-5.65,1.21
		c-4.58-0.01-9.1-1.07-13.47-2.09c-5.59-1.31-10.87-2.54-16.23-1.76c-4.12,0.6-9.01,3.29-12.59,6.82h3.72
		C30.77,56.5,32.01,55.34,33.43,54.49z"/>
	<path class="st0" d="M52.8,6.06c-0.07-0.12-0.13-0.25-0.18-0.41c-0.05-0.14-0.08-0.27-0.09-0.41c-0.02,0.07-0.04,0.13-0.05,0.19
		c-0.01,0.06-0.03,0.12-0.05,0.18c-0.03,0.07-0.06,0.14-0.08,0.2C52.32,5.87,52.3,5.94,52.27,6L50.7,9.45h3.64L52.8,6.06z"/>
	<path class="st0" d="M192.66,23.28h-79.33v79.33h79.33V23.28z M178.89,79.12l-0.71,3.2c-0.44,2-2.18,3.39-4.23,3.39h-9.14v4.79
		v1.65c0,2.07-1.69,3.76-3.76,3.76h-31.85c-2.07,0-3.76-1.69-3.76-3.76v-1.65V50.42V41.1c0-0.17,0.04-0.33,0.11-0.48
		c0.25-3.48,3.15-6.24,6.7-6.24c0.32,0,0.64,0.02,0.96,0.07c1.47-1.41,3.43-2.21,5.48-2.21c0.75,0,1.49,0.1,2.2,0.31
		c2-1.67,4.5-2.58,7.13-2.58c3.55,0,6.83,1.66,8.93,4.49c0.34-0.05,0.69-0.08,1.04-0.08c3.54,0,6.44,2.75,6.7,6.22
		c0.08,0.15,0.13,0.32,0.13,0.5v5.56H175c2.07,0,3.85,1.47,4.25,3.5C181.1,59.67,180.98,69.68,178.89,79.12z"/>
	<path class="st0" d="M255.6,62.7c0,0.06-0.01,0.11-0.01,0.17c0.07,0.71,0.55,1.27,1.16,1.27h15.84c0.65,0,1.18-0.64,1.18-1.44
		V44.09c0-0.79-0.53-1.44-1.18-1.44h-15.84c-0.6,0-1.08,0.56-1.16,1.27c0,0.06,0.01,0.11,0.01,0.17V62.7z"/>
	<path class="st0" d="M235.43,66.46c0.07,1.02,0.13,2.04,0.13,3.07v1.97h18.13v-5.04h-1.18h-15.84H235.43z"/>
	<rect x="235.55" y="73.83" class="st0" width="38.17" height="5.33"/>
	<path class="st0" d="M175,48.98h-10.18v1.44v2.57h7.51c0.57,0,1.06,0.42,1.15,0.99c1.19,7.86,0.93,16.08-0.78,23.77l-0.16,0.72
		c-0.12,0.53-0.59,0.91-1.13,0.91h-6.59v4.01h9.14c0.95,0,1.75-0.65,1.96-1.57l0.71-3.2c2.02-9.13,2.14-18.82,0.34-28.02
		C176.79,49.66,175.96,48.98,175,48.98z"/>
	<path class="st0" d="M275.65,72.66v6.49h1.43h3.84h1.35l0.02-9.78c0.01-4.71,0.8-9.29,2.35-13.61l0.16-0.44
		c0.28-0.78,0.22-1.64-0.16-2.35c-0.38-0.71-1.01-1.12-1.71-1.12c-2.02,0-3.84,1.45-4.63,3.7l-0.48,1.35
		c-1.42,4.01-2.15,8.26-2.15,12.62V72.66z"/>
	<path class="st0" d="M224.65,55.76c1.55,4.32,2.34,8.9,2.35,13.61l0.02,9.78h1.35h3.84h1.34v-6.49c0-0.17,0.03-0.33,0.08-0.47
		v-2.66c0-4.37-0.72-8.61-2.15-12.62l-0.48-1.35c-0.8-2.25-2.62-3.7-4.63-3.7c-0.7,0-1.33,0.41-1.71,1.12
		c-0.38,0.71-0.45,1.57-0.16,2.35L224.65,55.76z"/>
	<polygon class="st0" points="229.74,84.85 230.83,84.85 231.13,81.48 229.43,81.48 	"/>
	<path class="st0" d="M255.6,66.46v5.04h18.13v-1.97c0-1.03,0.05-2.05,0.13-3.07h-1.27h-15.84H255.6z"/>
	<path class="st0" d="M215.16,102.6h79.33V23.28h-79.33V102.6z M223.06,51.7c0.74-1.36,1.98-2.17,3.32-2.17c2.78,0,5.3,2,6.4,5.1
		l0.48,1.35c0.11,0.32,0.19,0.65,0.3,0.97V44.09c0-2.08,1.39-3.76,3.1-3.76h15.84c0.82,0,1.57,0.4,2.12,1.03
		c0.56-0.64,1.3-1.03,2.12-1.03h15.84c1.71,0,3.1,1.69,3.1,3.76v13c0.12-0.37,0.21-0.74,0.34-1.11l0.48-1.35
		c1.1-3.1,3.61-5.1,6.4-5.1c1.34,0,2.58,0.81,3.32,2.17c0.74,1.36,0.85,3.06,0.32,4.55l-0.16,0.44c-1.44,4.03-2.18,8.29-2.19,12.68
		l-0.02,10.95c0,0.64-0.43,1.16-0.96,1.16h-1.44l-0.42,4.66c-0.05,0.59-0.46,1.04-0.95,1.04h-2.82c-0.49,0-0.9-0.45-0.95-1.04
		l-0.42-4.66h-1.53h-40.09h-0.08h-1.44l-0.42,4.66c-0.05,0.59-0.46,1.04-0.95,1.04h-2.82c-0.49,0-0.9-0.45-0.95-1.04l-0.42-4.66
		h-1.44c-0.53,0-0.96-0.52-0.96-1.16l-0.02-10.95c-0.01-4.39-0.74-8.66-2.19-12.69l-0.16-0.44C222.2,54.76,222.32,53.06,223.06,51.7
		z"/>
	<polygon class="st0" points="278.45,84.85 279.54,84.85 279.85,81.48 278.15,81.48 	"/>
	<path class="st0" d="M236.65,64.13h15.84c0.6,0,1.08-0.56,1.16-1.27c0-0.06-0.01-0.11-0.01-0.17V44.09c0-0.06,0.01-0.11,0.01-0.17
		c-0.07-0.71-0.55-1.27-1.16-1.27h-15.84c-0.65,0-1.18,0.64-1.18,1.44V62.7C235.47,63.49,236,64.13,236.65,64.13z"/>
	<path class="st1" d="M28.29,67.38h6.53c0.5,0,0.9-0.4,0.9-0.9c0-0.5-0.4-0.9-0.9-0.9h-6.53c-0.5,0-0.9,0.4-0.9,0.9
		C27.39,66.97,27.79,67.38,28.29,67.38z"/>
	<path class="st1" d="M41.34,67.38h6.53c0.5,0,0.9-0.4,0.9-0.9c0-0.5-0.4-0.9-0.9-0.9h-6.53c-0.5,0-0.9,0.4-0.9,0.9
		C40.44,66.97,40.84,67.38,41.34,67.38z"/>
	<path class="st1" d="M54.39,67.38h6.53c0.5,0,0.9-0.4,0.9-0.9c0-0.5-0.4-0.9-0.9-0.9h-6.53c-0.5,0-0.9,0.4-0.9,0.9
		C53.49,66.97,53.89,67.38,54.39,67.38z"/>
	<path class="st1" d="M67.44,67.38h6.53c0.5,0,0.9-0.4,0.9-0.9c0-0.5-0.4-0.9-0.9-0.9h-6.53c-0.5,0-0.9,0.4-0.9,0.9
		C66.54,66.97,66.94,67.38,67.44,67.38z"/>
	<path class="st1" d="M84.49,57.87H82c0.33-4.36-1.77-8.37-5.69-10.68c-0.44-0.26-0.98-0.24-1.39,0.06
		c-0.41,0.29-0.62,0.8-0.52,1.29c0.23,1.16-0.66,2.35-1.65,2.93c-1.02,0.6-2.28,0.79-3.41,0.84c-0.3,0.01-0.6,0.02-0.88,0.02
		c-0.02,0-0.04,0-0.06,0c-4.29-0.01-8.66-1.03-12.89-2.02c-0.64-0.15-1.29-0.3-1.93-0.45l-2.11-12.91l-1.5-9.19
		c-0.09-0.57-0.7-0.89-1.21-0.63l-1.57,0.8c-0.34,0.18-0.53,0.57-0.45,0.95l1.75,8.24l2.59,12.19c-0.56-0.12-1.13-0.23-1.69-0.33
		l-3.4-11.32l-2.75-9.17c-0.17-0.55-0.81-0.78-1.28-0.46l-1.45,1.01c-0.32,0.22-0.45,0.63-0.32,1l3.05,8.66l3.48,9.87
		c-2.77-0.36-5.58-0.47-8.4-0.05c-1.64,0.24-3.27,0.72-4.84,1.38c-4.4,1.83-8.36,4.99-10.88,7.98h-4.73c-0.71,0-1.28,0.58-1.28,1.28
		c0,3.38,0.49,6.65,1.4,9.74c0.15,0.52,0.32,1.03,0.49,1.54c3.26,9.41,10.46,16.99,19.63,20.74H25.98c-0.71,0-1.28,0.57-1.28,1.28
		c0,0.71,0.58,1.28,1.28,1.28h50.4c0.71,0,1.28-0.57,1.28-1.28c0-0.71-0.57-1.28-1.28-1.28H64.26c9.16-3.76,16.37-11.34,19.63-20.74
		c0.18-0.51,0.34-1.02,0.49-1.54c0.91-3.09,1.4-6.36,1.4-9.74C85.78,58.44,85.2,57.87,84.49,57.87z M79.23,54.92
		c0.22,0.94,0.29,1.93,0.19,2.95h-8.48c1.32-0.17,2.63-0.45,3.9-0.86C76.38,56.51,77.87,55.82,79.23,54.92z M38.69,51.05
		c5.36-0.78,10.64,0.45,16.23,1.76c4.37,1.02,8.89,2.08,13.47,2.09c1.65,0,3.8-0.13,5.65-1.21c1.25-0.73,2.17-1.84,2.63-3.06
		c0.97,0.89,1.71,1.94,2.18,3.1c-1.33,0.93-2.82,1.64-4.38,2.14c-1.75,0.56-3.58,0.87-5.42,0.97c0,0-0.05,0-0.15,0.01
		c-0.1,0.01-0.25,0.01-0.45,0.02c-0.39,0.02-0.95,0.03-1.65,0.02c-1.4-0.02-3.35-0.16-5.54-0.48c-2.18-0.31-4.6-0.78-6.96-1.21
		c-2.36-0.43-4.66-0.77-6.59-0.9c1.89,0.42,4.13,0.98,6.45,1.57c2.32,0.59,4.72,1.17,6.94,1.56c1.04,0.19,2.04,0.33,2.96,0.43H40.21
		c0.41-0.27,0.85-0.49,1.31-0.67c0,0,0.06-0.02,0.17-0.06c0.11-0.04,0.27-0.1,0.47-0.16c0.4-0.12,0.97-0.26,1.64-0.32
		c0.66-0.06,1.41-0.04,2.14,0.06c0.73,0.1,1.43,0.29,2.04,0.47c-0.45-0.44-1.11-0.86-1.86-1.14c-0.75-0.29-1.59-0.43-2.35-0.44
		c-0.76-0.02-1.44,0.11-1.92,0.23c-0.24,0.06-0.43,0.12-0.55,0.17c-0.13,0.05-0.2,0.07-0.2,0.07c-1.04,0.4-2,1.01-2.81,1.79h-6.96
		c0.77-0.93,1.7-1.73,2.73-2.35c0,0,0.08-0.05,0.22-0.13c0.14-0.09,0.36-0.2,0.62-0.33c0.54-0.27,1.3-0.59,2.22-0.83
		c0.91-0.24,1.96-0.38,2.99-0.39c1.03-0.02,2.04,0.1,2.9,0.24c-0.38-0.21-0.82-0.41-1.3-0.57c-0.48-0.16-1.01-0.28-1.55-0.36
		c-1.08-0.17-2.24-0.13-3.26,0.06c-1.02,0.18-1.9,0.51-2.5,0.79c-0.3,0.14-0.54,0.26-0.7,0.36c-0.16,0.09-0.25,0.14-0.25,0.14
		c-1.43,0.85-2.67,2.01-3.62,3.38H26.1C29.69,54.34,34.57,51.65,38.69,51.05z M82.56,65.58h-2.07c-0.5,0-0.9,0.4-0.9,0.9
		c0,0.5,0.4,0.9,0.9,0.9h1.65C78.5,81.06,66,91.18,51.18,91.18c-14.82,0-27.32-10.11-30.96-23.8h1.54c0.5,0,0.9-0.4,0.9-0.9
		c0-0.5-0.4-0.9-0.9-0.9H19.8c-0.34-1.67-0.56-3.39-0.62-5.14h64C83.11,62.19,82.9,63.91,82.56,65.58z"/>
	<path class="st1" d="M9,105.12h84.36V20.76H9V105.12z M11.52,23.28h79.33v79.33H11.52V23.28z"/>
	<polygon class="st1" points="45.59,11.4 38.24,11.4 38.24,8.91 45.07,8.91 45.07,7.08 38.24,7.08 38.24,4.74 45.3,4.74 45.3,2.88 
		35.65,2.88 35.65,13.24 45.59,13.24 	"/>
	<path class="st1" d="M49.86,11.29h5.31l0.88,1.95h2.9l-5-10.36h-2.8l-5,10.36h2.83L49.86,11.29z M52.27,6
		c0.03-0.07,0.06-0.13,0.08-0.2c0.02-0.06,0.05-0.13,0.08-0.2c0.02-0.06,0.04-0.12,0.05-0.18c0.01-0.06,0.03-0.12,0.05-0.19
		c0.01,0.14,0.04,0.27,0.09,0.41c0.05,0.16,0.11,0.29,0.18,0.41l1.54,3.39H50.7L52.27,6z"/>
	<polygon class="st1" points="62.99,13.24 65.59,13.24 65.59,4.77 69.43,4.77 69.43,2.88 59.15,2.88 59.15,4.77 62.99,4.77 	"/>
	<path class="st1" d="M175,46.66h-10.18V41.1c0-0.18-0.05-0.35-0.13-0.5c-0.26-3.47-3.16-6.22-6.7-6.22c-0.35,0-0.7,0.03-1.04,0.08
		c-2.1-2.83-5.38-4.49-8.93-4.49c-2.62,0-5.13,0.91-7.13,2.58c-0.71-0.21-1.45-0.31-2.2-0.31c-2.05,0-4.01,0.8-5.48,2.21
		c-0.32-0.05-0.64-0.07-0.96-0.07c-3.55,0-6.45,2.76-6.7,6.24c-0.07,0.15-0.11,0.31-0.11,0.48v9.33v40.08v1.65
		c0,2.07,1.69,3.76,3.76,3.76h31.85c2.07,0,3.76-1.69,3.76-3.76v-1.65v-4.79h9.14c2.05,0,3.78-1.4,4.23-3.39l0.71-3.2
		c2.09-9.44,2.21-19.45,0.36-28.96C178.85,48.13,177.07,46.66,175,46.66z M132.26,36.7c0.36,0,0.73,0.04,1.08,0.13
		c0.42,0.11,0.87-0.03,1.16-0.36c1.06-1.21,2.6-1.91,4.21-1.91c0.7,0,1.39,0.13,2.04,0.39c0.42,0.16,0.9,0.07,1.22-0.24
		c1.64-1.56,3.8-2.42,6.06-2.42c3.03,0,5.81,1.53,7.44,4.09c0.28,0.44,0.81,0.64,1.3,0.49c0.4-0.12,0.81-0.18,1.23-0.18
		c2.04,0,3.76,1.39,4.26,3.28c-1.86,0.25-3.3,1.85-3.3,3.78c0,0.48-0.41,0.87-0.9,0.84c-0.43-0.03-0.79-0.44-0.79-0.91v-0.67
		c0-1.7-1.38-3.08-3.08-3.08c-1.7,0-3.08,1.38-3.08,3.08v9.77c0,0.85-0.69,1.54-1.54,1.54l-0.03,0c-0.83-0.02-1.51-0.75-1.51-1.63
		v-8.76c0-2.21-1.8-4-4-4s-4,1.8-4,4V62.6c0,0.69-0.56,1.25-1.25,1.25l-0.02,0c-0.68-0.01-1.23-0.61-1.23-1.33V44.49
		c0-2.51-2.04-4.55-4.55-4.55h-4.96C128.52,38.07,130.23,36.7,132.26,36.7z M145.7,43.94v5.32h-3.36v-5.32
		c0-0.93,0.75-1.68,1.68-1.68S145.7,43.01,145.7,43.94z M127.77,42.26h5.21c1.23,0,2.23,1,2.23,2.23v4.78h-6.51h-0.18h-0.75V42.26z
		 M162.5,92.15c0,0.79-0.65,1.44-1.44,1.44h-31.85c-0.79,0-1.44-0.65-1.44-1.44v-0.49h34.73V92.15z M162.5,54.15v24.06v0v6.33v4.79
		h-34.73V78.22V51.58h0.78h0.15h6.51v10.93c0,1.07,0.47,2.04,1.2,2.71c0.2,0.18,0.41,0.34,0.65,0.47c0.5,0.28,1.05,0.46,1.65,0.47
		l0.07,0c1.97,0,3.57-1.6,3.57-3.57V51.58h3.36v1.12c0,2.14,1.7,3.91,3.79,3.95l0.07,0c2.13,0,3.86-1.73,3.86-3.86v-1.2h9.07V54.15z
		 M162.5,47.82v1.44h-9.07v-6.25c0-0.42,0.34-0.76,0.76-0.76c0.42,0,0.76,0.34,0.76,0.76v0.67c0,1.7,1.3,3.12,2.96,3.23
		c1.84,0.12,3.37-1.34,3.37-3.16c0-0.73,0.53-1.34,1.23-1.47V47.82z M164.82,55.31h6.51c0.98,7.21,0.69,14.7-0.85,21.74h-5.66V55.31
		z M176.63,78.62l-0.71,3.2c-0.2,0.93-1.01,1.57-1.96,1.57h-9.14v-4.01h6.59c0.54,0,1.02-0.38,1.13-0.91l0.16-0.72
		c1.7-7.7,1.97-15.92,0.78-23.77c-0.09-0.57-0.57-0.99-1.15-0.99h-7.51v-2.57v-1.44H175c0.96,0,1.79,0.68,1.97,1.62
		C178.76,59.8,178.64,69.49,176.63,78.62z"/>
	<path class="st1" d="M110.82,105.12h84.36V20.76h-84.36V105.12z M113.34,23.28h79.33v79.33h-79.33V23.28z"/>
	<path class="st1" d="M131.06,13.2c0.43-0.02,0.86-0.1,1.3-0.22c0.43-0.12,0.86-0.31,1.28-0.57c0.42-0.26,0.8-0.62,1.17-1.09
		c0.36-0.48,0.62-1,0.78-1.57c0.16-0.57,0.23-1.15,0.23-1.75c0-0.66-0.09-1.29-0.28-1.88c-0.19-0.59-0.47-1.1-0.84-1.55
		c-0.38-0.45-0.85-0.81-1.42-1.1c-0.57-0.29-1.23-0.47-1.98-0.54c-0.2-0.02-0.39-0.03-0.57-0.04c-0.19-0.01-0.38-0.01-0.57-0.02
		h-5.66v10.36h5.34C130.22,13.24,130.63,13.22,131.06,13.2z M127.09,4.71h2.98c0.22,0,0.45,0.01,0.69,0.02
		c0.24,0.02,0.47,0.06,0.71,0.13c0.23,0.07,0.46,0.18,0.67,0.33s0.4,0.35,0.57,0.62c0.15,0.23,0.27,0.52,0.36,0.87
		c0.1,0.34,0.15,0.76,0.15,1.26c0,0.65-0.07,1.17-0.2,1.55c-0.13,0.38-0.28,0.68-0.43,0.89c-0.17,0.24-0.37,0.44-0.58,0.57
		c-0.21,0.14-0.43,0.24-0.66,0.3c-0.23,0.06-0.47,0.1-0.71,0.12c-0.24,0.02-0.47,0.02-0.71,0.02h-2.85V4.71z"/>
	<path class="st1" d="M140.25,9.07h2.95l2.77,4.17h3.05l-3.14-4.33c0.21-0.04,0.47-0.1,0.79-0.19c0.32-0.09,0.62-0.24,0.9-0.46
		c0.37-0.28,0.63-0.64,0.78-1.06s0.22-0.83,0.22-1.23c0-0.3-0.05-0.63-0.14-0.99c-0.09-0.36-0.27-0.69-0.54-1
		c-0.22-0.24-0.44-0.44-0.68-0.59c-0.24-0.15-0.49-0.26-0.76-0.34c-0.26-0.08-0.54-0.13-0.81-0.15c-0.28-0.02-0.56-0.03-0.86-0.03
		h-7.13v10.36h2.6V9.07z M140.25,4.68h4.02c0.25,0,0.46,0.02,0.63,0.05c0.17,0.03,0.3,0.07,0.41,0.11c0.11,0.05,0.19,0.1,0.26,0.16
		c0.06,0.06,0.12,0.13,0.17,0.19c0.09,0.13,0.14,0.27,0.17,0.42c0.02,0.15,0.04,0.28,0.04,0.39c0,0.3-0.05,0.52-0.16,0.69
		c-0.11,0.16-0.24,0.29-0.4,0.37c-0.16,0.08-0.33,0.14-0.51,0.15c-0.18,0.02-0.34,0.03-0.48,0.03h-4.14V4.68z"/>
	<rect x="150.18" y="2.88" class="st1" width="2.6" height="10.36"/>
	<path class="st1" d="M157.51,7.53c0-0.2,0-0.36-0.01-0.5c0-0.14-0.01-0.26-0.01-0.38c-0.01-0.12-0.01-0.24-0.02-0.38
		c-0.01-0.14-0.02-0.3-0.04-0.5c0.15,0.19,0.27,0.35,0.37,0.48c0.1,0.13,0.2,0.26,0.3,0.37c0.1,0.12,0.2,0.24,0.3,0.36
		c0.1,0.12,0.22,0.26,0.36,0.42l5.13,5.84h2.57V2.88h-2.48v5.3c0,0.23,0,0.42,0.01,0.57S164,9.06,164,9.21
		c0,0.15,0.01,0.31,0.03,0.48c0.01,0.17,0.03,0.38,0.05,0.62c-0.17-0.2-0.3-0.37-0.4-0.51c-0.1-0.13-0.2-0.25-0.29-0.37
		c-0.09-0.11-0.19-0.23-0.29-0.35c-0.1-0.12-0.23-0.27-0.39-0.45l-5.08-5.76h-2.58v10.36h2.46V7.53z"/>
	<polygon class="st1" points="171.39,10.13 172.96,8.78 177.02,13.24 180.48,13.24 174.73,7.25 179.78,2.88 176.45,2.88 
		171.39,7.41 171.39,2.88 168.82,2.88 168.82,13.24 171.39,13.24 	"/>
	<path class="st1" d="M212.64,20.76v84.36H297V20.76H212.64z M294.48,102.6h-79.33V23.28h79.33V102.6z"/>
	<path class="st1" d="M227.99,9.07h2.95l2.77,4.17h3.05l-3.14-4.33c0.21-0.04,0.47-0.1,0.79-0.19c0.32-0.09,0.62-0.24,0.9-0.46
		c0.37-0.28,0.63-0.64,0.78-1.06s0.22-0.83,0.22-1.23c0-0.3-0.05-0.63-0.14-0.99c-0.09-0.36-0.27-0.69-0.54-1
		c-0.22-0.24-0.44-0.44-0.68-0.59c-0.24-0.15-0.49-0.26-0.76-0.34c-0.26-0.08-0.54-0.13-0.81-0.15c-0.28-0.02-0.56-0.03-0.86-0.03
		h-7.13v10.36h2.6V9.07z M227.99,4.68h4.02c0.25,0,0.46,0.02,0.63,0.05c0.17,0.03,0.3,0.07,0.41,0.11c0.11,0.05,0.19,0.1,0.26,0.16
		c0.06,0.06,0.12,0.13,0.17,0.19c0.09,0.13,0.14,0.27,0.17,0.42c0.02,0.15,0.04,0.28,0.04,0.39c0,0.3-0.05,0.52-0.16,0.69
		c-0.11,0.16-0.24,0.29-0.4,0.37c-0.16,0.08-0.33,0.14-0.51,0.15c-0.18,0.02-0.34,0.03-0.48,0.03h-4.14V4.68z"/>
	<polygon class="st1" points="247.85,11.4 240.5,11.4 240.5,8.91 247.32,8.91 247.32,7.08 240.5,7.08 240.5,4.74 247.56,4.74 
		247.56,2.88 237.9,2.88 237.9,13.24 247.85,13.24 	"/>
	<polygon class="st1" points="257.88,11.33 252.13,11.33 252.13,2.88 249.54,2.88 249.54,13.24 257.88,13.24 	"/>
	<path class="st1" d="M261.9,11.29h5.31l0.88,1.95h2.9l-5-10.36h-2.8l-5,10.36h2.83L261.9,11.29z M264.31,6
		c0.03-0.07,0.06-0.13,0.08-0.2c0.02-0.06,0.05-0.13,0.08-0.2c0.02-0.06,0.04-0.12,0.05-0.18c0.01-0.06,0.03-0.12,0.05-0.19
		c0.01,0.14,0.04,0.27,0.09,0.41c0.05,0.16,0.11,0.29,0.18,0.41l1.54,3.39h-3.64L264.31,6z"/>
	<path class="st1" d="M274.31,13.24l2.85-3.52c0.07-0.1,0.12-0.17,0.15-0.22c0.03-0.05,0.07-0.13,0.12-0.25
		c0.04,0.1,0.07,0.17,0.1,0.21c0.02,0.04,0.07,0.11,0.14,0.21l2.88,3.57h3.29l-4.72-5.43l4.12-4.93h-3.18l-2.36,3.02
		c-0.08,0.1-0.13,0.17-0.15,0.21c-0.02,0.04-0.06,0.12-0.1,0.24c-0.05-0.11-0.09-0.19-0.12-0.24c-0.03-0.05-0.09-0.12-0.17-0.2
		l-2.27-3.04h-3.24l4.14,4.93l-4.74,5.43H274.31z"/>
	<path class="st1" d="M222.89,56.69c1.44,4.03,2.18,8.29,2.19,12.69l0.02,10.95c0,0.64,0.43,1.16,0.96,1.16h1.44l0.42,4.66
		c0.05,0.59,0.46,1.04,0.95,1.04h2.82c0.49,0,0.9-0.45,0.95-1.04l0.42-4.66h1.44h0.08h40.09h1.53l0.42,4.66
		c0.05,0.59,0.46,1.04,0.95,1.04h2.82c0.49,0,0.9-0.45,0.95-1.04l0.42-4.66h1.44c0.53,0,0.96-0.52,0.96-1.16l0.02-10.95
		c0.01-4.39,0.74-8.66,2.19-12.68l0.16-0.44c0.54-1.49,0.42-3.19-0.32-4.55c-0.74-1.36-1.97-2.17-3.32-2.17c-2.78,0-5.3,2-6.4,5.1
		l-0.48,1.35c-0.13,0.36-0.22,0.74-0.34,1.11v-13c0-2.08-1.39-3.76-3.1-3.76h-15.84c-0.82,0-1.57,0.4-2.12,1.03
		c-0.56-0.64-1.3-1.03-2.12-1.03h-15.84c-1.71,0-3.1,1.69-3.1,3.76v12.87c-0.1-0.32-0.18-0.65-0.3-0.97l-0.48-1.35
		c-1.1-3.1-3.61-5.1-6.4-5.1c-1.34,0-2.58,0.81-3.32,2.17c-0.74,1.36-0.85,3.06-0.32,4.55L222.89,56.69z M230.83,84.85h-1.09
		l-0.3-3.37h1.7L230.83,84.85z M273.85,66.46c-0.07,1.02-0.13,2.04-0.13,3.07v1.97H255.6v-5.04h1.14h15.84H273.85z M273.73,79.15
		h-38.17v-5.33h38.17V79.15z M253.68,66.46v5.04h-18.13v-1.97c0-1.03-0.05-2.05-0.13-3.07h1.23h15.84H253.68z M279.54,84.85h-1.09
		l-0.3-3.37h1.7L279.54,84.85z M277.79,56.91l0.48-1.35c0.8-2.25,2.62-3.7,4.63-3.7c0.7,0,1.33,0.41,1.71,1.12
		c0.38,0.71,0.45,1.57,0.16,2.35l-0.16,0.44c-1.55,4.32-2.34,8.9-2.35,13.61l-0.02,9.78h-1.35h-3.84h-1.43v-6.49v-3.13
		C275.65,65.16,276.37,60.92,277.79,56.91z M256.74,42.65h15.84c0.65,0,1.18,0.64,1.18,1.44V62.7c0,0.79-0.53,1.44-1.18,1.44h-15.84
		c-0.6,0-1.08-0.56-1.16-1.27c0-0.06,0.01-0.11,0.01-0.17V44.09c0-0.06-0.01-0.11-0.01-0.17C255.66,43.21,256.14,42.65,256.74,42.65
		z M235.47,44.09c0-0.79,0.53-1.44,1.18-1.44h15.84c0.6,0,1.08,0.56,1.16,1.27c0,0.06-0.01,0.11-0.01,0.17V62.7
		c0,0.06,0.01,0.11,0.01,0.17c-0.07,0.71-0.55,1.27-1.16,1.27h-15.84c-0.65,0-1.18-0.64-1.18-1.44V44.09z M224.66,52.98
		c0.38-0.71,1.01-1.12,1.71-1.12c2.02,0,3.83,1.45,4.63,3.7l0.48,1.35c1.42,4.01,2.15,8.26,2.15,12.62v2.66
		c-0.05,0.14-0.08,0.3-0.08,0.47v6.49h-1.34h-3.84h-1.35L227,69.37c-0.01-4.71-0.79-9.29-2.35-13.61l-0.16-0.44
		C224.22,54.54,224.28,53.69,224.66,52.98z"/>
</g>
<g>
	<rect x="-367.53" y="-88.14" class="st2" width="91.05" height="283.37"/>
	<g>
		<g>
			<g>
				<path class="st1" d="M-339.1-28.14h4.95c0.38,0,0.68-0.31,0.68-0.68s-0.31-0.68-0.68-0.68h-4.95c-0.38,0-0.68,0.31-0.68,0.68
					S-339.48-28.14-339.1-28.14z"/>
				<path class="st1" d="M-329.19-28.14h4.95c0.38,0,0.68-0.31,0.68-0.68s-0.31-0.68-0.68-0.68h-4.95c-0.38,0-0.68,0.31-0.68,0.68
					S-329.57-28.14-329.19-28.14z"/>
				<path class="st1" d="M-319.29-28.14h4.95c0.38,0,0.68-0.31,0.68-0.68s-0.31-0.68-0.68-0.68h-4.95c-0.38,0-0.68,0.31-0.68,0.68
					S-319.66-28.14-319.29-28.14z"/>
				<path class="st1" d="M-309.38-28.14h4.95c0.38,0,0.68-0.31,0.68-0.68s-0.31-0.68-0.68-0.68h-4.95c-0.38,0-0.68,0.31-0.68,0.68
					S-309.75-28.14-309.38-28.14z"/>
				<path class="st1" d="M-296.43-35.36h-1.89c0.25-3.31-1.34-6.36-4.32-8.11c-0.33-0.2-0.74-0.18-1.06,0.04
					c-0.31,0.22-0.47,0.61-0.4,0.98c0.17,0.88-0.5,1.79-1.25,2.23c-0.78,0.45-1.73,0.6-2.59,0.64c-0.23,0.01-0.46,0.01-0.67,0.01
					c-0.02,0-0.03,0-0.05,0c-3.26-0.01-6.58-0.78-9.79-1.53c-0.49-0.11-0.98-0.23-1.47-0.34l-1.6-9.81l-1.14-6.97
					c-0.07-0.43-0.53-0.67-0.92-0.48l-1.19,0.61c-0.26,0.13-0.4,0.43-0.34,0.72l1.33,6.26l1.97,9.26c-0.43-0.09-0.86-0.17-1.29-0.25
					l-2.58-8.6l-2.09-6.96c-0.13-0.42-0.61-0.6-0.97-0.35l-1.1,0.76c-0.24,0.17-0.34,0.48-0.24,0.76l2.32,6.57l2.64,7.49
					c-2.11-0.27-4.24-0.35-6.38-0.04c-1.24,0.18-2.48,0.55-3.68,1.05c-3.34,1.39-6.35,3.79-8.26,6.06h-3.59
					c-0.54,0-0.98,0.44-0.98,0.98c0,2.57,0.37,5.05,1.06,7.4c0.12,0.39,0.24,0.78,0.37,1.17c2.47,7.14,7.94,12.9,14.9,15.75h-9.2
					c-0.54,0-0.98,0.44-0.98,0.98c0,0.54,0.44,0.98,0.98,0.98h38.27c0.54,0,0.98-0.44,0.98-0.98c0-0.54-0.44-0.98-0.98-0.98h-9.2
					c6.96-2.85,12.43-8.61,14.9-15.75c0.13-0.39,0.26-0.78,0.37-1.17c0.69-2.35,1.06-4.83,1.06-7.4
					C-295.45-34.92-295.89-35.36-296.43-35.36z M-300.42-37.6c0.17,0.71,0.22,1.46,0.14,2.24h-6.44c1-0.13,2-0.34,2.96-0.65
					C-302.59-36.39-301.46-36.91-300.42-37.6z M-331.2-40.53c4.07-0.59,8.08,0.34,12.32,1.33c3.32,0.78,6.75,1.58,10.23,1.59
					c1.25,0,2.89-0.1,4.29-0.92c0.95-0.55,1.65-1.4,2-2.32c0.74,0.68,1.29,1.48,1.65,2.36c-1.01,0.71-2.14,1.24-3.32,1.62
					c-1.33,0.43-2.72,0.66-4.12,0.74c0,0-0.04,0-0.12,0.01c-0.08,0.01-0.19,0.01-0.34,0.01c-0.29,0.01-0.72,0.02-1.25,0.01
					c-1.06-0.02-2.55-0.12-4.2-0.37c-1.66-0.24-3.49-0.59-5.28-0.92c-1.79-0.32-3.54-0.59-5.01-0.68c1.43,0.32,3.13,0.75,4.89,1.19
					c1.76,0.45,3.59,0.89,5.27,1.19c0.79,0.14,1.55,0.25,2.25,0.33h-18.11c0.31-0.2,0.65-0.37,1-0.51c0,0,0.05-0.02,0.13-0.05
					c0.08-0.03,0.21-0.07,0.36-0.12c0.31-0.09,0.74-0.2,1.24-0.24c0.5-0.05,1.07-0.03,1.62,0.05c0.55,0.08,1.09,0.22,1.55,0.36
					c-0.34-0.33-0.84-0.66-1.42-0.87c-0.57-0.22-1.2-0.33-1.78-0.34c-0.58-0.01-1.1,0.08-1.46,0.17c-0.18,0.05-0.32,0.09-0.42,0.13
					c-0.1,0.03-0.15,0.05-0.15,0.05c-0.79,0.31-1.52,0.77-2.14,1.36h-5.29c0.58-0.71,1.29-1.31,2.07-1.78c0,0,0.06-0.03,0.17-0.1
					c0.11-0.06,0.27-0.15,0.47-0.25c0.41-0.2,0.99-0.45,1.68-0.63c0.69-0.18,1.48-0.29,2.27-0.3c0.78-0.01,1.55,0.08,2.2,0.18
					c-0.29-0.16-0.62-0.31-0.99-0.43c-0.37-0.12-0.76-0.22-1.18-0.28c-0.82-0.13-1.7-0.1-2.47,0.04c-0.78,0.14-1.44,0.39-1.9,0.6
					c-0.23,0.11-0.41,0.2-0.53,0.27c-0.12,0.07-0.19,0.11-0.19,0.11c-1.08,0.65-2.02,1.53-2.75,2.56h-2.82
					C-338.04-38.03-334.33-40.08-331.2-40.53z M-297.9-29.5h-1.57c-0.38,0-0.68,0.31-0.68,0.68s0.31,0.68,0.68,0.68h1.25
					c-2.76,10.39-12.25,18.07-23.51,18.07c-11.25,0-20.74-7.68-23.51-18.07h1.17c0.38,0,0.68-0.31,0.68-0.68s-0.31-0.68-0.68-0.68
					h-1.49c-0.26-1.27-0.42-2.57-0.47-3.9h48.6C-297.47-32.08-297.64-30.77-297.9-29.5z"/>
			</g>
			<rect x="-352.79" y="-62.58" class="st3" width="62.14" height="62.14"/>
			
				<text transform="matrix(1 0 0 1 -334.3733 -69.2456)" class="st1" style="font-family:'AkzidenzGroteskBE-MdEx'; font-size:11.1384px;">EAT</text>
		</g>
		<g>
			<g>
				<path class="st1" d="M-301.79,50.86c-0.3-1.54-1.66-2.66-3.23-2.66h-7.73v-4.22c0-0.14-0.04-0.27-0.1-0.38
					c-0.2-2.64-2.4-4.72-5.09-4.72c-0.26,0-0.53,0.02-0.79,0.06c-1.59-2.15-4.09-3.41-6.78-3.41c-1.99,0-3.89,0.69-5.41,1.96
					c-0.54-0.16-1.1-0.24-1.67-0.24c-1.56,0-3.05,0.61-4.16,1.68c-0.24-0.03-0.49-0.05-0.73-0.05c-2.69,0-4.9,2.1-5.09,4.74
					c-0.05,0.11-0.08,0.23-0.08,0.36v7.08V81.5v1.25c0,1.58,1.28,2.86,2.86,2.86h24.18c1.58,0,2.86-1.28,2.86-2.86V81.5v-3.64h6.94
					c1.55,0,2.87-1.06,3.21-2.58l0.54-2.43C-300.48,65.69-300.38,58.08-301.79,50.86z M-337.47,40.64c0.28,0,0.55,0.03,0.82,0.1
					c0.32,0.08,0.66-0.03,0.88-0.27c0.81-0.92,1.97-1.45,3.2-1.45c0.53,0,1.05,0.1,1.55,0.29c0.32,0.12,0.68,0.05,0.93-0.18
					c1.25-1.18,2.88-1.84,4.6-1.84c2.3,0,4.41,1.16,5.65,3.11c0.21,0.33,0.61,0.48,0.99,0.37c0.3-0.09,0.62-0.13,0.93-0.13
					c1.55,0,2.85,1.06,3.23,2.49c-1.41,0.19-2.51,1.41-2.51,2.87c0,0.37-0.31,0.66-0.69,0.64c-0.33-0.02-0.6-0.33-0.6-0.69v-0.51
					c0-1.29-1.05-2.34-2.34-2.34c-1.29,0-2.34,1.05-2.34,2.34v7.42c0,0.64-0.52,1.17-1.17,1.17l-0.02,0
					c-0.63-0.01-1.15-0.57-1.15-1.24v-6.65c0-1.68-1.36-3.04-3.04-3.04s-3.04,1.36-3.04,3.04v14.17c0,0.52-0.43,0.95-0.95,0.95
					l-0.02,0c-0.51-0.01-0.93-0.46-0.93-1.01V46.56c0-1.91-1.55-3.45-3.46-3.45h-3.77C-340.31,41.69-339.01,40.64-337.47,40.64z
					 M-327.26,46.14v4.04h-2.55v-4.04c0-0.7,0.57-1.28,1.28-1.28S-327.26,45.44-327.26,46.14z M-314.51,82.75
					c0,0.6-0.49,1.09-1.09,1.09h-24.18c-0.6,0-1.09-0.49-1.09-1.09v-0.37h26.37V82.75z M-314.51,53.9v18.27v0v4.81v3.64h-26.37
					v-8.45V51.95h0.7v-1.76h-0.7v-5.32h3.95c0.93,0,1.69,0.76,1.69,1.69v3.63h-5.08l0.02,1.76h5.05v8.3c0,0.81,0.36,1.55,0.91,2.05
					c0.15,0.14,0.31,0.26,0.49,0.36c0.38,0.22,0.8,0.35,1.26,0.36l0.05,0c1.5,0,2.71-1.22,2.71-2.71v-8.36h2.55v0.85
					c0,1.62,1.29,2.97,2.88,3l0.05,0c1.62,0,2.93-1.32,2.93-2.93v-0.91h6.89V53.9z M-314.51,49.09v1.1h-6.89v-4.74
					c0-0.32,0.26-0.57,0.57-0.57c0.32,0,0.57,0.26,0.57,0.57v0.51c0,1.29,0.99,2.37,2.25,2.45c1.4,0.09,2.56-1.02,2.56-2.4
					c0-0.56,0.4-1.02,0.93-1.12V49.09z M-312.74,54.78h4.94c0.74,5.47,0.52,11.16-0.64,16.51h-4.3V54.78z M-303.78,72.47l-0.54,2.43
					c-0.16,0.7-0.77,1.19-1.49,1.19h-6.94v-3.05h5.01c0.41,0,0.77-0.29,0.86-0.69l0.12-0.54c1.29-5.84,1.5-12.09,0.59-18.05
					c-0.07-0.43-0.44-0.75-0.87-0.75h-5.71v-1.95v-1.1h7.73c0.73,0,1.36,0.52,1.49,1.23C-302.16,58.19-302.25,65.54-303.78,72.47z"
					/>
			</g>
			<rect x="-352.79" y="29.5" class="st3" width="62.14" height="62.14"/>
			
				<text transform="matrix(1 0 0 1 -344.2244 22.8296)" class="st1" style="font-family:'AkzidenzGroteskBE-MdEx'; font-size:11.1384px;">DRINK</text>
		</g>
		<g>
			<rect x="-352.79" y="121.57" class="st3" width="62.14" height="62.14"/>
			
				<text transform="matrix(1 0 0 1 -344.9324 114.9058)" class="st1" style="font-family:'AkzidenzGroteskBE-MdEx'; font-size:11.1384px;">RELAX</text>
			<g id="XMLID_1_">
				<g>
					<g id="XMLID_33_">
						<g id="XMLID_34_">
							<path class="st1" d="M-300.15,166.72h-6.48c-0.4,0-0.73-0.4-0.73-0.88v-8.19c0-3.56,0.59-7.02,1.75-10.28l0.37-1.03
								c0.84-2.35,2.74-3.88,4.86-3.88c1.02,0,1.96,0.62,2.52,1.65c0.56,1.03,0.65,2.32,0.24,3.46l-0.12,0.33
								c-1.1,3.06-1.66,6.3-1.66,9.63l-0.01,8.31C-299.42,166.33-299.75,166.72-300.15,166.72z M-305.91,164.96h5.02l0.01-7.43
								c0-3.58,0.6-7.05,1.78-10.33l0.12-0.33c0.21-0.59,0.17-1.24-0.13-1.78c-0.29-0.54-0.77-0.85-1.3-0.85
								c-1.53,0-2.91,1.1-3.52,2.81l-0.37,1.03c-1.08,3.04-1.63,6.27-1.63,9.58V164.96z"/>
						</g>
					</g>
					<g id="XMLID_29_">
						<g id="XMLID_30_">
							<path class="st1" d="M-306.63,166.72h-30.51c-0.4,0-0.73-0.4-0.73-0.88v-5.81c0-0.49,0.33-0.88,0.73-0.88h30.51
								c0.4,0,0.73,0.4,0.73,0.88v5.81C-305.91,166.33-306.23,166.72-306.63,166.72z M-336.41,164.96h29.05v-4.04h-29.05V164.96z"/>
						</g>
					</g>
					<g id="XMLID_25_">
						<g id="XMLID_26_">
							<path class="st1" d="M-302.29,171.05h-2.14c-0.37,0-0.68-0.34-0.72-0.79l-0.39-4.32c-0.02-0.25,0.04-0.5,0.18-0.69
								c0.14-0.19,0.34-0.29,0.54-0.29h2.92c0.21,0,0.4,0.11,0.54,0.29c0.14,0.19,0.2,0.44,0.18,0.69l-0.39,4.32
								C-301.61,170.71-301.92,171.05-302.29,171.05z M-303.78,169.28h0.83l0.23-2.56h-1.29L-303.78,169.28z"/>
						</g>
					</g>
					<g id="XMLID_21_">
						<path id="XMLID_22_" class="st1" d="M-337.08,166.72h-6.48c-0.4,0-0.73-0.39-0.73-0.88l-0.01-8.31c0-3.33-0.56-6.57-1.66-9.63
							l-0.12-0.33c-0.41-1.13-0.32-2.42,0.24-3.46c0.56-1.03,1.5-1.65,2.52-1.65c2.11,0,4.02,1.52,4.86,3.88l0.37,1.03
							c1.16,3.27,1.75,6.73,1.75,10.28v8.19C-336.35,166.33-336.67,166.72-337.08,166.72z M-342.83,164.96h5.02v-7.31
							c0-3.31-0.55-6.54-1.63-9.58l-0.37-1.03c-0.61-1.71-1.99-2.81-3.52-2.81c-0.53,0-1.01,0.31-1.3,0.85
							c-0.29,0.54-0.34,1.19-0.13,1.78l0.12,0.33c1.18,3.28,1.78,6.76,1.78,10.33L-342.83,164.96z"/>
					</g>
					<g id="XMLID_17_">
						<path id="XMLID_18_" class="st1" d="M-339.28,171.05h-2.14c-0.37,0-0.68-0.34-0.72-0.79l-0.39-4.32
							c-0.02-0.25,0.04-0.5,0.18-0.69c0.14-0.19,0.34-0.29,0.54-0.29h2.92c0.21,0,0.4,0.11,0.54,0.29c0.14,0.19,0.2,0.44,0.18,0.69
							l-0.39,4.32C-338.6,170.71-338.91,171.05-339.28,171.05z M-340.77,169.28h0.83l0.23-2.56H-341L-340.77,169.28z"/>
					</g>
					<g id="XMLID_14_">
						<g id="XMLID_15_">
							<rect id="XMLID_16_" x="-337.55" y="153.55" class="st1" width="31.38" height="1.77"/>
						</g>
					</g>
					<g id="XMLID_11_">
						<g id="XMLID_12_">
							<rect id="XMLID_13_" x="-322.58" y="154.61" class="st1" width="1.46" height="5.35"/>
						</g>
					</g>
					<g id="XMLID_7_">
						<g id="XMLID_8_">
							<path class="st1" d="M-323.48,155.32h-12.03c-1.3,0-2.36-1.28-2.36-2.86v-14.13c0-1.58,1.06-2.86,2.36-2.86h12.03
								c1.3,0,2.36,1.28,2.36,2.86v14.13C-321.13,154.04-322.18,155.32-323.48,155.32z M-335.51,137.24c-0.5,0-0.9,0.49-0.9,1.09
								v14.13c0,0.6,0.4,1.09,0.9,1.09h12.03c0.5,0,0.9-0.49,0.9-1.09v-14.13c0-0.6-0.4-1.09-0.9-1.09H-335.51z"/>
						</g>
					</g>
					<g id="XMLID_3_">
						<g id="XMLID_4_">
							<path class="st1" d="M-308.23,155.32h-12.03c-1.3,0-2.36-1.28-2.36-2.86v-14.13c0-1.58,1.06-2.86,2.36-2.86h12.03
								c1.3,0,2.36,1.28,2.36,2.86v14.13C-305.87,154.04-306.93,155.32-308.23,155.32z M-320.26,137.24c-0.5,0-0.9,0.49-0.9,1.09
								v14.13c0,0.6,0.4,1.09,0.9,1.09h12.03c0.5,0,0.9-0.49,0.9-1.09v-14.13c0-0.6-0.4-1.09-0.9-1.09H-320.26z"/>
						</g>
					</g>
				</g>
			</g>
		</g>
	</g>
</g>
</svg>
