<?xml version="1.0" encoding="utf-8"?>
<!-- Generator: Adobe Illustrator 24.2.1, SVG Export Plug-In . SVG Version: 6.00 Build 0)  -->
<svg version="1.1" id="Layer_1" xmlns="http://www.w3.org/2000/svg" xmlns:xlink="http://www.w3.org/1999/xlink" x="0px" y="0px"
	 viewBox="0 0 111.6 111.6" style="enable-background:new 0 0 111.6 111.6;" xml:space="preserve">
<style type="text/css">
	.st0{fill:#FFFFFF;}
</style>
<g>
	<path class="st0" d="M55.8,1.8c-29.82,0-54,24.18-54,54c0,29.82,24.18,54,54,54c29.82,0,54-24.18,54-54
		C109.8,25.98,85.62,1.8,55.8,1.8z M71.66,34.56c0,0-5.37,0-7.5,0c-2.65,0-3.2,1.08-3.2,3.82c0,2.28,0,6.62,0,6.62h10.7l-1.03,11.62
		h-9.67v34.71H47.1V56.77h-7.21V45h7.21c0,0,0-1.69,0-9.27c0-8.7,4.65-13.24,14.96-13.24c1.69,0,9.6,0,9.6,0V34.56z"/>
</g>
</svg>
