<?xml version="1.0" encoding="utf-8"?>
<!-- Generator: Adobe Illustrator 24.2.1, SVG Export Plug-In . SVG Version: 6.00 Build 0)  -->
<svg version="1.1" id="Layer_1" xmlns="http://www.w3.org/2000/svg" xmlns:xlink="http://www.w3.org/1999/xlink" x="0px" y="0px"
	 viewBox="0 0 144 144" style="enable-background:new 0 0 144 144;" xml:space="preserve">
<style type="text/css">
	.st0{fill:#231F20;}
	.st1{fill:none;}
	.st2{fill:#EC1C24;}
	.st3{fill:#FFFFFF;}
</style>
<rect class="st0" width="144" height="144"/>
<g>
	<path class="st1" d="M85.38-67.48c13.34,0,14.55-11.44,14.55-14.26c0-7.25-4.77-14.32-14.55-14.32c-10.06,0-14.43,7.53-14.43,14.55
		C70.94-74.95,74.91-67.48,85.38-67.48z"/>
	<polygon class="st1" points="95.13,-32.47 102.89,-32.47 99.04,-41.11 	"/>
	<path class="st1" d="M74.87-42.61h-8.89v5.41h9.1c1.03,0,3.07-0.25,3.07-2.63C78.15-42.17,76.4-42.61,74.87-42.61z"/>
	<path class="st1" d="M308.64-42.67h-8.1v6.07h6.79c0.81,0,1.94,0,2.69-0.31c1.5-0.63,1.53-2.13,1.53-2.66
		C311.54-40.89,310.92-42.67,308.64-42.67z"/>
	<path class="st1" d="M276.98-43.2c-5.48,0-7.85,4.1-7.85,7.92c0,3.57,2.16,7.63,7.85,7.63c7.26,0,7.91-6.23,7.91-7.76
		C284.9-39.36,282.3-43.2,276.98-43.2z"/>
	<path class="st2" d="M85.49-60.18c16.04,0,24.78-8.63,24.78-22.02c0-15.99-12.59-21.16-25.13-21.16S60.48-97.49,60.48-81.8
		C60.48-68.86,69.45-60.18,85.49-60.18z M85.38-96.06c9.77,0,14.55,7.07,14.55,14.32c0,2.82-1.21,14.26-14.55,14.26
		c-10.47,0-14.43-7.48-14.43-14.03C70.94-88.52,75.31-96.06,85.38-96.06z"/>
	<polygon class="st2" points="126.43,-61.5 136.67,-61.5 136.67,-94.68 151.67,-94.68 151.67,-102.09 111.37,-102.09 111.37,-94.68 
		126.43,-94.68 	"/>
	<path class="st2" d="M194.29-73.86c0-9.03-8.4-10.64-13.69-11.56c-2.93-0.52-10.18-1.61-13.05-2.47c-1.78-0.57-3.22-1.44-3.22-3.51
		c0-4.6,6.96-4.72,8.86-4.72c4.14,0,9.78,0.75,11.96,4.89l9.6-2.41c-3.22-5.75-9.37-9.72-21.28-9.72
		c-10.06,0-18.97,3.68-18.97,12.71c0,6.15,4.54,8.8,6.38,9.66c3.28,1.55,7.25,2.13,14.78,3.28c5,0.75,8.91,1.32,8.91,4.66
		c0,5.12-8.16,5.35-10.12,5.35c-5,0-11.33-1.21-13.74-6.32l-9.26,2.36c3.97,7.48,10.35,11.44,22.2,11.44
		C183.94-60.23,194.29-62.71,194.29-73.86z"/>
	<path class="st2" d="M246.21-76.28v-25.82h-10.12v25.76c0,6.32-6.56,7.99-11.67,7.99c-6.27,0-11.84-2.13-11.84-9.03v-24.73h-10.12
		v25.7c0,11.1,9.49,16.27,22.08,16.27C236.84-60.12,246.21-65.18,246.21-76.28z"/>
	<polygon class="st2" points="267.83,-73.69 273.98,-78.98 289.85,-61.5 303.48,-61.5 280.94,-84.96 300.72,-102.09 287.61,-102.09 
		267.83,-84.33 267.83,-102.09 257.71,-102.09 257.71,-61.5 267.83,-61.5 	"/>
	<rect x="306.87" y="-102.09" class="st2" width="10.18" height="40.6"/>
	<path class="st3" d="M83.16-36.98c0.56-1.25,0.59-2.35,0.59-2.91c0-2.91-1.56-5.35-4.41-6.19c-0.91-0.28-1.75-0.41-3.66-0.41H60.48
		v22.09h5.51v-8.89h6.32l5.88,8.89h6.54L78-33.63C80.25-34.04,82.16-34.73,83.16-36.98z M75.09-37.2h-9.1v-5.41h8.89
		c1.53,0,3.28,0.44,3.28,2.78C78.15-37.45,76.12-37.2,75.09-37.2z"/>
	<path class="st3" d="M96.1-46.49L85.43-24.4h6.04l1.88-4.16h11.33l1.88,4.16h6.19l-10.67-22.09H96.1z M95.13-32.47l3.91-8.64
		l3.85,8.64H95.13z"/>
	<path class="st3" d="M130.04-30.28l-6.85-16.21h-8.01v22.09h5.26c0-0.84-0.12-16.99-0.12-16.99l7.16,16.99h5.04l7.1-16.99
		c0,0-0.13,15.86-0.13,16.99h5.26v-22.09h-7.92L130.04-30.28z"/>
	<polygon class="st3" points="156.56,-33.6 171.11,-33.6 171.11,-37.54 156.56,-37.54 156.56,-42.51 171.61,-42.51 171.61,-46.49 
		151.02,-46.49 151.02,-24.4 172.24,-24.4 172.24,-28.34 156.56,-28.34 	"/>
	<polygon class="st3" points="196.2,-31.06 182.65,-46.49 177.11,-46.49 177.11,-24.4 182.37,-24.4 182.37,-39.89 196.01,-24.4 
		201.45,-24.4 201.45,-46.49 196.2,-46.49 	"/>
	<path class="st3" d="M228.25-43.24c2.25,0,5.32,0.41,6.51,2.66l5.22-1.31c-1.75-3.13-5.1-5.29-11.58-5.29
		c-5.47,0-10.32,2-10.32,6.92c0,3.35,2.47,4.79,3.47,5.26c1.78,0.84,3.94,1.16,8.04,1.78c2.72,0.41,4.85,0.72,4.85,2.53
		c0,2.78-4.44,2.91-5.51,2.91c-2.72,0-6.16-0.66-7.48-3.44l-5.04,1.28c2.16,4.07,5.63,6.23,12.08,6.23c5.6,0,11.23-1.34,11.23-7.42
		c0-4.91-4.57-5.79-7.45-6.29c-1.6-0.28-5.54-0.88-7.1-1.35c-0.97-0.31-1.75-0.78-1.75-1.91C223.43-43.17,227.22-43.24,228.25-43.24
		z"/>
	<polygon class="st3" points="240.92,-42.45 249.11,-42.45 249.11,-24.4 254.68,-24.4 254.68,-42.45 262.85,-42.45 262.85,-46.49 
		240.92,-46.49 	"/>
	<path class="st3" d="M276.86-47.18c-6.82,0-13.42,3.19-13.42,11.73c0,7.04,4.88,11.76,13.61,11.76c8.73,0,13.48-4.69,13.48-11.98
		C290.53-44.36,283.68-47.18,276.86-47.18z M276.98-27.65c-5.7,0-7.85-4.07-7.85-7.63c0-3.82,2.38-7.92,7.85-7.92
		c5.32,0,7.91,3.85,7.91,7.79C284.9-33.88,284.24-27.65,276.98-27.65z"/>
	<path class="st3" d="M308.82-46.49h-13.74v22.09h5.44v-8.32h7.7c3.19,0,5.47-0.22,7.35-2.35c1.13-1.28,1.47-3.07,1.47-4.51
		c0-1.94-0.56-3.28-0.97-3.94C314.52-46.18,311.64-46.49,308.82-46.49z M310.01-36.92c-0.75,0.31-1.88,0.31-2.69,0.31h-6.79v-6.07
		h8.1c2.28,0,2.91,1.78,2.91,3.1C311.54-39.04,311.51-37.54,310.01-36.92z"/>
	<rect x="61.71" y="-113.29" class="st2" width="47.11" height="5.87"/>
</g>
<g>
	<path class="st1" d="M85.65,91.23c-0.64,0.02-1.28,0.04-1.94,0.06c0.25-0.01,0.5-0.01,0.75-0.02
		C84.87,91.25,85.26,91.24,85.65,91.23z"/>
	<path class="st1" d="M78.13,87.33c0-1.63-1.32-2.94-2.94-2.94c-1.63,0-2.94,1.32-2.94,2.94c0,1.63,1.32,2.94,2.94,2.94
		C76.82,90.28,78.13,88.96,78.13,87.33z"/>
	<path class="st1" d="M99.5,84.39c0-1.63-1.32-2.94-2.94-2.94c-1.63,0-2.94,1.32-2.94,2.94c0,1.63,1.32,2.94,2.94,2.94
		C98.19,87.33,99.5,86.01,99.5,84.39z"/>
	<path class="st1" d="M70.33,70.4c1.06-0.3,2.16-0.51,3.29-0.61c-0.02-0.31-0.05-0.61-0.05-0.92c0-6.47,5.25-11.72,11.72-11.72
		c5.76,0,10.54,4.16,11.53,9.64c1.17,0.02,2.31,0.14,3.42,0.38c-0.85-7.5-7.21-13.34-14.94-13.34c-8.31,0-15.05,6.74-15.05,15.05
		C70.26,69.38,70.28,69.89,70.33,70.4z"/>
	<path class="st1" d="M59.07,91.25C59.07,91.25,59.07,91.25,59.07,91.25c0.08,0,0.16,0.01,0.25,0.01c0.29,0.01,0.58,0.02,0.87,0.03
		c-0.47-0.01-0.93-0.03-1.39-0.05C58.88,91.24,58.97,91.25,59.07,91.25z"/>
	<path class="st1" d="M84.16,87.33c0-4.95-4.02-8.97-8.97-8.97c-4.95,0-8.97,4.01-8.97,8.97c0,1.48,0.36,2.87,0.99,4.1
		c1.4,0.02,2.81,0.03,4.24,0.03c-1.12-1.02-1.83-2.49-1.83-4.13c0-3.07,2.49-5.57,5.57-5.57s5.57,2.49,5.57,5.57
		c0,1.61-0.68,3.05-1.77,4.07c0.46-0.01,0.93-0.02,1.38-0.03c0.24-0.01,0.49-0.01,0.73-0.02c0.13,0,0.27-0.01,0.4-0.01c0,0,0,0,0,0
		c0.11,0,0.21-0.01,0.32-0.01c0.31-0.01,0.61-0.02,0.92-0.02c0.15,0,0.31-0.01,0.46-0.01c0.01,0,0.02,0,0.04,0
		C83.82,90.11,84.16,88.76,84.16,87.33z"/>
	<path class="st1" d="M47.44,81.45c-1.63,0-2.94,1.32-2.94,2.94c0,1.63,1.32,2.94,2.94,2.94c1.63,0,2.94-1.32,2.94-2.94
		C50.38,82.76,49.06,81.45,47.44,81.45z"/>
	<path class="st1" d="M57,91.18c0.33,0.01,0.66,0.02,0.99,0.04c-0.1-0.43-0.15-0.86-0.22-1.3C57.54,90.35,57.28,90.77,57,91.18z"/>
	<path class="st1" d="M86.15,73.54c0.87,0.69,1.67,1.47,2.4,2.31c2.1-1.97,4.91-3.18,8.01-3.18c6.47,0,11.72,5.25,11.72,11.72
		c0,1.83-0.42,3.57-1.17,5.11c1.52-0.24,2.82-0.5,3.86-0.77c0.41-1.38,0.64-2.84,0.64-4.35c0-8.31-6.74-15.05-15.05-15.05
		C92.52,69.34,88.86,70.95,86.15,73.54z"/>
	<path class="st1" d="M47.44,75.42c-4.95,0-8.97,4.02-8.97,8.97c0,2.12,0.73,4.06,1.96,5.6c3.62,0.43,8.06,0.78,13.05,1.03
		c1.8-1.64,2.93-4,2.93-6.63C56.41,79.44,52.39,75.42,47.44,75.42z M47.44,89.96c-3.07,0-5.57-2.49-5.57-5.57
		c0-3.07,2.49-5.57,5.57-5.57s5.57,2.49,5.57,5.57C53.01,87.46,50.51,89.96,47.44,89.96z"/>
	<path class="st1" d="M91.38,90.97c0.36-0.02,0.72-0.04,1.07-0.06c-0.69,0.04-1.4,0.08-2.11,0.11c0.06,0,0.12-0.01,0.19-0.01
		C90.81,91,91.1,90.99,91.38,90.97C91.38,90.97,91.38,90.97,91.38,90.97z"/>
	<path class="st1" d="M90.19,91.03c-0.02,0-0.05,0-0.07,0c0.04,0,0.08,0,0.13-0.01C90.23,91.03,90.21,91.03,90.19,91.03z"/>
	<path class="st1" d="M61.99,74.44c0.72-0.17,1.41-0.43,2.05-0.76c0.6-0.49,1.24-0.93,1.9-1.34c0.71-0.65,1.32-1.41,1.79-2.25
		c-0.03-0.41-0.06-0.82-0.06-1.23c0-1.91,0.31-3.75,0.88-5.48c-1.03-3.81-4.51-6.62-8.65-6.62c-4.95,0-8.97,4.02-8.97,8.97
		c0,0.48,0.05,0.95,0.12,1.41c1.43,0.3,2.79,0.79,4.07,1.41c-0.49-0.83-0.79-1.78-0.79-2.81c0-3.07,2.49-5.57,5.57-5.57
		s5.57,2.49,5.57,5.57c0,3.07-2.49,5.57-5.57,5.57c-0.27,0-0.52-0.04-0.78-0.08C60.2,72.18,61.17,73.25,61.99,74.44z"/>
	<path class="st1" d="M96.56,75.42c-2.5,0-4.75,1.02-6.38,2.67c0.66,1.07,1.21,2.22,1.63,3.43c0.98-1.61,2.73-2.69,4.75-2.69
		c3.07,0,5.57,2.49,5.57,5.57c0,3.07-2.49,5.57-5.57,5.57c-1.47,0-2.8-0.58-3.8-1.52c-0.05,0.84-0.14,1.67-0.31,2.48
		c4.21-0.24,7.97-0.56,11.12-0.93c1.23-1.53,1.96-3.48,1.96-5.6C105.53,79.44,101.51,75.42,96.56,75.42z"/>
	<path class="st1" d="M90.12,91.04c-0.12,0.01-0.23,0.01-0.35,0.02c0,0,0,0,0,0C89.89,91.05,90,91.04,90.12,91.04z"/>
	<path class="st1" d="M90.76,67.76c1.06-0.37,2.16-0.64,3.31-0.8c-0.87-4.04-4.46-7.07-8.76-7.07c-4.95,0-8.97,4.02-8.97,8.97
		c0,0.3,0.02,0.61,0.05,0.9c1.24,0.08,2.44,0.29,3.59,0.61c-0.14-0.49-0.24-0.99-0.24-1.52c0-3.07,2.49-5.57,5.57-5.57
		C88,63.29,90.25,65.21,90.76,67.76z"/>
	<path class="st1" d="M82.36,68.86c0,1.31,0.86,2.41,2.04,2.79c1.15-1.1,2.43-2.04,3.84-2.8c-0.01-1.62-1.32-2.93-2.94-2.93
		C83.68,65.92,82.36,67.24,82.36,68.86z"/>
	<path class="st1" d="M60.67,91.3c0.04,0,0.09,0,0.13,0c0,0,0,0,0,0c0.25,0.01,0.51,0.02,0.76,0.02c0.24,0.01,0.48,0.01,0.73,0.02
		c0.07,0,0.14,0,0.2,0.01c0,0,0,0,0,0c0.09,0,0.19,0,0.29,0.01c0.28,0.01,0.56,0.01,0.84,0.02c0.19,0,0.37,0.01,0.56,0.01
		c-0.47-1.26-0.72-2.63-0.72-4.05c0-6.47,5.25-11.72,11.72-11.72s11.72,5.25,11.72,11.72c0,1.36-0.23,2.66-0.66,3.87
		c0.24-0.01,0.48-0.02,0.71-0.03c0.01,0,0.03,0,0.04,0c0,0,0,0,0,0c0.07,0,0.14-0.01,0.21-0.01c-0.06,0-0.12,0.01-0.18,0.01
		c0.29-0.01,0.57-0.02,0.86-0.04c0.53-0.02,1.05-0.04,1.57-0.07c0.11,0,0.21-0.01,0.32-0.02c0.3-1.19,0.46-2.44,0.46-3.72
		c0-8.31-6.74-15.05-15.05-15.05s-15.05,6.74-15.05,15.05C60.14,88.71,60.33,90.04,60.67,91.3z"/>
	<path class="st1" d="M62.85,65.73c0-1.63-1.32-2.94-2.94-2.94s-2.94,1.32-2.94,2.94c0,1.63,1.32,2.94,2.94,2.94
		S62.85,67.36,62.85,65.73z"/>
	<path class="st1" d="M47.44,66.76c0.27,0,0.53,0.03,0.8,0.04c-0.03-0.35-0.05-0.71-0.05-1.07c0-6.47,5.25-11.72,11.72-11.72
		c4.38,0,8.18,2.4,10.2,5.96c0.61-1.03,1.31-1.99,2.11-2.88c-2.72-3.87-7.21-6.4-12.3-6.4c-8.31,0-15.05,6.74-15.05,15.05
		c0,0.42,0.03,0.82,0.06,1.23C45.74,66.84,46.58,66.76,47.44,66.76z"/>
	<path class="st1" d="M23.2,96.28c8.83,26.65,37.9,36.55,61.79,29.73c-9.93,1.09-19.72,0-29.45-1.99
		c15.47,1.24,29.86-0.77,43.06-6.34c-15.72,3.16-30.87,2.38-45.76-0.23c20.13,1.09,36.89-1.09,50.01-6.8
		c-17.85,3.86-34.97,3.23-51.79,0.7c19.44,1.39,37.96-1.39,55.97-6.49c-19.85,4.14-38.9,3.36-57.59,0.46
		c25.77,1.25,48.3-1.63,67.27-9.03C85.96,102.28,61.68,103.59,23.2,96.28z"/>
	<path class="st1" d="M36.89,89.5c-0.75-1.55-1.17-3.28-1.17-5.11c0-6.47,5.25-11.72,11.72-11.72c5.35,0,9.85,3.59,11.26,8.49
		c0.52-1.37,1.19-2.67,2.01-3.86c-2.53-4.73-7.52-7.95-13.27-7.95c-8.31,0-15.05,6.74-15.05,15.05c0,1.51,0.22,2.97,0.64,4.35
		C34.07,89.01,35.37,89.26,36.89,89.5z"/>
	<path class="st3" d="M114.06,82.35c-0.76-6.61-5.18-12.09-11.18-14.4c-0.17-3.25-1.2-6.27-2.89-8.82l18.06-37.17
		c0.9-1.85-2.77-3.36-3.53-1.76L97.53,56.18c-1.75-1.69-3.86-3.01-6.19-3.87l11.26-36.64c0.6-1.97-3.25-2.9-3.76-1.2L87.93,51.45
		c-0.86-0.13-1.73-0.22-2.62-0.22c-4.27,0-8.18,1.52-11.23,4.04c-3.21-4.34-8.35-7.17-14.17-7.17c-9.74,0-17.63,7.89-17.63,17.63
		c0,0.6,0.03,1.19,0.09,1.78c-6.63,1.99-11.61,7.78-12.43,14.84C22.48,83.67,18,85.34,18,87.16c0,0.15,0.03,0.29,0.09,0.43
		c10.64,57.08,97.19,57.08,107.83,0c0.06-0.14,0.09-0.29,0.09-0.43C126,85.34,121.52,83.67,114.06,82.35z M59.9,71.3
		c3.07,0,5.57-2.49,5.57-5.57c0-3.07-2.49-5.57-5.57-5.57s-5.57,2.49-5.57,5.57c0,1.03,0.3,1.99,0.79,2.81
		c-1.28-0.62-2.64-1.11-4.07-1.41c-0.07-0.46-0.12-0.93-0.12-1.41c0-4.95,4.02-8.97,8.97-8.97c4.14,0,7.62,2.81,8.65,6.62
		c-0.56,1.72-0.88,3.56-0.88,5.48c0,0.42,0.03,0.82,0.06,1.23c-0.47,0.85-1.08,1.6-1.79,2.25c-0.66,0.41-1.3,0.85-1.9,1.34
		c-0.64,0.34-1.33,0.59-2.05,0.76c-0.82-1.19-1.79-2.27-2.86-3.23C59.38,71.25,59.64,71.3,59.9,71.3z M56.96,65.73
		c0-1.63,1.32-2.94,2.94-2.94s2.94,1.32,2.94,2.94c0,1.63-1.32,2.94-2.94,2.94S56.96,67.36,56.96,65.73z M75.19,72.29
		c8.31,0,15.05,6.74,15.05,15.05c0,1.28-0.16,2.53-0.46,3.72c0.12-0.01,0.23-0.01,0.35-0.02c0.02,0,0.05,0,0.07,0
		c0.02,0,0.04,0,0.06,0c-0.04,0-0.08,0-0.13,0.01c-0.12,0.01-0.23,0.01-0.35,0.02c0,0,0,0,0,0c-0.11,0.01-0.21,0.01-0.32,0.02
		c-0.52,0.02-1.04,0.05-1.57,0.07c-0.29,0.01-0.57,0.03-0.86,0.04c0.06,0,0.12-0.01,0.18-0.01c-0.07,0-0.14,0.01-0.21,0.01
		c0,0,0,0,0,0c-0.01,0-0.03,0-0.04,0c-0.23,0.01-0.47,0.02-0.71,0.03c0.42-1.21,0.66-2.51,0.66-3.87c0-6.47-5.25-11.72-11.72-11.72
		s-11.72,5.25-11.72,11.72c0,1.42,0.25,2.79,0.72,4.05c-0.19,0-0.37-0.01-0.56-0.01c-0.28-0.01-0.56-0.01-0.84-0.02
		c-0.09,0-0.19,0-0.29-0.01c0,0,0,0,0,0c-0.07,0-0.14,0-0.2-0.01c-0.25-0.01-0.48-0.01-0.73-0.02c-0.26-0.01-0.51-0.01-0.76-0.02
		c0,0,0,0,0,0c-0.04,0-0.09,0-0.13,0c-0.34-1.26-0.53-2.59-0.53-3.97C60.14,79.02,66.88,72.29,75.19,72.29z M85.3,63.29
		c-3.07,0-5.57,2.49-5.57,5.57c0,0.53,0.1,1.03,0.24,1.52c-1.15-0.32-2.35-0.53-3.59-0.61c-0.03-0.3-0.05-0.6-0.05-0.9
		c0-4.95,4.01-8.97,8.97-8.97c4.3,0,7.89,3.03,8.76,7.07c-1.14,0.16-2.25,0.43-3.31,0.8C90.25,65.21,88,63.29,85.3,63.29z
		 M88.24,68.85c-1.41,0.76-2.7,1.71-3.84,2.8c-1.18-0.38-2.04-1.48-2.04-2.79c0-1.63,1.32-2.94,2.94-2.94
		C86.92,65.92,88.24,67.23,88.24,68.85z M103.57,89.99c-3.15,0.37-6.91,0.69-11.12,0.93c0.17-0.8,0.26-1.64,0.31-2.48
		c1,0.94,2.33,1.52,3.8,1.52c3.07,0,5.57-2.49,5.57-5.57c0-3.07-2.49-5.57-5.57-5.57c-2.02,0-3.77,1.09-4.75,2.69
		c-0.42-1.21-0.97-2.35-1.63-3.43c1.63-1.65,3.88-2.67,6.38-2.67c4.95,0,8.97,4.02,8.97,8.97C105.53,86.51,104.8,88.45,103.57,89.99
		z M90.52,91.02c-0.06,0-0.12,0.01-0.19,0.01c0.71-0.04,1.42-0.07,2.11-0.11c-0.35,0.02-0.71,0.04-1.07,0.06c0,0,0,0,0,0
		C91.1,90.99,90.81,91,90.52,91.02z M93.62,84.39c0-1.63,1.32-2.94,2.94-2.94c1.63,0,2.94,1.32,2.94,2.94
		c0,1.63-1.32,2.94-2.94,2.94C94.94,87.33,93.62,86.01,93.62,84.39z M83.2,91.3c-0.15,0-0.31,0.01-0.46,0.01
		c-0.3,0.01-0.61,0.02-0.92,0.02c-0.11,0-0.21,0.01-0.32,0.01c0,0,0,0,0,0c-0.13,0-0.26,0.01-0.4,0.01
		c-0.24,0.01-0.48,0.01-0.73,0.02c-0.46,0.01-0.92,0.02-1.38,0.03c1.09-1.02,1.77-2.46,1.77-4.07c0-3.07-2.49-5.57-5.57-5.57
		s-5.57,2.49-5.57,5.57c0,1.64,0.71,3.11,1.83,4.13c-1.43,0-2.85-0.01-4.24-0.03c-0.63-1.23-0.99-2.62-0.99-4.1
		c0-4.95,4.02-8.97,8.97-8.97c4.95,0,8.97,4.01,8.97,8.97c0,1.43-0.33,2.77-0.93,3.97C83.22,91.3,83.21,91.3,83.2,91.3z
		 M72.25,87.33c0-1.63,1.32-2.94,2.94-2.94c1.63,0,2.94,1.32,2.94,2.94c0,1.63-1.32,2.94-2.94,2.94
		C73.56,90.28,72.25,88.96,72.25,87.33z M85.65,91.23c-0.39,0.01-0.78,0.03-1.18,0.04c-0.25,0.01-0.5,0.01-0.75,0.02
		C84.37,91.27,85.01,91.25,85.65,91.23z M60.18,91.29c-0.29-0.01-0.58-0.02-0.87-0.03c-0.08,0-0.16,0-0.24-0.01c0,0,0,0,0,0
		c-0.09,0-0.18-0.01-0.28-0.01C59.25,91.26,59.71,91.27,60.18,91.29z M53.48,91.02c-4.99-0.25-9.43-0.6-13.05-1.03
		c-1.23-1.53-1.96-3.48-1.96-5.6c0-4.95,4.02-8.97,8.97-8.97c4.95,0,8.97,4.02,8.97,8.97C56.41,87.01,55.28,89.38,53.48,91.02z
		 M57,91.18c0.29-0.4,0.54-0.83,0.78-1.27c0.06,0.44,0.12,0.88,0.22,1.3C57.66,91.2,57.32,91.19,57,91.18z M111.61,84.39
		c0,1.51-0.22,2.97-0.64,4.35c-1.04,0.27-2.34,0.53-3.86,0.77c0.75-1.55,1.17-3.28,1.17-5.11c0-6.47-5.25-11.72-11.72-11.72
		c-3.1,0-5.92,1.21-8.01,3.18c-0.72-0.84-1.53-1.62-2.4-2.31c2.7-2.6,6.37-4.2,10.41-4.2C104.87,69.34,111.61,76.08,111.61,84.39z
		 M85.3,53.82c7.73,0,14.09,5.83,14.94,13.34c-1.1-0.23-2.25-0.36-3.42-0.38c-0.99-5.48-5.77-9.64-11.53-9.64
		c-6.47,0-11.72,5.25-11.72,11.72c0,0.31,0.02,0.62,0.05,0.92c-1.13,0.1-2.23,0.31-3.29,0.61c-0.05-0.51-0.08-1.02-0.08-1.54
		C70.26,60.55,76.99,53.82,85.3,53.82z M59.9,50.68c5.09,0,9.58,2.53,12.3,6.4c-0.79,0.88-1.5,1.84-2.11,2.88
		c-2.01-3.55-5.82-5.96-10.2-5.96c-6.47,0-11.72,5.25-11.72,11.72c0,0.36,0.02,0.72,0.05,1.07c-0.27-0.01-0.53-0.04-0.8-0.04
		c-0.86,0-1.69,0.08-2.52,0.2c-0.03-0.41-0.06-0.82-0.06-1.23C44.86,57.42,51.59,50.68,59.9,50.68z M47.44,69.34
		c5.74,0,10.73,3.22,13.27,7.95c-0.82,1.19-1.49,2.48-2.01,3.86c-1.41-4.9-5.91-8.49-11.26-8.49c-6.47,0-11.72,5.25-11.72,11.72
		c0,1.83,0.42,3.57,1.17,5.11c-1.52-0.24-2.82-0.5-3.86-0.77c-0.42-1.38-0.64-2.84-0.64-4.35C32.39,76.08,39.13,69.34,47.44,69.34z
		 M49.44,105.31c18.69,2.9,37.73,3.68,57.59-0.46c-18,5.1-36.52,7.88-55.97,6.49c16.82,2.53,33.94,3.16,51.79-0.7
		c-13.12,5.72-29.89,7.89-50.01,6.8c14.89,2.61,30.05,3.39,45.76,0.23c-13.2,5.57-27.59,7.57-43.06,6.34
		c9.73,1.99,19.52,3.08,29.45,1.99c-23.89,6.82-52.96-3.09-61.79-29.73c38.48,7.31,62.75,6,93.51,0
		C97.74,103.69,75.21,106.56,49.44,105.31z"/>
	<path class="st3" d="M47.44,78.82c-3.07,0-5.57,2.49-5.57,5.57c0,3.07,2.49,5.57,5.57,5.57s5.57-2.49,5.57-5.57
		C53.01,81.31,50.51,78.82,47.44,78.82z M47.44,87.33c-1.63,0-2.94-1.32-2.94-2.94c0-1.63,1.32-2.94,2.94-2.94
		c1.63,0,2.94,1.32,2.94,2.94C50.38,86.01,49.06,87.33,47.44,87.33z"/>
</g>
</svg>
