<?xml version="1.0" encoding="utf-8"?>
<!-- Generator: Adobe Illustrator 24.2.1, SVG Export Plug-In . SVG Version: 6.00 Build 0)  -->
<svg version="1.1" id="Layer_1" xmlns="http://www.w3.org/2000/svg" xmlns:xlink="http://www.w3.org/1999/xlink" x="0px" y="0px"
	 viewBox="0 0 111.6 111.6" style="enable-background:new 0 0 111.6 111.6;" xml:space="preserve">
<style type="text/css">
	.st0{fill:#FFFFFF;}
</style>
<g>
	<path class="st0" d="M80.19,38.52c-0.57-1.46-1.24-2.5-2.34-3.59c-1.09-1.09-2.13-1.77-3.59-2.34c-1.1-0.43-2.75-0.94-5.8-1.08
		c-3.29-0.15-4.28-0.18-12.62-0.18c-8.34,0-9.32,0.03-12.62,0.18c-3.04,0.14-4.7,0.65-5.8,1.08c-1.46,0.57-2.5,1.24-3.59,2.34
		c-1.09,1.09-1.77,2.13-2.34,3.59c-0.43,1.1-0.94,2.75-1.08,5.8c-0.15,3.29-0.18,4.28-0.18,12.62c0,8.34,0.03,9.32,0.18,12.62
		c0.14,3.04,0.65,4.7,1.08,5.8c0.56,1.46,1.24,2.5,2.34,3.59c1.09,1.09,2.13,1.77,3.59,2.34c1.1,0.43,2.75,0.94,5.8,1.08
		c3.29,0.15,4.28,0.18,12.62,0.18c8.34,0,9.32-0.03,12.62-0.18c3.04-0.14,4.7-0.65,5.8-1.08c1.46-0.57,2.5-1.24,3.59-2.34
		c1.09-1.09,1.77-2.13,2.34-3.59c0.43-1.1,0.94-2.75,1.07-5.8c0.15-3.29,0.18-4.28,0.18-12.62c0-8.34-0.03-9.32-0.18-12.62
		C81.13,41.27,80.62,39.62,80.19,38.52z M55.86,72.96c-8.86,0-16.03-7.18-16.03-16.03c0-8.86,7.18-16.03,16.03-16.03
		c8.85,0,16.03,7.18,16.03,16.03C71.89,65.79,64.71,72.96,55.86,72.96z M72.52,44.01c-2.07,0-3.75-1.68-3.75-3.75
		c0-2.07,1.68-3.75,3.75-3.75c2.07,0,3.75,1.68,3.75,3.75C76.27,42.33,74.59,44.01,72.52,44.01z"/>
	<path class="st0" d="M55.86,46.52c-5.75,0-10.41,4.66-10.41,10.41c0,5.75,4.66,10.41,10.41,10.41c5.75,0,10.41-4.66,10.41-10.41
		C66.26,51.18,61.6,46.52,55.86,46.52z"/>
	<path class="st0" d="M55.8,1.8c-29.82,0-54,24.18-54,54c0,29.82,24.18,54,54,54c29.82,0,54-24.18,54-54
		C109.8,25.98,85.62,1.8,55.8,1.8z M86.89,69.8c-0.15,3.32-0.68,5.59-1.45,7.58c-0.8,2.05-1.86,3.79-3.6,5.53
		c-1.74,1.74-3.48,2.8-5.53,3.6c-1.99,0.77-4.26,1.3-7.58,1.45c-3.33,0.15-4.39,0.19-12.87,0.19c-8.48,0-9.54-0.04-12.87-0.19
		c-3.32-0.15-5.59-0.68-7.58-1.45c-2.05-0.8-3.79-1.87-5.53-3.6c-1.74-1.74-2.8-3.48-3.6-5.53c-0.77-1.99-1.3-4.26-1.45-7.58
		c-0.15-3.33-0.19-4.39-0.19-12.87c0-8.48,0.04-9.54,0.19-12.87c0.15-3.32,0.68-5.59,1.45-7.58c0.8-2.05,1.87-3.79,3.6-5.53
		c1.74-1.74,3.48-2.8,5.53-3.6c1.99-0.77,4.26-1.3,7.58-1.45c3.33-0.15,4.39-0.19,12.87-0.19c8.48,0,9.54,0.03,12.87,0.19
		c3.32,0.15,5.59,0.68,7.58,1.45c2.05,0.8,3.79,1.86,5.53,3.6c1.74,1.74,2.8,3.48,3.6,5.53c0.77,1.99,1.3,4.26,1.45,7.58
		c0.15,3.33,0.19,4.39,0.19,12.87C87.08,65.41,87.04,66.47,86.89,69.8z"/>
</g>
</svg>
