<?xml version="1.0" encoding="utf-8"?>
<!-- Generator: Adobe Illustrator 24.2.1, SVG Export Plug-In . SVG Version: 6.00 Build 0)  -->
<svg version="1.1" id="Layer_1" xmlns="http://www.w3.org/2000/svg" xmlns:xlink="http://www.w3.org/1999/xlink" x="0px" y="0px"
	 viewBox="0 0 111.6 111.6" style="enable-background:new 0 0 111.6 111.6;" xml:space="preserve">
<style type="text/css">
	.st0{fill:#FFFFFF;}
</style>
<g>
	<path class="st0" d="M55.8,1.8c-29.83,0-54,24.18-54,54s24.18,54,54,54s54-24.18,54-54S85.62,1.8,55.8,1.8z M83.96,46.08
		c0.79,17.51-12.27,37.03-35.38,37.03c-7.03,0-13.57-2.06-19.08-5.59c6.6,0.78,13.2-1.05,18.43-5.15c-5.45-0.1-10.05-3.7-11.63-8.64
		c1.95,0.37,3.86,0.27,5.62-0.21c-5.99-1.2-10.12-6.6-9.99-12.36c1.68,0.93,3.6,1.49,5.64,1.56c-5.55-3.7-7.11-11.03-3.85-16.62
		c6.14,7.53,15.31,12.49,25.66,13.01C57.56,41.3,63.47,33.8,71.5,33.8c3.58,0,6.82,1.51,9.09,3.93c2.83-0.56,5.5-1.6,7.9-3.02
		c-0.93,2.91-2.9,5.35-5.47,6.89c2.52-0.3,4.92-0.97,7.15-1.96C88.5,42.13,86.39,44.33,83.96,46.08z"/>
</g>
</svg>
