<svg id="Layer_1" data-name="Layer 1" xmlns="http://www.w3.org/2000/svg" viewBox="0 0 642.59 228.56">
  <g>
    <path d="M427.53,140c4.12,2.32,8.18,4.76,12.39,6.92a22.73,22.73,0,0,0,10.15,2.8,5.54,5.54,0,0,0,2.32-.43c16-7.31,31.68-15.29,45.93-25.7,6.14-4.47,11.72-9.72,17.57-14.6a14.22,14.22,0,0,1,1.63-1l0,.11,0-.13a11,11,0,0,1,1.05-1.37q32.83-30.67,65.66-61.36C594,36,603.14,26.1,613.63,17.64,620.56,12,627.7,6.75,635.83,3c2-.92,4.06-1.63,6.14-2.45.6,1.05.42,1.5-.51,1.83-13.39,4.84-24.18,13.64-34.4,23.1-11.58,10.72-22.66,22-34.11,32.83q-20.48,19.38-41.23,38.44c-8.41,7.74-17,15.29-25.63,22.79-7.7,6.7-16.38,12-25.24,17a285.52,285.52,0,0,1-33.79,16.67c-9.67,3.88-19.34,7.77-29.11,11.37A63.23,63.23,0,0,1,404.82,168c-6.27.85-12.65,1-19,1.38l-1,.08-.06.43c2.32.36,4.63.86,7,1,6.47.47,12.94.81,19.42,1.18a19.15,19.15,0,0,0,11.33-2.63,11.08,11.08,0,0,1,11.11-.43c3.47,1.66,5.29,1.06,7.14-2.17,1.28-2.24,2.62-3,6.55-4.14l-4.88-.68.05-.57c.26-.16.51-.45.79-.48a8.67,8.67,0,0,1,8.15,2.81,3.75,3.75,0,0,1,.79,4.08c-.53,1.44.49,2.39,2.06,2,1.78-.42,2.76-2.32,2.41-4.69-.5-3.46-.31-4.85,1-7.17l-2.12-1.35c2-1.06,3.39-.14,4.71.41a7.67,7.67,0,0,1,2,1.6c1.8,1.64,3.69,1.53,5.2-.35.41-.52.72-1.13,1.1-1.67a6.27,6.27,0,0,1,10.65.8,7.3,7.3,0,0,0-.75,2.43c0,.41.92,1.09,1.42,1.09a2.92,2.92,0,0,0,2-.89c1.1-1.36.95-3,.45-4.59a7.53,7.53,0,0,0-4.15-4.65,14.46,14.46,0,0,1-1.82-1.35,18.43,18.43,0,0,1,2.36-.73,105.31,105.31,0,0,1,11.28-1.41,7.69,7.69,0,0,1,7.82,4.89,5.87,5.87,0,0,0,1.9,2.52,4.34,4.34,0,0,0,3.06.72c1.19-.32,1.43-1.61,1.09-2.86a4.8,4.8,0,0,1-.11-.74c4.54-5.1.7-7.14-3.31-9,5.3-3.84,15.56-1.49,17,3.93l-2.19-.45c-.92.63-.77,1.62-.15,2.62a2.42,2.42,0,0,0,3.3,1,5.31,5.31,0,0,0,2.33-2.31,6.71,6.71,0,0,0-2.52-8.45,10.18,10.18,0,0,0-6.89-1.56,12.72,12.72,0,0,1-1.74-.07l-.13-.78a21,21,0,0,1,2.4-.68c1.84-.3,3.69-.52,5.53-.76a15.17,15.17,0,0,1,8.81,1.25,4.41,4.41,0,0,1,2.83,4l-2.06-.25a1.66,1.66,0,0,0-.24,2.61,3.83,3.83,0,0,0,2.49,1.26c2.18-.06,3.46-2.27,3.52-4.5a7.79,7.79,0,0,0-2.65-6.55,14.59,14.59,0,0,0-9.38-3.52,55.26,55.26,0,0,0-5.59.39,16,16,0,0,1-1.7-.09l-.13-.76a14.61,14.61,0,0,1,2.42-.74c1.66-.21,3.33-.32,5-.41a3.62,3.62,0,0,0,3.72-2.76c.65-2.36,2.28-3.35,4.59-3.41,1.33,0,2.67.13,4,.1a3,3,0,0,0,3.33-3.19c.21-3.53,1.55-5.26,5-5.92a14.81,14.81,0,0,1,11.71,2.19,13.72,13.72,0,0,1,3.44,4.29c.45.75.22,1.91.3,2.88l-.84.41-.76-1.67-2.38,1,0,0c-.48,3.35.77,5.39,3.45,5.6a5,5,0,0,0,5.42-4.9,9.7,9.7,0,0,0-6-9.77c-.62-.29-1.23-.62-1.85-.92l.11-.74c.58,0,1.31-.23,1.72,0,1.71,1.11,3.75,2.06,4.9,3.63a10.08,10.08,0,0,0,6.46,3.9,31.31,31.31,0,0,1,5.74,1.69c2.47,1.11,3.32,2.85,2.91,5.07-.16.06-.35.2-.51.17-1.19-.18-2.22-.06-2.32,1.43a2.22,2.22,0,0,0,2,2.38,4.12,4.12,0,0,0,4.72-3.34,8.09,8.09,0,0,0-3.68-8.81c-1.49-.89-3.07-1.64-4.55-2.54-1.16-.71-1.19-.91-.89-2.41l8.94,5.36a4.27,4.27,0,0,0-1-4.84,13.18,13.18,0,0,0-4.15-2.63c-3.63-1.42-7.26-2.75-9.88-5.85-3.11-3.69-3.54-9.51-.93-13.27a11.59,11.59,0,0,1,12.84-4.17,6.86,6.86,0,0,1,4.56,4.4,7.66,7.66,0,0,0-.36,2.79,2.19,2.19,0,0,0,1.94.94,4.62,4.62,0,0,0,2.36-2.09c1.08-2.55-.11-5.55-2.6-7.37-.5-.36-1-.76-1.58-1.26.44-.31.66-.61.84-.58,3.06.46,6.16.8,9.18,1.49A11.56,11.56,0,0,1,598.43,91c.7,1.24,1,2.36-.29,3.56a2.61,2.61,0,0,0-.21,3.5,3.49,3.49,0,0,0,3.57,1.74,4.31,4.31,0,0,0,3.94-3.92A10.55,10.55,0,0,0,602,86.31c-.24-.22-.48-.45-.71-.69,0,0,0-.12-.09-.31.5-1,1.26-.76,1.83-.09A41.15,41.15,0,0,1,605.86,89a15.27,15.27,0,0,1,1,2.15c1.87-2.3,1.46-6.22-.8-9.73a12,12,0,0,0-8.4-5.26l.05-.65c.5-.16,1-.52,1.5-.44a10.5,10.5,0,0,1,2.86.86c2.75,1.35,5.52,2.68,8.15,4.24a24.06,24.06,0,0,1,4.15,3.41,8.43,8.43,0,0,1,1.15,2.22l-2,.24a2.3,2.3,0,0,0-.16,3.11,3.75,3.75,0,0,0,3.84,1.62,5.09,5.09,0,0,0,4.25-5.65,9.47,9.47,0,0,1,.51-2.33,10.64,10.64,0,0,0,.52-3.24A28.49,28.49,0,0,0,621.24,75a7.3,7.3,0,0,0-3.8-4.62c-2.61,1.51-4.56,1.49-5.86,0-1.1-1.3-1-3,.51-5.06-2.45-2.53-5.63-3.22-8.92-3.18s-6.32.5-9.82.81c.33-.44.56-1.11,1-1.22,6.17-1.77,12.27-2.12,17.91,1.63.95.63,1.5,1.85,2.31,2.9a5.81,5.81,0,0,1-1,.64,1.26,1.26,0,0,0-1,1.95A1.84,1.84,0,0,0,615,70a3.32,3.32,0,0,0,1.9-4.15,9.3,9.3,0,0,0-7.29-6.94,5.15,5.15,0,0,1-2.23-1.11c1.72-.84,3.21-.22,4.76.26a19,19,0,0,0,4.39.94,19.42,19.42,0,0,1,8.66,2.18,6,6,0,0,1,3.13,4.28c-.91.49-2.16.93-1.47,2.41A2.88,2.88,0,0,0,630,69.49a3.93,3.93,0,0,0,3.55-4.15,8.59,8.59,0,0,0-4.48-7.57c-.5-.29-1-.54-1.54-.81,1-1.64,1.39-1.47,5.79,2.18.74-2-.46-3.65-1.17-5.26a11.62,11.62,0,0,0-2.82-4.44c-1.37-1.11-3.34-1.52-5.09-2.06-1.57-.48-3.38.56-4.9-.54,3.93-1.76,7.58-1,11.29,1.31a5,5,0,0,0-4.21-4.44,47,47,0,0,0-6.09-.57c.55-1.88,3.84-2,8.35-.33.11-.05.29-.07.33-.15.19-.4.34-.83.56-1.4-4.82-2.19-9.41-1.13-14,.61.18-1.68,1.25-2.44,4.25-2.91,4.28-.66,8.58-1.17,11.92,2.33l-.58.44c0,1-.5,2.31,0,2.9a4.54,4.54,0,0,0,3,1.45c2.07.14,3.28-1.3,4-3.09a4.59,4.59,0,0,0-.95-5.37,3.38,3.38,0,0,1-1.16-2.75c0-2.78-3.23-5-6.77-4.8-.65,0-1.31.05-2,.05-.1,0-.19-.17-.29-.26,1-3.31,9.21-7.91,15.21-8.48l.15,1-8.71,3.18,0,.66c1.61.86,3.28,1.62,4.81,2.6,1.29.83,3.55.31,4.06,2.27l-.44.79-10.34-4.65-1.49,1.1a13.58,13.58,0,0,0,1.43.47c3.61.76,5.41,2.69,6,6.3.26,1.72,1.48,2.52,3,3.1.73.27,2.06.2,1.68,1.85l-2-.13c-1,6.16-2.64,7.8-7.78,7.83-.37,2.7-.14,3.41,2.33,4.5a56.53,56.53,0,0,0,6.07,2c.7.21,1.76,0,1.36,1.68-1.38-.23-2.82-.39-4.2-.73s-2.63-.87-4-1.36a16,16,0,0,0,.93,2.84A3,3,0,0,0,636.43,58c1.51.49,3.1.77,4.66,1.12.94.21.95.2,1.18,1.77l-7.51-1.52c0,1.14,0,2.31,0,3.48a18.49,18.49,0,0,1-.17,4.72c-.85,3-3.8,4.12-7,3-.79-.84-2-1.58-2.26-2.55-.27-1.2.31-2.58.58-4.23-2.48-2.64-6-3.13-10-3.27,3.47,5.74,3.45,5.8,7,7.87,1.47.85,3.09,1.44,4.64,2.15a23.05,23.05,0,0,0,4.23,2c3.34.85,6.75,1.42,10.22,2.12,0,.94,0,1.09-1.06,1a53.19,53.19,0,0,1-7.14-.91,41.38,41.38,0,0,1-13.59-6.25l-1.58-1c-.67,1-.28,1.46.41,2.2,1.26,1.33,2.27,2.9,3.4,4.35a9.53,9.53,0,0,0,2,2.32,28.77,28.77,0,0,0,16.32,4.72,9.5,9.5,0,0,1,1.33.14c.46,1.3-.27,1.43-1.19,1.43a30.76,30.76,0,0,1-12.31-2.42c-1.59-.67-3.13-1.47-4.89-2.3a8.18,8.18,0,0,1-.73,6.39,2.4,2.4,0,0,0,1.16,3.24,24.24,24.24,0,0,0,13.64,3.27l3.65-.2c-.41,1.75-1.62,1.55-2.48,1.63a25.87,25.87,0,0,1-15.44-3.31l-.9-.5-2.06,2.84c7.11,2.64,14.12,4.27,21.5,1.52.7,1.56-.35,2.33-1.3,3.16a190.5,190.5,0,0,1-25.2,18.49,477.69,477.69,0,0,1-79,39.57,340.59,340.59,0,0,1-47.53,14.35c-9.05,2.07-18.11,4.09-27.21,5.91a96.9,96.9,0,0,1-25.55,1.65c-8.13-.54-16.22-1.59-24.35-2.24-6.13-.49-12.29-.55-18.41-1.11-4.32-.39-8.57-1.41-12.88-1.92a159,159,0,0,0-16.56-1.54c-10.41-.16-19.8-3.39-28.78-8.31-5-2.73-9.93-5.5-14.13-9.44a8.27,8.27,0,0,0-7.77-2.18c-5,1.06-9.77.59-14.17-2.5a10.16,10.16,0,0,0-8.29-1.28c-2.4.54-4.85.93-7.29,1.28a19,19,0,0,1-11.42-2.31,51.75,51.75,0,0,1-17-14.41A12.17,12.17,0,0,0,245.07,125a14.12,14.12,0,0,1-6.46-1.73c-8.06-4.23-16.9-3.35-23.69,2.83a46.58,46.58,0,0,0-6.07,6.64,40.76,40.76,0,0,1-9,9,38.12,38.12,0,0,0-10.75,11.47c-3.89,6.4-10,9.38-17.22,10.49-2.18.33-4.38.54-6.58.72a28.06,28.06,0,0,0-18.05,8.26c-4.89,5-10.84,6.57-17.37,7.05a42.62,42.62,0,0,1-5.42.05,15.9,15.9,0,0,0-9.84,2.78c-5.58,3.63-11.21,3.95-16.85,0-4.42-3.08-9.3-3.35-14.41-2.24a89.69,89.69,0,0,1-9.44,1.79c-4.85.52-9.39-.85-13.69-3.09-8.44-4.39-14.71-10.8-18.3-19.68-.7-1.72-1.13-3.54-1.69-5.31l-.06,0,.09,0c-.78,1.46-1.78,2.6-3.65,2.4l-.06,0,.08,0-3.65.51a44.68,44.68,0,0,0,1.94,4.37,46.79,46.79,0,0,0,2.74,3.92c-.57,1.08-1.2.65-1.72.07A18.39,18.39,0,0,1,31,153a2.7,2.7,0,0,1,2.37-2.82c.62-.11,1.36.47,2,.74l-.14.59-1,.42c-.54.21-1.47.35-1.53.65a2.56,2.56,0,0,0,.45,1.95c1.77,2,5.63.6,6.48-2.26a6,6,0,0,0-2.92-7.16A6.79,6.79,0,0,0,28.39,148c-.42.73-.73,1.53-1.28,2.72-.43-.61-.88-.95-.88-1.29-.05-10.93,7.8-18.33,18.87-17.85a11.2,11.2,0,0,1,2.39,0A6.29,6.29,0,0,1,50.24,133c1,1,.54,2.09-.91,2.65-.1-.23-.19-.46-.29-.68-.24-.55-.39-1.49-.73-1.57a2.9,2.9,0,0,0-2.2.31,3.18,3.18,0,0,0-.79,4,5.75,5.75,0,0,0,7.69,3,7.65,7.65,0,0,0,4.79-8.85c-1.23-6.39-6.55-10.38-13.71-9.94a42.12,42.12,0,0,0-7.22,1.43c-1.41.34-1.95,1.41-1.94,2.88,0,5.62-7,8.32-10.93,6.48-2.59-1.21-3.43-3.24-2.76-6.7l0,0a12.13,12.13,0,0,0-8.19,11.08l-.78-.3a8.81,8.81,0,0,1-.31-1.93,10.21,10.21,0,0,1,2.86-6.26A14.36,14.36,0,0,1,23,123.79c2.2-.42,3.58.33,4.34,2.53a13.23,13.23,0,0,0-1.47-.21c-.79,0-1.85-.27-2.32.13a3.28,3.28,0,0,0-1,2.39,3.14,3.14,0,0,0,2.49,2.84c4.14,1.13,8.57-1.76,8.38-5.62a4.09,4.09,0,0,1,.26-1.54c1.94-5.63-1.74-10.72-7.69-10.22-9.49.81-16.82,5-20.47,14.28a5.9,5.9,0,0,1-1,1.34l-.62-.29a16.54,16.54,0,0,1,.63-2.54c2.86-7,8.26-11.17,15.38-13.23A7.4,7.4,0,0,0,24,111.19c3.79-4.62,9-6.56,14.86-6.65a15.82,15.82,0,0,1,2.5.35c0,1.59-.85,1.2-1.62,1.16a17.79,17.79,0,0,0-14.25,5.63,6.65,6.65,0,0,0-.58.83,4.48,4.48,0,0,0,3.88-.84,17.72,17.72,0,0,1,15.51-3.3,4.76,4.76,0,0,1,3.95,3.57,10.58,10.58,0,0,1,0,2.07,6.07,6.07,0,0,1-1.27-.67c-.77-.77-1.6-1.27-2.67-.69a3,3,0,0,0-1.71,2.95,4.72,4.72,0,0,0,4.3,4.73A5.76,5.76,0,0,0,53,116.44c.21-.76.3-1.56.44-2.31,4.19-2,4.91-4.87,2.13-8.59C52.89,102,49.3,100.71,45,101.33a3.91,3.91,0,0,1-2.28-.36c3.46-2,6.89-1.37,10.45.18.42-.48.84-1,1.29-1.46,3.9-4.22,11.38-5.65,16.5-3.16,2.43,1.18,3.63,2.92,3.37,5-.1.76-.15,1.66-1.48,1.48a5.43,5.43,0,0,0-.15-.94c-.26-.81-.39-2.13-.89-2.3a4,4,0,0,0-3,.3c-2,1.15-2.38,4.16-1.08,6.46,1.87,3.32,7,4.59,10.87,2.69A7.21,7.21,0,0,0,82,99.49c-.08-.18-.14-.38-.26-.69,2-3.3,1.8-6.49-.87-9.48s-6-2.76-9.49-2.66l-.16-.52c.35-.3.68-.84,1.06-.88,3.18-.29,4.93-2.38,6.43-4.87a73.6,73.6,0,0,1,4-6.24c2-2.68,4.58-4.65,8.13-5,3.7-.32,6.92,2.13,6.92,5.35,0,1-.09,1.18-1.25,1.66a6.94,6.94,0,0,1-.2-1.15A1.89,1.89,0,0,0,94.52,73a2.3,2.3,0,0,0-2.69,1.57A4,4,0,0,0,94,79.39a3.87,3.87,0,0,0,.55.25c3.84,1.39,9.7-2.8,10.76-6.67,1.76-6.41-6.08-11.92-11.9-11-1.44.22-2.87.5-4.68.82a8.46,8.46,0,0,1,2.83-6c2.82-2.55,6.25-3.18,9.83-3.24l.33.75a9.5,9.5,0,0,1-1.55.73c-1.73.47-3.54.73-5.21,1.35a6.5,6.5,0,0,0-4,4c2.59.2,5.2.42,7.82.61a1.76,1.76,0,0,0,.78-.16c6-2.44,10.77-.23,14.65,4.26,3.74,4.33,5,9.34,3,15a5.71,5.71,0,0,0,0,2.1c.09,1.68-.79,2.55-2.15,2.06,0-.13-.12-.29-.07-.38.48-.89,1.14-1.91,0-2.65a2.93,2.93,0,0,0-2.37-.26A2.58,2.58,0,0,0,111,83.71a4.66,4.66,0,0,0,5.73,3.9,8.54,8.54,0,0,0,4-2.5c5-6,5-12.74,2-19.59-1.26-2.94-2.85-5.8-6.3-6.85-.21-.06-.31-.49-.69-1.16.93,0,1.66-.15,2.07.13a16.72,16.72,0,0,1,3.83,3.08c5.76,7.19,6.05,17.79.8,24.83-.68.91-1.51,1.69-2.33,2.6,1.22,4.68.61,9.14-2.58,12.95a14,14,0,0,1-4,2.91,3.51,3.51,0,0,1-4-.55c-.41-.32-.56-1-.84-1.47.43-.21.57-.34.66-.32,1.21.35,2.32.43,2.62-1.16a2.6,2.6,0,0,0-2.3-2.59,3.67,3.67,0,0,0-3.71,3.44c-.27,3.93,4.08,7.4,8.27,6.46,6.21-1.4,10.21-7.21,11.33-12.35a5.28,5.28,0,0,0-.25-1.76c-.54-3.35,2-6.33,5.05-5.89a3,3,0,0,1,2.67,2.61c.08.43-.27.94-.57,1.88-.46-.81-.67-1.12-.82-1.45-.86-1.9-2.57-2.14-3.92-.54a4,4,0,0,0-.16,4.83,4.82,4.82,0,0,0,5.9,1.55,23.21,23.21,0,0,0,3-2.29c2.5,0,4.28-1.86,5.13-5.56a23.88,23.88,0,0,0-.23-10.3c-.57.37-1.08.74-1.62,1-3,1.74-6.64.34-7.14-2.76a3.45,3.45,0,0,1,3.76-4.06c1.31.19,1.67.75,1.34,2.13-.18,0-.45.09-.56,0a1.64,1.64,0,0,0-2.82.44,2.36,2.36,0,0,0,1.22,3.18c2.13,1,4.64-.41,5.37-3,1.5-5.42-2.23-11.72-7.89-13.29-.82-.22-1.64-.41-2.46-.62l-.1-.54c.43-.2.91-.64,1.27-.56a13.25,13.25,0,0,1,4,1.23c3,1.8,5.69,1.35,8.5-.26,2.57-1.48,5.24-2.71,8.32-2.53a4.16,4.16,0,0,1,4.16,3.38c.23,1.4-.09,2.63-1.59,3.15-.22-.11-.41-.15-.44-.23-.44-1.37-1.22-2.11-2.68-1.35-1.07.55-1.38,2.37-.68,3.59,1.15,2,4.3,2.63,6.4,1.33a18.22,18.22,0,0,1,2.47-1.07,6.16,6.16,0,0,0,1.61-.78c2.59-2.29,5.57-7,4.28-11.11A7.36,7.36,0,0,0,161,50.63l-1.81-.55,0-.71a4.53,4.53,0,0,1,1.68-.3,8,8,0,0,1,5.51,3.68,3.79,3.79,0,0,0,2.42,1.83A10.73,10.73,0,0,1,176.29,66a10.56,10.56,0,0,1-.72,2c-2.14-2-3.61-2-4.28-.28a5.87,5.87,0,0,0-.32,2.73,3.85,3.85,0,0,0,3.13,3.27,4.33,4.33,0,0,0,4.56-1.34,11.17,11.17,0,0,1,2.23-1.82,6.55,6.55,0,0,0,3-5c1-7.06-2.18-13-8.66-16a5.71,5.71,0,0,1-1.18-1l.46-.76c1.21.54,2.65.83,3.6,1.67A16,16,0,0,0,187,53.5a8.83,8.83,0,0,1,7.47,7c.48,1.91-.43,3.33-2.47,3.9a2.81,2.81,0,0,1-.17-1.07c.22-1-.18-1.78-1.12-1.62a2.46,2.46,0,0,0-1.68,1.5c-.39,1.81,1.36,3.26,3.47,3.08a5.54,5.54,0,0,0,4.78-6.48c-.81-4.8-4-7.73-8.17-9.68-1-.44-2-.68-3-1.05-.5-.19-1-.48-1.45-.72l.11-.6c.57,0,1.22-.28,1.69-.09,2.27.94,4.5,2,6.73,3,1.41.66,2.78,1.44,4.2,2.09,1,.47,2.1.81,3.27,1.25.4-2.7,1.43-4.82,4.84-4.44l0-.56c-1.31-.8-2.65-1.57-3.93-2.42s-3.1,0-4.55-1.6a7.29,7.29,0,0,1,1.69-.47A10,10,0,0,1,207.09,49c.71,1,.7,2.65.78,4,0,.46-.66,1-1,1.45l-.46-.26a3,3,0,0,1-.09-.93c.24-1.08-.06-2.09-1.17-2.1a3.24,3.24,0,0,0-2.38,1.25c-1.18,1.82.39,4.64,2.86,5.47,3.11,1,6.8-1.41,7.21-4.79.55-4.44-1.3-7-6.08-8.58C204.1,36.56,196.66,33,188,35.42l-2.25.64-.42-.46c.3-.39.54-1.07.9-1.14,2.82-.53,5-2.15,7.37-3.68,1.42-.94,3.37-1.16,5.12-1.47a2.25,2.25,0,0,1,2.64,1.25c-.61,1-1.46,1.72-1.49,2.5-.07,1.85,2.45,2.81,4.1,1.68,2.73-1.88,2.85-6,.21-8.6a9.17,9.17,0,0,0-7-2.37,15.79,15.79,0,0,0-8.63,2.84c-5.28,3.69-10.95,5.24-17.2,2.68a12.87,12.87,0,0,1-2.38-1.71l.95-.31a11.38,11.38,0,0,0,.35-1.51c.43-4.57.83-9.14,1.27-13.72.09-.9.3-1.8.47-2.75-1.64-.44-2,.4-2.12,1.62-.32,4.32-.62,8.65-1,13a3.74,3.74,0,0,0,1.09,3.42l-1,.31c-2.25-.42-3.11-2.39-4.15-4a11.64,11.64,0,0,1-1.72-7.67A9.25,9.25,0,0,1,174.3,7.59c2.83.5,5,2.57,5.06,4.91a5.62,5.62,0,0,1-.27,1.38l-.48.09-1-1.49c-2.06-.05-3.15,1.1-2.78,3a15.86,15.86,0,0,0,.67,2.09l-.05.05,0-.07c4.47,2.31,7.84,1.13,9.46-3.3,4.7-1.84,6-6.89,2.65-11.09-2.21.56-4.5.84-6-1.44-1.2-1.75-.89-3.55.45-5.51-4-.21-7,.93-8.79,4.54l-.63-.22c0-.57-.23-1.28,0-1.68a9.51,9.51,0,0,1,2.1-2.37c2.78-2.15,7.7-2.45,10.44-.75,1.29.8,1.55,1.37,1.27,3.05-.36-.21-.79-.32-1-.59-.56-.86-1.36-1.38-2.12-.61A2.93,2.93,0,0,0,182.5,0a3.61,3.61,0,0,0,2,2A3.3,3.3,0,0,0,188.26.79c2.07-2.37,1.73-6.59-.79-8.91a10.72,10.72,0,0,0-8.41-2.53c-6.91.47-11.72,4.39-15.51,9.82A2.88,2.88,0,0,1,161.17.64c-5.69.42-9,3.77-11,9.14,5,.88,8.34,3.59,8.8,8.85a6.7,6.7,0,0,1-4.31,7.2,9.44,9.44,0,0,1,4.19,6.52A9,9,0,0,1,157.3,39c-1.55,2.33-4.17,2.75-8,1.52l0,0a25.23,25.23,0,0,1,1.08,3.21c.72,3.55-.92,6.1-4.59,7.12a6.52,6.52,0,0,1-5.29,4.77,6.45,6.45,0,0,1-6.38-2,5.68,5.68,0,0,1-1-5.84c.82-2.45,2.71-3,5.38-2.78a4.91,4.91,0,0,0-4.48-1.46,14.74,14.74,0,0,0-8.15,4c-4,3.81-8.42,6.58-14.09,6.89-1.24.06-2.49,0-3.78,0-.18-1.56.85-1.39,1.66-1.41,3.25-.08,6.46-.46,9.26-2.18a44.73,44.73,0,0,0,5.58-4.23c2.85-2.46,6-4.3,9.8-4.62,3.36-.28,5.59,1.21,6,4a11.13,11.13,0,0,1-.33,2.5,9.55,9.55,0,0,0-1.26-.94c-.79-.36-1.71-1-2.37-.86a3.15,3.15,0,0,0-1.79,1.9,4.29,4.29,0,0,0,4,5.61c3,.22,4.77-1.14,6-4.73a12.08,12.08,0,0,0,2.59-.77c1.61-.89,2.21-3.19,1.57-5.37a10.13,10.13,0,0,0-9.38-7.21c-.85,0-1.7,0-2.9,0a14.82,14.82,0,0,1,.75-2,11.12,11.12,0,0,1,12.95-4.6c2.71,1,4.21,3.14,3.93,5.61a3.79,3.79,0,0,1-.42,1l-.7.54c-.14-.44-.16-1-.46-1.29-.48-.44-1.24-1.08-1.7-1A2.85,2.85,0,0,0,149.35,36a2.6,2.6,0,0,0,1.12,3.15,4,4,0,0,0,4.33.06c2.92-2,3.68-7.16,1.35-9.81-3.72-4.25-8.62-5.05-13.75-3.86-2.92.68-5.61,2.35-8.38,3.64a16,16,0,0,0-2.12,1.42c-1-.84-.61-1.5.08-1.86,2.83-1.48,4.36-4,5.94-6.64,2.23-3.83,6-5.83,10.42-6.35,2.84-.34,5.25.92,5.87,3.08a8.73,8.73,0,0,1,0,2.1,7.31,7.31,0,0,0-1.29-.82c-.67-.23-1.55-.69-2-.45a2.52,2.52,0,0,0-1.07,1.89c0,2.29,2.42,3.55,4.73,2.6s3.43-3.88,2.61-6.87c-1-3.69-4.17-6-8.7-6-6.36-.09-11.23,2.94-15.25,7.62-.57.66-1.19,1.27-1.79,1.9l-.67-.4a7.57,7.57,0,0,1,.81-1.88c4.12-5.12,9.25-8.43,16-8.8.26,0,.52-.08,1-.14a17.61,17.61,0,0,1,5.65-8.24c.23-.17.27-.59.4-.89,4.68-10.74,13-16.79,24.35-19,.75-.15,1.63-.45,1.76,1.08-10.77,1.86-19,7.37-24.45,17.42L161.73-1a28.76,28.76,0,0,1,8.16-8.18,18.64,18.64,0,0,1,9.45-3,8.68,8.68,0,0,0,2.49-.54,19.39,19.39,0,0,1,12.41-.1,6.58,6.58,0,0,1,2.57,1.5,11.09,11.09,0,0,1,1.46,2.52l-.53.43c-.36-.18-.82-.26-1.06-.54-.73-.86-1.52-1.38-2.59-.67A2.54,2.54,0,0,0,193-6.44,3.55,3.55,0,0,0,196.16-4c2.83.33,4.85-.68,5.72-3.43,3.21-.19,4.49-2.27,3.5-5.46-1.14-3.67-4.1-5.84-8.28-6.15-.76-.06-2,.44-1.94-1.12.18-.14.29-.3.38-.29a8.72,8.72,0,0,0,5.69-1.77,9.12,9.12,0,0,1,8.64-1,9.22,9.22,0,0,1,2.93,2.53c.27.31,0,1.06,0,1.67-.47-.08-.64-.06-.71-.14-.72-.75-1.38-2-2.57-1.21a3.41,3.41,0,0,0-1.19,2.24,2.48,2.48,0,0,0,1.87,2.74,4.31,4.31,0,0,0,5-1.6,7.12,7.12,0,0,0-.64-8.86,10.28,10.28,0,0,0-12-2.05l-2,1c-.89-1.27,0-1.72.72-2.1,3.66-2,7.62-2.33,11.1-.19,2.88,1.76,6.1,1.55,8.7,2.8.88-1.59,1.67-3,2.53-4.6-2.41-1.41-5.23-.94-8.08,0l-.4-.35c.24-.43.37-1.1.72-1.25,3.47-1.44,8-.91,10.47,1.73.63.67,1.3,1.4.56,2.44a4.55,4.55,0,0,1-.62,0c-.79-.1-2.09-.54-2.26-.26a3.9,3.9,0,0,0-.6,2.73,3.53,3.53,0,0,0,5.79,1.59c3.25-2.95,2.43-8.1-1.67-10.74-3.1-2-6.5-2.26-10-1.77-1,.14-2,.32-2.92.48-.84-1.29.11-1.58.86-1.69a84.76,84.76,0,0,1,10.69-1.39c2.89-.06,5.8.73,8.69,1.2a6.7,6.7,0,0,1,1.65.78l-.14.71a17.31,17.31,0,0,1-2-.11c-2.84-.45-5.67-1-8.54-1.22,4.14,2.54,4.67,3,6.66,6.6A17.58,17.58,0,0,1,244.91-24a34.33,34.33,0,0,1,3.21,6.62c.55,1.37.47,2.92,1.79,4a1.29,1.29,0,0,1-.36,2.35c-.21-.18-.46-.29-.49-.44a2.12,2.12,0,0,0-2.59-1.9,2.94,2.94,0,0,0-2.69,2.56A4.15,4.15,0,0,0,245.48-6a5.09,5.09,0,0,0,5.66-.15,20.83,20.83,0,0,0,3.41-3.15c1.38-1.7,1.51-3.83,1.37-5.92A11.65,11.65,0,0,0,252.77-23c-.13-.12-.13-.36-.34-1a5,5,0,0,1,1.78.3c5,3.38,8.52,12.62,7.1,18.41a26.92,26.92,0,0,1-1.19,3.18c-.5-.15-.75-.2-1-.3-1.6-.64-2.66-.37-3.23.84a2.65,2.65,0,0,0,1.39,3.37,3.94,3.94,0,0,0,1.73.45c4.62-.09,9.77-4.8,9.08-9.52-3.56-1.4-4.71-2.82-4.4-5.43.22-1.86,1-2.47,4.18-3-.26-1.72-.52-3.45-.85-5.68.74.38,1.36.5,1.45.79.81,2.52,1.46,5.07.2,7.62-.31,0-.5,0-.56-.05-.73-.77-1.51-1.52-2.48-.42a2.27,2.27,0,0,0,.09,3.11,3.37,3.37,0,0,0,4.84.53,6.67,6.67,0,0,0,2.29-3.59c.76-5.32-.6-10.26-3.53-15.12a28.63,28.63,0,0,1-.78,3.54,5.83,5.83,0,0,1-8.69,3.08A4.5,4.5,0,0,1,258-27.12c.62-1.95,1.91-2.7,4.49-2.54.31-2.89-1.64-4.57-3.66-6.41.6-.27,1-.61,1.24-.55,3,.74,5.21,6.87,3.48,9.66-.18,0-.44,0-.55-.1-.89-1-1.82-1.69-3-.49a3.07,3.07,0,0,0,.29,4,4.19,4.19,0,0,0,6.59-1.34,9.37,9.37,0,0,0,.74-4.27c-.66-8.3-6.64-14.26-15-15.11-1.43-.15-2.86-.28-4.38-.42.73-1.46,1.84-1.58,6.14-.93-.27-1.2-1-2.6-.71-3.71s1.68-1.77,2.78-2.82c-.9-2-3.09-2.62-5.36-2.9a14.9,14.9,0,0,0-8,1.23c-.59.26-1.2.46-1.8.69l-.47-.5c.35-.44.62-1.09,1.08-1.3a16,16,0,0,1,12.26-1c3,1,4.65,3.53,4.17,6.26a5.86,5.86,0,0,1-.45,1l-1.62-1.19c-1.47.82-1.61,1.75-.36,2.85a3.77,3.77,0,0,0,4.29.61,4.36,4.36,0,0,0,2.91-4,9.69,9.69,0,0,0-3.06-7.19,12.68,12.68,0,0,0-10.73-3.89c-.47,0-.93.1-1.39.12-.12,0-.24-.11-.76-.38.49-.53.82-1.13,1.32-1.38,4.83-2.47,12.83-1.5,16.83,2.17A35,35,0,0,1,269.48-56c.43.58.31,1.57.44,2.38l-.67.19a4.07,4.07,0,0,1-.7-1c-.33-1.06-1.06-1.79-2.05-1.35a3.42,3.42,0,0,0-1.86,2c-.81,4.15,3.57,7.2,7.92,5.6a8,8,0,0,0,2.91-13.34c-3.69-3.54-7.9-7-12.51-9-8.24-3.63-16.83-2.7-25.2.66,0,2.31-.5,4.33-2.95,5-1.33.35-2.47-.12-3.4-1.82.77,0,1.34-.17,1.69,0a1.72,1.72,0,0,0,2.57-.67,2,2,0,0,0-.27-2.89A12,12,0,0,0,231-72.29,38.9,38.9,0,0,0,210.28-70a65.13,65.13,0,0,0-10.64,5.89c-3.11,1.95-6,4.25-9,6.38a15.06,15.06,0,0,1-1.33.73c-2.46-3.44-5.78-2.77-9.08-1.87a26.11,26.11,0,0,0-11.74,7.42c-4.81,4.93-9.46,10-14,15.17a25.29,25.29,0,0,1-12.09,7.85c-8.57,2.47-15.26,7.79-21.26,14.17A132.34,132.34,0,0,0,99.68,15.89c-.72,1.41-1.31,2.9-2,4.41-3.65,0-6.18,1.53-7.16,5.19-.07.3-.53.6-.87.71-3.32,1-5.5,3.52-7.6,6-5.61,6.71-9.86,14.28-13.89,22a185.12,185.12,0,0,1-9,16.27c-4.68,7-11.58,11.76-18.86,15.89-6.89,3.92-14,7.21-21.94,8.51A51.2,51.2,0,0,1,0,95.09v-1.6c.58.13,1.15.31,1.74.39A53.8,53.8,0,0,0,23.38,92.2,48.73,48.73,0,0,0,35,87.44a11.72,11.72,0,0,0-1-.66c-4.06-1.9-8.16-1.62-12.3-.24C14.28,89,7.05,89,0,85.46V83.85c7.38,3.68,14.86,3.53,22.53.86a16,16,0,0,1,13,1.14,2.58,2.58,0,0,0,2,.24c3.51-2,6.93-4.14,10.39-6.23l-.2-.41c-.58,0-1.17,0-1.75.1a17.36,17.36,0,0,1-11-2.31c-6-3.7-12.22-4.07-18.84-2C10.57,76.89,5.08,76.78,0,73.41v-2c1.89,1,3.69,2.22,5.69,2.79,3.55,1,7.14.44,10.65-.6,6.51-1.92,12.78-1.62,18.73,2a18.42,18.42,0,0,0,9.75,2.61,11.74,11.74,0,0,0,6.82-2,18.11,18.11,0,0,1-15.14-2.5c-5.58-3.6-11.62-4.32-18.07-3.33-6.82,1.05-13.18,0-18.43-4.94v-2c.37.25.74.51,1.11.75C3.1,65.43,5,67,7.11,68c3.71,1.59,7.69,1.43,11.64.86,5.25-.75,10.42-.57,15.3,1.76,1.87.9,3.59,2.08,5.44,3,7.94,4,16.7,1,20.3-7-2.31.27-4.54.62-6.79.75a100.25,100.25,0,0,1-26.71-2.09C16.83,63.24,7.61,60.56,0,54.14v-2a43.63,43.63,0,0,0,12.44,7.55A87.09,87.09,0,0,0,36.37,65.3a158.19,158.19,0,0,0,17,.46c7.68-.16,7.83-.45,11.08-7.34A137.36,137.36,0,0,1,78.87,33.68c2.67-3.52,5.45-7,9.7-8.79a1.62,1.62,0,0,0,.79-.82c1.26-3.43,4-4.87,7.25-5.4A128.61,128.61,0,0,1,122.23-17.6c5.55-5.58,11.86-10,19.52-12.19a24.74,24.74,0,0,0,11.74-7.68c5-5.64,10.18-11.17,15.53-16.49a24.18,24.18,0,0,1,12.92-6.87c2.86-.51,5.46-.27,7.89,1.89,3.68-2.65,7.38-5.28,11-8,6-4.36,12.77-6.3,20-7,2.06-.21,4.14-.32,6.21-.33a14.52,14.52,0,0,1,10,3.09c7.38-3.28,15.09-3.57,22.93-2A16.25,16.25,0,0,1,269.25-68a8.89,8.89,0,0,0,2.51,1.57c3.93,2.15,7,5,7.46,9.75a30.77,30.77,0,0,1-.39,5.22c3.79.82,7.57,2.21,10.51,5.3a32.57,32.57,0,0,1,12.9-5.08c6.43-1,12.55-.12,18,3.77A12.26,12.26,0,0,1,325.29-40a3.08,3.08,0,0,0,1.32,1.77c2.94,1.76,5.43,3.88,6.63,7.23a2,2,0,0,0,.86,1c3.79,2.16,4.89,5.59,4.22,9.58a4.4,4.4,0,0,0,1,3.8c3.06,4,5.12,8.34,4.31,13.54-.23,1.51-.64,2.9-.2,4.48,1.5,5.34,5.12,8.13,10.41,9,2.24.36,4.56.37,6.75.9a22,22,0,0,1,6.65,2.47c3.54,2.3,4.52,7.9,2.44,11.55a4.56,4.56,0,0,1-5.28,2.29,3.74,3.74,0,0,1-2.66-4.37,13,13,0,0,1,1.53-3c-2-1.76-4.5-.81-7.14-.84,1.61,1.83,3.15,3.36,4.43,5.08a15.6,15.6,0,0,1,3.15,10.74,7.7,7.7,0,0,1-2.92,5.92c-2.48,1.88-5.72,1.55-7.29-.74-1.79-2.61-1.13-5.26,1.94-7.17-.45-4.64-3.67-7.15-7-9.27a84.68,84.68,0,0,1,2.82,8.68,9,9,0,0,1-1.64,8,3.29,3.29,0,0,0-.3,2.08c.48,7.62-7.33,12.05-13.35,10.27a7.08,7.08,0,0,1-4.6-3.61,5.35,5.35,0,0,1,.46-6c1.58-2,3.66-1.87,6.14-1a16.14,16.14,0,0,0-2.24-9c0,4.66-1.47,7.93-5.87,9.07-2.46.64-4.3-.32-5.73-2.77-1.49,1.56-3,2.95-4.26,4.48a12.35,12.35,0,0,1-11.83,4.44,5.56,5.56,0,0,1-5-6c.1-3.19,2.56-4.81,5.53-3.65.3.12.6.28,1.08.51,4.7-3.1,5-8,5.45-12.94-2.46,1.41-4.7,2.89-7.1,4-2.73,1.3-5.54,1.6-8-.69a2.36,2.36,0,0,0-.69-.4c-4-1.59-5.15-4.26-3.48-8.59a24,24,0,0,0-7.69-.54c-7.54.89-13.48,4.92-19,9.66-8.52,7.29-15.49,15.78-18.7,26.75a53.72,53.72,0,0,0,1.22,35.21c2.9,7.54,5.38,15.25,8.22,22.82a68.66,68.66,0,0,0,15.34,24.46,46.14,46.14,0,0,0,5.76,4.63,7.45,7.45,0,0,0,6.34,1,44.69,44.69,0,0,1,5.5-1,12,12,0,0,1,8.35,2.2,13.18,13.18,0,0,0,10.56,2c4.83-1,8.86.13,12.19,3.73a7.07,7.07,0,0,0,5,2.14c7.87.59,14.87-1.88,21.43-6,5.18-3.23,9.28-7.65,13.33-12.1q11.13-12.25,22.19-24.55c2.06-2.29,4.36-4.16,7.59-4.44a5.33,5.33,0,0,0,1.35-.38c4-1.45,6-.74,8.25,2.81,2,3.15,4.06,6.29,6.21,9.36,2.95,4.21,5.84,8.48,9.08,12.46a94.28,94.28,0,0,0,7.49,7.47c.57.55,1.17,1.08,1.75,1.62l0,.43.06.06-.06-.05ZM301.93,8.74l0,0Zm-8.86-2.38.05,0-.06,0,0-.47.47-.35c.18.28.35.56.52.84,2.19,3.46,5,3.9,8.21,1.29.36-.3.75-.76,1.13-.76,1.91,0,2.91-1.47,4.15-2.55l.05,0-.07,0a18,18,0,0,0,.28-10.64c-2.84,0-4.79-1.15-5.36-4-.42-2.06.31-3.27,3-4.77a58,58,0,0,0-2.74-5.74,24.35,24.35,0,0,0-3.76-4.9,42.71,42.71,0,0,0-5.19-3.71c5.14-1.22,14.2,10.69,13.43,16.94a1.82,1.82,0,0,1-.73,0c-1.9-.67-2.77,0-2.42,1.89a3,3,0,0,0,2.46,2.6c2.39.57,5.38-1.41,5.45-4a20.44,20.44,0,0,0-1-5.41,8.53,8.53,0,0,0-1-1.89c1.62-.56,2.81.35,4.74,3.38,2.9,4.53,4,11.67,2,13.71l-1.31-1.06c-1.64.7-2.11,1.61-1.68,3.11A2.87,2.87,0,0,0,317,1.85a4.26,4.26,0,0,0,3.41-3.53,18.77,18.77,0,0,0-1.09-11.39c-.24-.62-.35-1.27-.53-1.91l.68-.36c.45.62,1.13,1.18,1.3,1.86.62,2.45,1.06,5,1.58,7.42a13.51,13.51,0,0,0,.55,1.88C324-1.06,325.51,2,326.2,5.18c.54,2.46.11,5.15,0,7.73,0,.76-.36,1.7-1.64.94l.19-2.17a7.32,7.32,0,0,0-2.43.53,2.82,2.82,0,0,0-1,3.41c.8,2.6,3.44,3.48,6,2.06.81-.44,1.59-1.21,2.42-1.26a4.24,4.24,0,0,0,3.76-2.85c1.29-2.71,1.08-5.56.78-8.45-2.15-.82-3.72-2-3.51-4.54s2.16-2.67,4.44-3c-.55-2.19-1.06-4.23-1.6-6.26-.2-.73-.83-1.56.57-1.73,2.2,2.71,3,9.39,1.36,11.19C335.4.6,335.1.49,335,.29c-.42-.84-1.14-1.44-1.84-.7A3,3,0,0,0,332.58,2c.31,1.26,2.28,1.85,3.77,1.35,1.91-.65,2.53-2.23,2.89-4,.13-.63.36-1.23.54-1.85h.52l.81,1.54c2.57-3.92.75-11.18-3.92-15.75-3.38,2.86-7.18,3.11-9.65.64-1.82-1.84-1.63-4.21.59-6.94-.47-2.48-2.17-4.09-4.19-5.67.74-.25,1.57-.42,1.89-.09,1.23,1.27,2.28,2.7,3.41,4.07.56.67,1.09,1.37,1.69,2s1.58,1.35.25,2c-1-.25-2.33-.63-2.58-.26a6,6,0,0,0-.54,2.92c0,.31.4.68.69.95a4.64,4.64,0,0,0,7.6-1.7c1.49-4,.77-8.4-4.3-10.56-.78-3.59-3.11-5.87-6.27-7.53a44.23,44.23,0,0,1-1.33,4.56c-2.17,5.2-8.33,7.1-12.4,3.9a5.26,5.26,0,0,1-1.55-6.64c1.24-2.49,3.09-3.21,6-2.36a2.94,2.94,0,0,0,.65,0c-.66-2.34-2.37-3.34-4.4-4.06a6.17,6.17,0,0,1-1.4-1,6.19,6.19,0,0,1,6.71,3.11c1.08,2,1,4.23-.11,5.49-.13,0-.32,0-.38-.09-.19-.26-.34-.56-.52-.83-1.38-2.16-3.89-2.06-5.11.21s0,4.95,2.94,5.9c3.53,1.15,7.4-1.32,8.65-5.51,1.61-5.41-.78-10.47-6.36-13.46-8.48-4.55-19.45-2.55-26.73,2.78,1.9,3.66,2.62,7.28-.55,10.71,2,3.84,3.69,7.69,1.25,11.58a79.52,79.52,0,0,0,3.73,8.22,32.93,32.93,0,0,1,4.47,13,9.06,9.06,0,0,1-.88,5.85h-.58l-.24-2.28c-2.55-1.07-3.95.06-4.11,3.34l-.46.36-.43.42c-.13-1.15-.26-2.31-.4-3.58-5.74-.95-11.28.09-16.72,1.88a44.7,44.7,0,0,0-14.45,8.09c-1.19,1-1.22.95-2.06,0a1.8,1.8,0,0,1,.32-.49,44.38,44.38,0,0,1,25.3-11C289,.77,293.42.76,298,.57a10.68,10.68,0,0,0-.41-2.7C297-3.35,290.15-4,289.14-3c-3.5,3.42-6.3,3.67-10.08.84a4,4,0,0,0-.56.08c-.39.09-.77.2-1.15.32a34.07,34.07,0,0,0-12.82,7.23,10.16,10.16,0,0,1-1.66,1L262.4,6a9.36,9.36,0,0,1,1.08-1.58,35.4,35.4,0,0,1,13.29-7.61c.49-.17,1-.39,1.34-.55L278.6-8c-3.24,1.65-6.26,3.15-9.24,4.73-.42.22-.67.81-.93,1.26-1.62,2.84-4.17,4.39-7.17,5.45a10.6,10.6,0,0,0-3.56,2c-14.44,13-21.37,29.57-22.37,48.77a119.56,119.56,0,0,0,6.79,47.13c5.1,14.18,12.42,27,24.08,36.83a77.4,77.4,0,0,0,7.6,5.09l0,0c-.62-.58-1.23-1.18-1.86-1.75-9.56-8.5-16.32-19.05-22-30.35a99.48,99.48,0,0,1-10.37-37c-.77-9.87-.08-19.51,3.57-28.78A71.11,71.11,0,0,1,264.3,16.65c7.25-6,15.68-9.35,25.34-8.71,1.09.07,2.19,0,3.38,0l-.4-1.64ZM202.7-6.57l0,0-.05.54c-.54.78-1.06,1.58-1.63,2.34s-1.63,1.6-2,2.56c-1,2.82-1.81,5.73-2.66,8.61-.23.76-.29,1.64-1.88,1.11l3.09-10.71L192-4c-.34.91-.66,1.93-1.1,2.9a9.36,9.36,0,0,0-.55,6.88c1.15,4.06.07,7.68-3.75,9.81-.41,3.47-.83,7.07-1.3,11l6.73-3.7c.75-2.43.14-5.29,1.93-7.59.94,2.4-.56,4.82,0,7.06h5.39l1-4.38.65.08c1.34,1.37-.53,3.11.31,4.56,6.95,2.35,8.56,10.37,2.82,14a31.4,31.4,0,0,1,2.3,3,37.4,37.4,0,0,1,1.71,3.55l.47,0c-.2-16,2.2-31.42,10.69-44.86l-2.71-4.89c-1.68,3.12-3.44,6.09-4.92,9.19A43.76,43.76,0,0,0,207.43,17c-.08.7.22,1.91-1.65,1.72,1.08-13.2,7.42-23.88,15.66-33.8l-1.88-3c-1.77,1.88-3.43,3.44-4.84,5.19A59.93,59.93,0,0,0,205.59,4a22.89,22.89,0,0,1-1.08,2.16L203.75,6A7.93,7.93,0,0,1,204,4a67.55,67.55,0,0,1,7.82-15.53c.43-.62.83-1.26,1.46-2.23-3.1.47-5.18-.38-6.63-2.89a2.87,2.87,0,0,0-.37,1.69c.13.71.54,1.37.73,2.08,1,3.73-.81,6.61-4.32,6.93ZM428,143.26l-.37-.44-.83-.33,0-.05.06,0,.84.31-.05.51-1.35,1c-.21-.16-.45-.24-.51-.4-.27-.73-.5-1.49-.75-2.24a9.29,9.29,0,0,1,2.33.31,26.85,26.85,0,0,1,3.08,1.65c.38.43.76,1.13,1.16,0l.07,0-.05,0-1.21,0c-1.34-1-2.71-2-4-3-.84-.67-1.58-1.46-2.37-2.19v-.42h-.42c-5.11-3-7.78-8.09-10.83-12.85l.05-.06-.06.07a17.89,17.89,0,0,1-2-2.15q-4.63-6.66-9.14-13.41c-1.78-2.67-3.22-3.18-6.24-2a7.49,7.49,0,0,1-1.72.49,9.37,9.37,0,0,0-6,3.36c-5,5.57-9.94,11.2-15,16.69s-10.45,11.09-15.79,16.52a51.83,51.83,0,0,1-5.19,4.15c3.23,2.08,5.66.47,8-1.65.24-.22.47-.58.75-.63a5.73,5.73,0,0,1,1.46.12c-2.43,3.74-5.51,5-9.34,4.13a3.48,3.48,0,0,0-1.57,0c-2,.47-4,1-6,1.55-3.21.88-6.39,1.91-9.63,2.64a43.46,43.46,0,0,1-5.9.52c.53.39.78.6,1.06.77,10.88,6.62,22.3,11.56,35.37,11.45a2.28,2.28,0,0,0,2.32-1.15c1.17-2.1,2.56-4.1,3.52-6.28,1.91-4.34,3.58-8.78,5.4-13.16a13.06,13.06,0,0,1,1.26-2l.78.36c-.31,1.11-.63,2.23-1,3.34l-.32.87-.35.83-.17,0,.13-.06.36-.82.47-.75a8.48,8.48,0,0,0,2-5.5c0-.38.53-.74.81-1.12.24.41.76.88.67,1.2-.52,2-.77,4.18-1.87,5.8-2.19,3.26-3.19,7.12-6,10.14-2,2.21-2.94,5.46-4.57,8.71,2.39,0,4.63.09,6.87,0,8.6-.4,17.2-.8,25.8-1.33a47.28,47.28,0,0,0,15.71-3.76q7-3,14-6c1.31-.56,2.64-1.07,4.3-1.75a21.61,21.61,0,0,1-9.36-7.73c1.09-1.26,1.61-.3,2.12.3a20.26,20.26,0,0,0,7.16,5.67c.84.38,1.89,1,2.64.76,3-.85,6-2,8.72-2.9-3.93-1.64-7.89-3.34-11.89-5a10.78,10.78,0,0,0-2.82-.63c-1.79-.22-3.61-.3-4.61-2.17ZM58.61,137.2l.06,0-.07,0,0,.05ZM178.24,130h0Zm99.61,13.61,0,0-1.15-.84a4.24,4.24,0,0,0-.5-.62,67.08,67.08,0,0,1-17.08-25.4c-3.12-8-5.73-16.25-8.84-24.29a54,54,0,0,1-1.81-34.43C253,41.38,264,29.74,278.8,21.44c5.25-3,11.11-3.06,17-2.3a10.68,10.68,0,0,0,2.88,0c1.34-.2,2.64-.57,3.76.53l-.19,0,.16,0,1.48-.12.3-.53a13.61,13.61,0,0,0-2.12-1.63c-9.85-4.87-19.54-4.19-28.52,1.85a88.7,88.7,0,0,0-13.33,11.48c-3,3-5.19,6.76-7.72,10.2-.49.66-.75,1.67-2.07.71.34-.67.65-1.31,1-1.92,4.71-8.14,11.37-14.44,18.75-20.1q12.49-9.59,27.59-5.52c2.19.59,4.13,2,6.19,3.11l-.05.06,0-.07,1.48-3.49a33.29,33.29,0,0,0-15.8-4.49,35.28,35.28,0,0,0-19.84,5.4c-5.39,3.27-9.69,7.74-13.71,12.51-6.42,7.6-11.35,16-13.67,25.78-2.62,11.1-1.93,22.19.39,33.2,3.84,18.23,12.27,34.24,24.24,48.41,2.75,3.26,5.71,6.37,9.55,8.44ZM303.54,8l-.05,0,.07,0-2.16,2.11,3.79,1.48C304.64,10.12,305.34,8.51,303.54,8ZM168.24,10.4a8.58,8.58,0,0,0-1.75,1.16c-2.8,3-2.48,9.63.76,12.55.32-4.61.64-9.18,1-13.75l.09-.06ZM75.46,115.18c-.57-.86-1.09-1.76-1.72-2.58a3.9,3.9,0,0,0-1.39-1.24c-1.2-.52-2.47-.86-4.2-1.43,1.95,3.46,3.71,6.63,5.53,9.77a1.78,1.78,0,0,0,1.1.72c1.3.24,2.61.37,4.16.58-.5-.77-.92-1.41-1.31-2.07-.74-1.25-1.46-2.5-2.19-3.76l.07,0ZM57,139.62l0-.07,0,.1c-.46.8-.95,1.58-1.37,2.4-1,1.93-2,3.87-2.92,5.76,2.41-2,4.57-4.23,7.11-5.83s5.43-2.55,8.27-3.82l-3.41-4.07c-1.51.94-2.84,1.67-4.06,2.55S58.23,138.62,57,139.62Zm-4.82,31.74.16.22c0-.05,0-.12,0-.14a.84.84,0,0,0-.17-.05c-4-9.91-3.06-19.61,1.53-29.37A8.1,8.1,0,0,1,45,140.35a14.71,14.71,0,0,0-3.25,6.76c-.89,3.84,0,7.44,1.3,10.95A29,29,0,0,0,52.21,171.36Zm493.35-47a7.36,7.36,0,0,1-1.83-1c-1.94-2-3.79-4.06-5.59-6-.34,1.57-.74,3.35-1.13,5.12l-.71.45a10.9,10.9,0,0,1,1.88,1.19,47.62,47.62,0,0,0,10.7,7.37,12.05,12.05,0,0,1,1.64,1.25l-.54.75a44.1,44.1,0,0,1-14.67-10h-7.15c.7.89,1.11,1.49,1.59,2a37.05,37.05,0,0,0,13.91,9.6,86.91,86.91,0,0,0,18.32,5,6,6,0,0,0,5-1.19c-2.35-.56-4.54-1.07-6.73-1.61-.74-.18-1.66-.3-1.13-1.7.58.1,1.15.2,1.7.32a57.9,57.9,0,0,1,5.87,1.3c3.12,1,5.45-.55,8.18-2.11-.56-.14-.8-.23-1.05-.26a67.63,67.63,0,0,1-18.4-4.62,32.92,32.92,0,0,1-9.89-5.94l.19,0Zm-379.75,8.52a2.18,2.18,0,0,1-.75-.2C157,127.14,149.43,121,143.56,113c-.65-.9-1.25-1.83-1.85-2.71-3.36,1.79-7.53.63-10.18,3.78,0,0,0,.11.08.21.26.31.52.61.79.91A108.24,108.24,0,0,0,161.66,138c4,2.14,8.11,4,12.17,6l0,.05.06-.07c.45.11.9.21,1.35.34,4.42,1.29,8.85,2.55,13.25,3.9a2.23,2.23,0,0,0,2.89-1,21.63,21.63,0,0,1,1.83-2.07,54.2,54.2,0,0,1-16.43-5.85c-3.72-2.06-7.31-4.36-11-6.55l.45-.45c.31,0,.69-.1.92,0q2.7,1.52,5.36,3.12a71.22,71.22,0,0,0,18.7,7.91c3.11.83,5.13-.47,7.05-2.71-.46-.19-.76-.33-1.07-.43a83.32,83.32,0,0,1-22.34-11.84c-1.49-1.09-2.8-2.42-4.19-3.65l0-.06-.05.08a7.07,7.07,0,0,1-1.54-.9c-4.16-4.23-8.49-8.33-12.37-12.82-2.52-2.92-4.37-6.43-6.43-9.53a30.34,30.34,0,0,1-2.73,4.46,38,38,0,0,1-4.3,3.77c.86,1.23,1.71,2.58,2.7,3.82,5.25,6.6,11.68,11.91,18.5,16.8a11.81,11.81,0,0,1,1.79,2Zm473-37.35A41.17,41.17,0,0,1,620.87,93a11.94,11.94,0,0,0-3.85-.67c-2.25-.05-4.12-.68-5.17-2.77s-.52-3.74,1.4-5.41l-5.37-3.76-.32.36c1.42,2.64,2.52,5.44,1.87,8.41-.34,1.57-1.71,2.89-2.29,4.45s-.51,3.59-1.28,5.12c-1.06,2.1-3.22,2.73-5.5,2.5A4.7,4.7,0,0,1,596.19,98c-.82-2.11.14-3.75,1.24-5.3-1.85-4.29-7.65-7.28-12-6.16,1.59,3.47,2.17,6.89-.65,9.66,4.48,1.67,9.1,3.2,13.55,5.12a49.36,49.36,0,0,0,22.07,4.14c2.5-.11,5.41-.1,7.39-1.34,3.92-2.44,7.34-5.71,11-8.64l.08-.11ZM176.27,122l5.57,3.7-.51.81c-2.11-.3-3.55-1.87-5.07-3.28l0-.06-.05.08a7.36,7.36,0,0,1-.89-.44c-5.89-4.12-10.52-9.46-14.64-15.27-2.18-3.08-4.11-6.35-6.17-9.55l-2.9,2.29c.95,1.72,1.84,3.5,2.89,5.17a74.69,74.69,0,0,0,13.23,15.26c1.77,1.62,3.51,3.27,5.27,4.9l0,.06.06-.07c1.12.7,2.31,1.33,3.36,2.13a71.48,71.48,0,0,0,23.77,11.93l4.94-4.47c-.81-.34-1.3-.52-1.76-.76-4.19-2.18-8.58-4-11.89-7.6l.07,0,0,0c.15-1.3.17-1.26,1.35-.5,3,1.93,6.08,3.86,9.18,5.7a41.58,41.58,0,0,0,4,1.84l2.64-3.61c-23.69-15.83-36.18-38.7-43-65.28l-2.55,3.33a80.92,80.92,0,0,0,12.69,33,14.1,14.1,0,0,1,.93,2l-1,.42c-7.49-10.37-11.92-22.06-14.15-34.65-3.33.5-3.55.76-3.05,3.43,3.4,17.78,11.92,32.76,24.77,45.38.41.4.76.86,1.15,1.31-1,1.32-1.62.37-2.18-.16A86.67,86.67,0,0,1,159,80.77c-.93-3.18-1.62-6.43-2.45-9.79a18.49,18.49,0,0,1-2.24,0,20.16,20.16,0,0,1-2.32-.58,2.21,2.21,0,0,0-.1.68c4.16,17,10.93,32.67,23.91,45a8.08,8.08,0,0,1,1,1.57l-.54.48a17.08,17.08,0,0,1-1.95-1.38c-7.49-6.94-12.7-15.45-16.94-24.63-.27-.59-.56-1.18-1-2.09-.25,1.79-.53,3.11-.58,4.43a5.81,5.81,0,0,0,.43,2.8,72.56,72.56,0,0,0,10.92,15.79c2.92,3.11,6.11,6,9.18,8.94Zm61.79-.78.06,0H238c-.4-.75-.82-1.5-1.21-2.26q-4.95-9.5-9.86-19c-.33-.65-1.06-1.6.62-2.13.31.63.63,1.25.91,1.89a108.22,108.22,0,0,0,11.95,21.74c1.66,2.28,3.39,2.69,6.31,1.75-.89-1.43-1.79-2.83-2.63-4.27s-1.68-2.89-2.41-4.39c-11-22.77-15.49-46.69-12.47-71.88a68.34,68.34,0,0,1,12.06-31.3A71.27,71.27,0,0,1,258.88-6c.47-.33,1.12-.79,1.17-1.25a9.14,9.14,0,0,0-1-6.17c-.64.53-1.54.9-1.65,1.43-.52,2.51-2.12,4.12-3.87,5.84a7.23,7.23,0,0,1-5.65,2.47,3.17,3.17,0,0,0-2.62,1.07A77.43,77.43,0,0,0,232.2,14.28c-.35.6-.76,1.17-1.12,1.72-1.57-.56-.84-1.41-.49-2a84.33,84.33,0,0,1,4.88-7.58c2.88-3.74,6-7.29,9.11-11-2.38-1.74-2.9-4.27-2.15-7.37-.41.29-.63.42-.83.58A60,60,0,0,0,225,9c-7.65,15.18-9.38,31.35-7.63,48a144.11,144.11,0,0,0,6.95,31A13.76,13.76,0,0,1,224.7,90c-1.63.5-1.64-.72-1.81-1.39-2-7.89-4.35-15.73-5.86-23.72a94.86,94.86,0,0,1,.19-38.05C220.64,11,227.94-2.47,240.75-12.66c1.87-1.49,3.87-2.81,6-4.37-.61-1.44-1.21-2.88-1.9-4.49-1.92,1-3.53,1.95-5.25,2.65-2.37,1-3.08,3-3.5,5.16-.63,3.13-2.1,5.29-5.39,5.79-1.56,5-3.56,6.4-9.79,6.77a7.74,7.74,0,0,0-.57.75c-.74,1.27-1.51,2.53-2.19,3.83-6.43,12.39-8.2,25.74-8,39.47a3.1,3.1,0,0,0,1.2,1.84c3,2.64,4.09,7.52,2.14,11a3.33,3.33,0,0,0-.19,3.16A17.6,17.6,0,0,1,214,68.94a10.78,10.78,0,0,0-.09,4.27,136.32,136.32,0,0,0,7.52,24.48,106.24,106.24,0,0,0,10.65,20.17,4.42,4.42,0,0,0,1.57,1.44C235.08,120,236.59,120.58,238.06,121.2ZM142.36,142l-.56.73a22.39,22.39,0,0,1-2.07-.91c-17.28-9.71-31.57-22.65-42.09-39.54-5.46-8.76-9.51-18.1-10.3-28.59A6.83,6.83,0,0,0,87,72.37l-.58-.08c-.17.73-.62,1.52-.47,2.18,1,4.68,1.75,9.5,3.39,14,5.27,14.33,14.14,26.29,25.27,36.64.6.56,1.14,1.18,1.77,1.84-1.32.6-1.39.67-2.33-.32-4.08-4.32-8.41-8.44-12.11-13.07-7.85-9.81-13.8-20.67-16.61-33.05-.41-1.81-.69-3.66-1.07-5.65-2,1.62-1.22,3.57-.94,5.29C85,90.07,89.32,99,94.7,107.32a88.22,88.22,0,0,0,28.21,28.06,16.53,16.53,0,0,1,1.52,1.2c-1.05,1.18-1.71.45-2.42,0A84.89,84.89,0,0,1,100.64,118c-8-9.68-14.25-20.36-17.76-32.5-.6-2.08-.95-4.22-1.45-6.46-2.73,3.59-2.6,6,.35,9a8.49,8.49,0,0,1,2.38,8.47,6.13,6.13,0,0,0,.54,4.39,78.52,78.52,0,0,0,16.73,23.84c4.68,4.55,9.91,8.54,14.87,12.81.6.52,1.87.78.94,2.42A102.24,102.24,0,0,1,98.52,124a94,94,0,0,1-14.13-20l-2.56,5.36a39.68,39.68,0,0,0,3,4.62c3.68,4.32,7.5,8.53,11.25,12.78.45.51.86,1,1.29,1.58l-.44.65a6.82,6.82,0,0,1-1.75-.95c-2.52-2.59-5.12-5.12-7.42-7.89-2.65-3.21-5-6.66-7.46-9.93l-5.13,1.6a31.4,31.4,0,0,0,5.63,8.88A104.59,104.59,0,0,0,102,139.91c16,11.21,33.23,19.65,52.83,22.42a49.88,49.88,0,0,0,20.88-1c1-.29,2-.74,3-1.13-5.4-.57-10.65-.76-15.74-1.74-6.21-1.2-12.3-3-18.43-4.65-.71-.19-1.68-.36-1.1-1.79.9.24,1.78.44,2.63.72a106.4,106.4,0,0,0,34.07,5.7c2.67,0,3.94-1.62,5.66-3.47-3-.53-5.65-.93-8.26-1.46a112.26,112.26,0,0,1-36-14.13c-18.3-11.09-33.31-25.52-43.77-44.3-4.08-7.32-7.82-14.91-7.49-23.7,0-.11-.11-.23-.17-.37-1.54-.21-1.38.87-1.33,1.8A47.59,47.59,0,0,0,91.88,87c5.38,14.34,14.39,26.17,25.43,36.57a115.71,115.71,0,0,0,23.48,17A10.18,10.18,0,0,1,142.36,142ZM338.57,45.79c-.67-.57-.9-.67-.95-.82-.46-1.5-1.53-1.91-3-1.7a2.77,2.77,0,0,0-2.33,2.42c-.5,2,.86,4.33,3.19,5.43,5.32,2.51,12.32-1.84,12.36-7.71a24.41,24.41,0,0,0-.33-3.12c2.54-1.95,2.74-4.58,2.39-7.32a18.84,18.84,0,0,0-4.85-10.16c-.46-.52-.88-1.08-1.35-1.65,1.5-.87,4.6.39,8,3.13s5.89,5.94,4.94,10.52c-1,.46-2.15.95-2.25,1.59a4.56,4.56,0,0,0,.74,3.27,3.8,3.8,0,0,0,3,1c2.25-.31,3.88-2.67,4.08-5.33.52-6.95-4.29-14.06-11.1-16.45a8.57,8.57,0,0,1-1.53-.91l.24-.59c.48,0,1,0,1.45,0,2.25.1,4.5.18,6.75.32a25.83,25.83,0,0,1,4.75.43,2.8,2.8,0,0,1,2.23,3.6c-.68.52-1.57,1.09-1.66,1.77a2.56,2.56,0,0,0,1,2.16,3.91,3.91,0,0,0,2.76,0A3.39,3.39,0,0,0,368.6,24a7.64,7.64,0,0,0-3.37-9.83,15.91,15.91,0,0,0-4.18-1.32c-3.21-.59-6.49-.88-9.68-1.56a11.52,11.52,0,0,1-8.95-8.3c-.2-.61-.46-1.2-.8-2.08L336.07,5.7c0,1,.1,2.46,0,3.92-.26,3-.83,6-3.68,7.62a33,33,0,0,1-5.67,2.39A4.84,4.84,0,0,1,320.93,18a4.91,4.91,0,0,1-.87-5.43c1-2.12,2.73-2.75,5.1-2.25a27,27,0,0,0-2.84-12.4,27.79,27.79,0,0,1-1.6,3.27,5.23,5.23,0,0,1-6.06,1.9A4.27,4.27,0,0,1,312-1.39c.15-2,1.15-2.93,4-3.48a14.43,14.43,0,0,0-2.15-8.86c-.1,3.23-1.29,5.74-4.31,7.05.08.8.11,1.4.2,2,.64,4.6.32,8.92-3.38,12.36-.35.32-.24,1.2-.23,1.82a64.1,64.1,0,0,1,.18,6.78A9.8,9.8,0,0,1,304,22.22a11,11,0,0,0-1.86-1.37,5,5,0,0,0-2.43-.59A4.42,4.42,0,0,0,296.28,24c-.1,1.7,1.05,3.14,3,3.77a5.34,5.34,0,0,1,1.63.64,6,6,0,0,0,8-.32,4.23,4.23,0,0,1,1.41-1c2.91-.84,4.29-2.47,4.51-5.5.05-.6.18-1.2.28-1.93,1.41.84,1.95,5.38,1.28,10.32-.66,4.77-2.14,9.11-7,11.2a3.37,3.37,0,0,1-.68-.35c-.84-.9-2-1.26-2.85-.49a4.33,4.33,0,0,0-1.16,2.91c0,1.92,1.36,3.14,3.41,3.66a10.67,10.67,0,0,0,11-4.43,4.54,4.54,0,0,1,1.18-1.57c3.58-2.05,4.64-5.54,5.36-9.2.31-1.61.34-3.28.5-4.93,2.75.43,4.53,5.55,3.13,8.87-.17,0-.37,0-.57,0-1.89-.07-2.92.74-3,2.38a2.64,2.64,0,0,0,2.89,2.85,6.85,6.85,0,0,0,3.27-1.24c2.44-1.85,2.56-4.5,2-7.27-.13-.74-.24-1.48-.38-2.3,2.24.27,3.84,1.94,4.84,5C339.48,38.47,340,41.92,338.57,45.79ZM97.82,154.6l.32-.9a8.86,8.86,0,0,1,1.66.49c3.21,1.65,6.33,3.46,9.59,5a94,94,0,0,0,38.67,9.35,5,5,0,0,0,4.46-2c-20.89-1.67-39.08-10.14-56-22,1-1.69,1.75-.67,2.36-.3,5,3,9.78,6.32,14.91,9,11.78,6.25,24.24,10.56,37.65,11.62,2.07.16,4.16,0,6.25,0l0-.48c-28-3.7-51.23-17-72-35.75.94,4.33-.26,7.69-4.38,9.94,3.29,1.12,5.81,2.68,7.12,5.64,1.41,3.19.72,6-2.13,8.36l10.58,7c-.85,1.29-1.53.65-2.17.25l-8.89-5.56c-.12.44-.19.76-.3,1.06a7.75,7.75,0,0,1-10.93,4.1,5.76,5.76,0,0,1-2.6-7.06c.77-1.88,2.46-2.36,4.36-2.74-3.2-2-8.84-1.79-11.58.27.49,1.2,1.29,2.34,1.37,3.54.12,1.78,1.15,2.72,2.35,3.7A75.46,75.46,0,0,0,86.2,167.89c15.31,6.67,31.45,9.38,48,9.66,3.47,0,6.54-1.5,9.68-3.89l-1.19-.07c-5-.47-10-.91-14.95-1.46-.86-.09-2.06.09-2.6-1.73l3.19.31c5.11.47,10.23.91,15.35,1.42,1.76.18,2.76-.75,3.84-2.18a86.07,86.07,0,0,1-26-4.33A97.85,97.85,0,0,1,97.82,154.6Zm10.86-46.25a4.33,4.33,0,0,0,.32.77c19.83,23.66,44.44,39.16,75.28,44,3.06.48,3.69.09,4.6-3.15-.32-.09-.63-.19-.94-.26a112.18,112.18,0,0,1-22.6-8.11,109.08,109.08,0,0,1-35-26.35,6,6,0,0,0-2.42-1.62c-3.51-1.24-5-3.32-4.9-7.09a6,6,0,0,0-.57-1.81l-3,2.68a96.82,96.82,0,0,0,11.59,13.93,98.14,98.14,0,0,0,21.36,16.16c.69.38,1.7.59,1,2.18-14.56-7.56-26.07-18.31-35.37-31.5C114.89,109.43,112,110.28,108.68,108.35Zm176.52-136c-2.35-5.17-5.67-9-11.41-10.11.15-1.5,1.12-1.23,1.91-1.08,4.27.81,10,6.53,10.87,10.9a8.48,8.48,0,0,1-.17,2.54c0,.14-.27.25-.5.45l-1.44-.77c-1.46,1.45-1.38,2.43.18,3.36a4.06,4.06,0,0,0,6-3.19,20.79,20.79,0,0,0-1.07-5.82,2.44,2.44,0,0,0-2.95-2,3.7,3.7,0,0,1-2.07-.58c-2.48-1.34-3.11-3.48-2.15-6.87-3.86-4.72-16.68-5.66-23.46-3.39.07.11.12.26.22.31a16.85,16.85,0,0,1,9.61,11.85,5.24,5.24,0,0,0,.78,1.37c.87,1.34,1.72,2.7,2.62,4a4,4,0,0,0,1.3,1.4c7.38,3.59,10.42,10,11.47,17.65a5.56,5.56,0,0,1-.48,1.8,6.13,6.13,0,0,0-.92-.78c-.72-.31-1.73-1-2.13-.76a3.43,3.43,0,0,0-1.49,2.25C279.69-3,282-1.43,284.37-1.81c2.76-.45,4.58-2.72,4.69-5.9,0-1,0-2.06,0-3.21,2,.31,1.05,2.05,1.76,2.83,3.54-1.74,2.85-8.69-1.28-13.07-3.56,1.3-6.61.56-7.52-1.84C281.26-25,282.29-26.66,285.2-27.68ZM212.27,73l-5.69,3.34,4.94,13.76-.83.42a11,11,0,0,1-1.19-1.88c-1.59-4.1-3.11-8.22-4.67-12.36a8.54,8.54,0,0,1-6.61-3.2,153.7,153.7,0,0,0,22.83,47.32l9.51-1.93a121.18,121.18,0,0,1-11.17-21.84A152.19,152.19,0,0,1,212.27,73ZM252,124.87c-1.89-3.25-3.83-6.22-5.41-9.37a119.41,119.41,0,0,1-12.17-67.09A67.15,67.15,0,0,1,254,6.81c1.06-1.06,2.14-2.09,3-2.92L253.73,0a4.1,4.1,0,0,0-.42.29l-.91.79c-13.92,12.83-21,28.88-22.31,47.6a124.38,124.38,0,0,0,4.83,44c3,10.44,7,20.48,13.13,29.56A6.38,6.38,0,0,0,252,124.87Zm305.13,4.44a69.06,69.06,0,0,0,18.73,4.3,5.69,5.69,0,0,0,3-.39q11.88-6.25,23.66-12.71c2.61-1.43,5.12-3,7.7-4.58a243.19,243.19,0,0,1-43.54-11.18,43.83,43.83,0,0,0,4.78,2.79c1.5.72,3.12,1.16,4.66,1.8,3.42,1.43,5.79,4.5,5.1,7.55a19.19,19.19,0,0,0,0,7,6.31,6.31,0,0,1-3.45,6.85,4.67,4.67,0,0,1-6.11-1.8c-1-2-.25-3.68,2.48-5.16-2.75-3.83-7.39-2.8-11.08-4.64C563.77,124.07,563,128,557.12,129.31ZM104.55,177.57l-.09.78a9.33,9.33,0,0,1-2.15.18c-14.41-1.92-27.52-7-39-16.12-1.15-.92-2.14-1.21-3.38-.45a3.71,3.71,0,0,0,1.35,3.93,41.48,41.48,0,0,0,15.92,9.41c.65.21,1.29.48,1.93.72l-.08.69a6.36,6.36,0,0,1-1.78.09,37.74,37.74,0,0,1-13.2-6.55c-1.16-.83-2.25-1.75-3.36-2.62l-.45.28a67.51,67.51,0,0,0,2.89,6.29c3.14,5.38,7.37,7.21,13.52,6.06,1.12-.21,2.23-.45,3.33-.74,6.69-1.74,13.18-2.09,19.22,2.19,4.51,3.2,9.14,2.66,13.78.09,2.39-1.34,4.88-2.49,7.06-3.59a127.54,127.54,0,0,1-28.25-6.41,82.5,82.5,0,0,1-25.59-14.46l-2.46,3.48,1,.77A76.47,76.47,0,0,0,102.34,177,19.39,19.39,0,0,1,104.55,177.57ZM183.67,54.7c0,.16,0,.31,0,.41a17.39,17.39,0,0,1,1.16,13,3.63,3.63,0,0,0,.21,1.93c4.69,15.56,11.56,30,21.62,42.9,2.82,3.61,6,7,9,10.45.93-.51,1.52-.82,2.09-1.15l2-1.13c-11.49-16.53-19.95-34.27-24.56-53.53h-5.41c.19.66.33,1.31.55,1.92,1.36,3.7,2.74,7.4,4.09,11.1.27.73,1,1.59-.76,2.17-1.09-2.76-2.39-5.39-3.2-8.17-1.77-6.15-3.3-12.37-4.93-18.56C185.2,55.17,185.08,54.14,183.67,54.7ZM149.82,92.16a7.8,7.8,0,0,0-1,.23,3,3,0,0,0-2.2,3.71,3.46,3.46,0,0,0,4,2.5,3.74,3.74,0,0,0,3.14-3,28.31,28.31,0,0,0,.74-7.12c-.53-6.57-3.21-12.09-9-15.69a19.3,19.3,0,0,0-2.75-1.15c0,2.13-.06,3.86,0,5.58.15,3.52.81,7.08.46,10.54-.38,3.69-1.36,7.53-6.1,8.29-.18,0-.32.23-.48.33l-4.43,2.88c-.69,7.52-.69,7.52-2,7.88a2.65,2.65,0,0,0-.18-.93c-.5-.78-1-2-1.65-2.14a3.6,3.6,0,0,0-2.8.81,3.68,3.68,0,0,0-.54,4.78,5.37,5.37,0,0,0,8.3,1.35,5.09,5.09,0,0,1,3.24-1.06,17.27,17.27,0,0,0,4.27-1.28c.49-.17.9-.56,1.39-.69a9.48,9.48,0,0,0,6.33-7.73c-4.19-2-5.47-6.73.09-9.85a34.17,34.17,0,0,0-.53-3.65A38.45,38.45,0,0,0,146.77,83C149.47,83.9,150.64,87.89,149.82,92.16Zm376.83,32.16-2.15,4.32c3.81,1.08,7,2.92,9.08,6.45a3.09,3.09,0,0,0,1.54,1.21c4.46,1.55,9,3,13.43,4.53.86.29,1.76.47,2.63.69l.12.53c-.36.2-.72.57-1.08.57a7.68,7.68,0,0,1-2.17-.34c-4.52-1.35-9-2.74-13.77-4.18-.07.82-.2,1.86-.23,2.9a5.19,5.19,0,0,1-3.95,4.68c-2.92.54-5.55-1.43-5.29-4.15a11.54,11.54,0,0,1,1.31-3.1c-2.45-1.57-5.21-1.77-8.53-1.44,3.11,1.89,5.19,4.1,5.28,7.54a43.73,43.73,0,0,0,13.88,4c2.83.33,6,1,8.52.18,5.42-1.76,10.56-4.41,15.81-6.7v-.43C548.09,138.94,535.55,135.42,526.65,124.32ZM85.84,150.7a4.49,4.49,0,0,0,1.36-5.25,8.14,8.14,0,0,0-5.17-5,23,23,0,0,0-14-.33c-5.77,1.46-10.7,4.3-14,9.51,2.36-1.39,4.74-2.34,7.56-1.57A5.19,5.19,0,0,0,64.4,148a20.54,20.54,0,0,1,9.09-1.08c3.63.46,5.73,2.69,5.88,6.24,0,.46-.44.95-.68,1.43-.57-.41-.77-.69-.79-1a2.1,2.1,0,0,0-2.12-2.21,2.47,2.47,0,0,0-2.54,1.9,4.12,4.12,0,0,0,1.5,4.46c2.18,1.69,6,1.28,8.09-.88a5.88,5.88,0,0,0,.13-7.68,9.71,9.71,0,0,1-.89-1.78C84.52,147.51,84.88,149.29,85.84,150.7Zm-8.32-17.36c-.61-1-.4-2.72-2.18-2-1.23.47-1.69,2.19-.93,3.63a4.44,4.44,0,0,0,3.83,2.55,6.22,6.22,0,0,0,6.09-5.3,9.28,9.28,0,0,0-6.47-9.71,16.33,16.33,0,0,0-8.88,0,25.43,25.43,0,0,0-10.45,5.29l1.12,7.61c.42-.24.94-.5,1.43-.82a21.63,21.63,0,0,1,9.92-3.4,8.63,8.63,0,0,0,3.08-1c1.49-.79,3.32-.66,4.17.57C78.91,131.68,79.09,132.64,77.52,133.34ZM564,93.75c-1.49,4.64-.67,6.8,3.26,9a8.7,8.7,0,0,0,1.43.72c5.57,1.8,11.1,3.8,16.75,5.32,6.94,1.86,14,3.46,21,4.91,4.35.9,8.61.59,12-3.29-.48,0-.85-.07-1.22-.08a75.31,75.31,0,0,1-23.73-4.26,90.4,90.4,0,0,0-18.94-4.93A12.79,12.79,0,0,1,564,93.75ZM168.05,56.11c-.25,2-.5,3.85-.7,5.69a7,7,0,0,0,0,2.14,108.58,108.58,0,0,0,28.74,54.32,53.87,53.87,0,0,0,12.81,9.88c.77.42,1.45.85,1.78-.51l-1.08-.84a91.39,91.39,0,0,1-22-23.14A112.1,112.1,0,0,1,174.75,77a3.48,3.48,0,0,0-1.27-1.87C168.75,72.62,168,69,171.35,65c-.5-2.4-1-4.81-1.47-7.24C169.69,56.6,169.17,56.07,168.05,56.11Zm58.67-77.76c1.51,2.81,3.13,5.46,2.38,8.78a2.57,2.57,0,0,1-1-1.56,14.62,14.62,0,0,0-3.27-7c-2-2.35-4.48-4.1-8-4.32.38,1.18.64,2.15,1,3.07A4.89,4.89,0,0,0,219-20.55c3.84,2.87,4.9,6.83,4.66,11.33,0,.38-.35.74-.78,1.59-.54-.94-.9-1.56-1.15-2-2,.4-3.08,1.27-3.05,3a3.87,3.87,0,0,0,3.05,3.75,6.3,6.3,0,0,0,7.17-4.39c.22-.75.36-1.53.52-2.25,3.94-.44,4.73-1.23,5.18-5a2.76,2.76,0,0,1,.23-1,10.18,10.18,0,0,0-2.21-11.32C231.61-24,229.89-22,226.72-21.65Zm231.69,181.5a19.49,19.49,0,0,0,2.06,2.23,28.9,28.9,0,0,0,15.94,6.38c3.44.22,7-.7,10.45-1.28,3.25-.55,6.47-1.33,9.94-2.06L484,160c-1.58,2.39-3.28,3.14-5.29,2.32-1.69-.69-2-1.88-1.5-5.15-2.81-2.44-5.77-2.06-7.76,1-2.52,3.91-5.48,4.24-8.84,1a9.89,9.89,0,0,0-1-.74ZM60,156.35c-.28.07-.53.1-.77.18-.57.17-1.6.33-1.62.55a3.14,3.14,0,0,0,.5,2.16,3,3,0,0,0,3.51.62c2.85-1.12,4-4.28,2.65-7.39A5.25,5.25,0,0,0,56.83,150a9.53,9.53,0,0,0-3.56,3.37c-3.05,5.4-2.4,11,0,16.37a16.66,16.66,0,0,0,12.22,9.74c-5.17-4.89-7.3-11-7.24-18.1-1.75-1-3-2.43-2.31-4.69a2.39,2.39,0,0,1,2.6-1.79C59.41,154.91,60.15,155.15,60,156.35ZM573.15,87.6a37.53,37.53,0,0,0-5.36,1.9c-2.74,1.48-3,3.68-.95,6.08a10.8,10.8,0,0,0,6.82,3.91c8.22,1.06,15.94,3.82,23.77,6.32a62.62,62.62,0,0,0,21.94,3,5.85,5.85,0,0,0,4.63-2c-.52,0-.82,0-1.12,0a50.85,50.85,0,0,1-26.33-4.61A47.7,47.7,0,0,0,581,97.74C574.74,97.16,572.11,93.69,573.15,87.6ZM213.37,125.2c1.55-.82.64-1.36.14-1.93-2.56-2.91-5.24-5.73-7.64-8.76a125.4,125.4,0,0,1-19.53-35.72c-1-2.67-1.88-5.36-2.85-8.14a8,8,0,0,1-1.65,1.06c-1.82.58-1.91,1.61-1.25,3.22,1.72,4.21,3.16,8.53,4.95,12.69C191.86,102.31,201.53,114.54,213.37,125.2ZM93.63,81.29c.6,4.63,7.83,18.81,10.53,20.81.41-1.33.85-2.72,1.31-4.21,0-1.1-1.9-2.08-.53-3.94l1.91,2.83,3.88-.44L104.14,78.2l-3.85,2.22c.94,3,1.79,5.72,2.68,8.44.26.79.6,1.54-1,1.87l-3.12-9.44Zm420.84,63.44c-2.27-1.92-5.55-2.48-9.59-1.56,3,2.81,3.26,5.93.73,9.63,3.51,1.18,6.73,2.5,10.07,3.3a19.85,19.85,0,0,0,7.89.67c3.83-.69,7.5-2.26,11.24-3.45a4.17,4.17,0,0,0-1.92-.8c-3-.69-6.14-1.28-9.15-2.16a3.45,3.45,0,0,0-3.46.41,4.54,4.54,0,0,1-6.06-.29C512.72,148.79,512.79,147,514.47,144.73ZM211.89,126.25a112.76,112.76,0,0,1-32.95-51.81l-3,1.19C182.74,96.29,193.94,113.68,211.89,126.25Zm306.22,32.28-12.42-3.93c-2.14,3.47-5.22,3.78-7.82.55-.66-.83-1-1.9-1.69-2.7a9.53,9.53,0,0,0-3-2.78c-3.22-1.41-6.57-.91-10,0a22.13,22.13,0,0,0,3.73,3.65c4.9,3.56,10.54,5.38,16.36,6.8A21.82,21.82,0,0,0,518.11,158.53ZM101.48,61.73c.07.33.07.42.11.45.36.3.74.57,1.1.86,3.1,2.61,5.22,5.69,4,9.94a12.91,12.91,0,0,0,.3,8.57c2.1,5.34,4.3,10.63,6.52,15.92a34.93,34.93,0,0,0,1.91,3.47c2.77-2.63,2.84-3.06,1.39-6.07-.7-1.44-1.28-2.94-2-4.37a3.79,3.79,0,0,0-1.34-1.61c-4.33-2.4-5-5.14-2.5-9-.84-5.92-1.63-11.6-2.46-17.47A9.06,9.06,0,0,0,101.48,61.73ZM61.57,97.28c-2.44,8.93.55,16.68,4.58,24.31l6.13-1.33c-4.72-7.22-8.17-14.58-7.61-23.41ZM40.1,145.78l3.8-7.19a12.23,12.23,0,0,1-.4-2.5,18,18,0,0,1,.52-2.87c-7-.83-15.38,5.65-15.73,12.14C33.49,142.18,36.55,142.3,40.1,145.78ZM203.26,71.3c.29-.71.44-1.16.64-1.58a2,2,0,0,0-1.71-3.14,2.74,2.74,0,0,0-3.05,2.27,4.84,4.84,0,0,0,4.45,5.75,8.16,8.16,0,0,0,8.25-4.51,13.91,13.91,0,0,0-.33-11.59L206.44,60C209.08,67.16,208.2,70.9,203.26,71.3ZM284.41-40.81c-.06.24-.05.4-.13.49a2.8,2.8,0,0,0-.32,3.81,3.48,3.48,0,0,0,3.45,1.57,3.39,3.39,0,0,0,2.94-2.86,7.28,7.28,0,0,0-1.6-6.56,14.81,14.81,0,0,0-9.94-5.42,2.49,2.49,0,0,0-1.65.4c-1.18.82-2.25,1.79-3.38,2.7,1.93.66,3.91,1.21,5.79,2A9.58,9.58,0,0,1,284.41-40.81ZM554.82,119.31c-1.33-4.61-12.32-7.13-15.47-3.59,3,5.15,7.45,8.57,12.88,11.42C550.43,122.73,550.89,121.47,554.82,119.31ZM441.73,168.67c-2.83,2.92-4.88,3.72-7.91,2.11-5.06-2.68-9.34-1.17-13.58,1.8,6.22,1.62,24.6,2.9,27.89,1.51Zm-382-70.55-.38-.31-5,4c1,1.17,1.76,1.93,2.38,2.79,2.58,3.6,2.51,6.38-.12,9.81a1.8,1.8,0,0,0-.38,1.41c1.14,2.94,2.38,5.85,3.64,8.89l4.8-2.49C60.72,114.59,57.92,106.83,59.74,98.12Zm383.09,68.43c3.58,6.94,12.81,9.39,20.4,5.67l-5.52-3.05c-.29.33-.59.68-.91,1a4.25,4.25,0,0,1-4.95.87c-1.57-1-1.7-2.36-1-4,.42-1-.08-1.82-1.2-2.1A7.42,7.42,0,0,0,442.83,166.55Zm41.6-7.93c4.06,1.51,8.21,3.13,12.42,4.6,3.1,1.08,6.06.25,9.06-.94-.22-.17-.31-.29-.43-.32a6.74,6.74,0,0,0-.78-.16c-8.75-1.79-17.17-4.22-23.09-11.63-.19-.24-.76-.17-1.15-.25C483.23,152.6,483.87,153.84,484.43,158.62ZM173.72,8.89a67.46,67.46,0,0,0-1.8,19.23l4.53.89c.21-3.22.39-6.06.58-9a5.18,5.18,0,0,1-3.68-5.34c0-2.28,1.32-3.49,3.88-4.18Zm-58,70.37c2.22-5.26-.43-12.93-5.58-15.35.76,5.16,1.48,10.06,2.19,14.93ZM458,162c.12,1.66.16,2.92.31,4.16a2.86,2.86,0,0,0,.61,1.73c4.37,3.46,9.31,4.62,14.65,1.79C467.84,168.28,462.62,166.21,458,162ZM45.61,110.61a11.45,11.45,0,0,0-8.46-.87,61.59,61.59,0,0,0,.46,7.18c.75,4.22.88,4.19,5,3.3C40,115.74,40.65,111.78,45.61,110.61ZM184.66,18.53l-6.15,2.28c-.17,2.5-.35,5.19-.57,8.39l5.79-1.5C184.07,24.36,184.37,21.4,184.66,18.53ZM144.39,63.1c.56,2.63,1,5,1.57,7.31a2.67,2.67,0,0,0,.84,1.29c1.45,1.24,3,2.41,4.33,3.51-.82-4.54-1.66-9.25-2.55-14.17Zm7-45.46c-5.22-1.27-11.72,2.46-13,6.88l10.18-1.24C148.07,21,148,18.72,151.39,17.64Zm118.5-23.4,12.91-5c-.28-.93-.64-2.15-1.09-3.66-2.42.67-4.59,1.25-6.74,1.88a1.51,1.51,0,0,0-.83.74,7,7,0,0,1-4.25,4.16ZM152,32.71C148.9,29,142.16,29.9,139.44,34l8.17,3.38C148,33.66,148.53,33,152,32.71Zm45,21.63c2.71,6,2.63,7.72-.52,12.15l.85,3.59c.69-3.44,1.17-4,4.49-5.39a64.12,64.12,0,0,1-1.24-6.61A3.69,3.69,0,0,0,197,54.34Zm39.25-78.71,1.25,4.92,6.59-3.43-3.25-3.41Zm286,172.82c6.19,1.65,12.06,3.73,18.35,2.48-3-.71-6-1.14-9-1.87s-5.82-1.74-8.85-2.66C522.61,147,522.47,147.56,522.25,148.45ZM29.76,112.52l.08.48c3.93,1.66,6,4.54,6,8.93a6,6,0,0,0,.84-.27,4.66,4.66,0,0,0,.59-.43l-.48,0-1.5-11.31ZM280.92-15.74c-2-4.6-2.82-5.1-6.57-4.06.14,1.83.29,3.68.44,5.6Zm-223.18,142,.95-.82c-1.38-3-2.69-5.9-3.86-8.47l-3.41,4.13ZM254.23-62.64a15,15,0,0,1,9.1,7.08l2.51-1.93C263.88-61,259.28-63.11,254.23-62.64ZM66.51,133.45c3.81,5.2,3.29,5.11,7.33,4.05l-1.73-5ZM579,95.74V90.53l-3.62-2.41C573,91.35,574.6,94.23,579,95.74Zm-455.46,8,.31.39c1.73-2,3.8-2.38,6.41-1.2v-4.2L127,97.09ZM184.64-12.28l-.1.73A9.59,9.59,0,0,1,191-5.67c.59-2.1.39-4.4,2.72-5.63l-.32-.59Zm110.44,1.2-.54-.12a5.87,5.87,0,0,1-4.48,5.34l.28.56,7.07,1C296.55-6.84,295.81-9,295.08-11.08ZM202,57.57c.62,3.82.85,7.67,4.09,10.25C207.22,64.72,205.36,59.83,202,57.57Zm3-74.78,3.5-4.85a9.2,9.2,0,0,0-7.66,1.93ZM193.24,61.14a9.84,9.84,0,0,0-6.5-6.28L187.92,61C190.53,59.8,191.19,59.79,193.24,61.14Zm-48.9,9.39c-.52-2.51-.94-4.5-1.37-6.59l-3.55.63C141.62,66.27,141.07,69.55,144.34,70.53Zm30.55-5.63A8.7,8.7,0,0,0,171.46,58l1.38,6.8Zm60.69-90.66,3.23-1.49.06-.55-5.74-2.09-.28.48ZM115.91,89.39c.94,2,1.76,3.7,2.57,5.42l.71-.17c-.12-1.9-.25-3.8-.38-5.86ZM193,32.58l.23.56,4.93.63c.08-1,.16-1.92.27-3.31Zm-42.5,29.79h4.59c-1.23-2-2.16-2.33-4.7-1.56ZM66.19,100l3.45-2.43L66.34,97Zm261.63-69.5-.47.05c-.17,1.09-.33,2.18-.52,3.47l1.54-.16Zm-54-53.83-.33.29.56,1.59,2.24-.43Zm-8-23.54.12-.38-1.71-1.29-.93,1.88ZM220.2-11.16h2l-.39-1.7Zm37.31-3.39c1.18-.85,1.18-.85-.18-2.48ZM78.1,84.14l-1.43,1.13,1.59.43ZM91.83,71.08l.23.68,1.3-.48-.08-.38ZM113,102.42l.45.25.55-1.07-.45-.22ZM218.31-18.76c0-.12-.07-.29-.14-.31s-.22.07-.33.11l.18.36Z" style="fill: #fff"/>
    <path d="M0,262.92c1.35-3.83,2.39-7.81,4.13-11.46,3.36-7,8.07-12.93,15.34-16.34,2.41-1.13,4.92-1.8,7.58-1.05s4.29,3.38,3.39,5.65c-.21.51-.79.87-1.2,1.3l-.41-.32a2.41,2.41,0,0,1,0-.93c.51-1.07.64-2.26-.4-2.88A5.68,5.68,0,0,0,25,236c-2.55.38-4.34,3.67-3.92,6.6.74,5.08,6.24,8,11.45,5.9,3.77-1.5,6.13-4.16,6.3-8.39,1.58,0,1.58,0,1.08,3.86,1.63.42,2.47-.58,3.19-1.74,2.39-3.83,1.84-9.77-1.32-13.39-.43.6-.81,1.21-1.26,1.75-2.42,3-7.25,3.13-9.28.3C29.43,228.35,30,226,33,223.8c-2.2-2-4.87-2.09-7.49-2-6.76.37-11.73,4.11-15.94,9C8,232.77,6.65,235,5.18,237l-1.31,1.89-.57-.12c0-.48-.29-1.08-.09-1.43,4.71-8.08,10.5-15,20.29-16.83,3.45-.67,6.94-.45,10,1.65,1.54,1,1.87,1.75,1.62,3.43-2.41,0-3.47.79-3.4,2.46A3.78,3.78,0,0,0,36,231.37c3.38-.47,5.32-3.83,4.36-7.7-1.19-4.8-4.47-7.47-9.15-8.49-3.07-.68-6.11-.75-8.79,1.39-.22.18-.71,0-1.53,0A9.8,9.8,0,0,1,22,215c5.42-4.71,11.47-6.86,18.49-4.07a21.12,21.12,0,0,0,20.94-2.28,11.86,11.86,0,0,1,12-.92c2.81,1.26,3.86,3.94,2.65,6.43-.31-.21-.75-.35-.89-.63-.54-1.1-1.27-1.55-2.38-.83a2.34,2.34,0,0,0-.54,3.36c1.67,2.31,6.13,2.15,7.93-.31a5.58,5.58,0,0,0,1-4.74,10.26,10.26,0,0,0-6.92-7.7,18.12,18.12,0,0,0-12.75.08,62.61,62.61,0,0,1-6.08,2c-.85.23-2,.5-2.47-.83.13-.18.19-.35.29-.38,3.89-1.1,7.73-2.45,11.69-3.19a16.63,16.63,0,0,1,13.2,2.67,10.15,10.15,0,0,1,4.57,9.48,6.69,6.69,0,0,1-10.5,5,3.91,3.91,0,0,1-1.94-4.26c.49-2,1.56-2.81,4.28-3.18a7,7,0,0,0-6.6-2.51A14.33,14.33,0,0,0,62.23,210c-4.09,2.46-8.3,4.58-13.13,4.22a39.52,39.52,0,0,1-9.32-2.09,15.07,15.07,0,0,0-11.13.32,5,5,0,0,0-.93.68l-.11.07.08-.1c2.91.4,5.84.68,8.43,2.3a12.18,12.18,0,0,1,5.71,7.89c.14.65.31,1.29.42,1.76,2.7-.74,5.29-1.64,8-2.13,5-.93,10.63,1.46,12.71,5.35a14.63,14.63,0,0,1,1.24,4,8.3,8.3,0,0,1-.38,2.48l-1.71-1.27c-.17.06-.41.08-.53.21a2,2,0,0,0-.09,2.89,2.47,2.47,0,0,0,3.23.78c1.82-1,4-1.43,4.63-3.94.75-3.09.94-6.15-.7-8.94-.66-1.12-2.06-1.8-3.22-2.76.78-1.79,9.18-1.7,13.81.54,5.41,2.61,10.15,11.42,8.15,15.3a3.77,3.77,0,0,1-.7-.22c-1.68-1-3-.23-3.11,1.7a3.78,3.78,0,0,0,3.63,3.8c2.73.31,5.28-1.45,6.44-4.43a16.16,16.16,0,0,0-5.11-18.07c-.53-.4-1-.89-1.5-1.35l.18-.49a7.66,7.66,0,0,1,1.64-.13c5.33.71,10-.84,14.28-4a12.76,12.76,0,0,1,9.3-2.45c3.57.45,5.15,3.24,3.35,6.2a10.23,10.23,0,0,1-1-.86c-1.25-1.47-2.77-1.29-3.59.44a3.66,3.66,0,0,0,.68,4.26,4.63,4.63,0,0,0,5.4.66,20.37,20.37,0,0,0,2.85-3c3.61-.38,4.93-2.54,3.59-6.34a8.82,8.82,0,0,0-6.85-5.81,5.48,5.48,0,0,1-2-.94c3.31-1.53,7.69,1,10.3,5.73,1-2.75-1.19-7.34-4.47-9.19a14.47,14.47,0,0,0-9.53-1.44c-1.27.18-2.54.41-3.81.62l-.3-.74a5.91,5.91,0,0,1,1.48-.91,19.11,19.11,0,0,1,9.7-.23,46.84,46.84,0,0,1,5.59-4.39c2.88-1.63,5.74-.45,8.37,1a2.68,2.68,0,0,1,.95,2c0,.44-.74.92-1.2,1.44-.33-.45-.46-.55-.48-.66-.12-.68.59-1.89-.73-1.77a2.74,2.74,0,0,0-1.85,1.62c-.66,2,1.27,4.12,3.63,4.25,3.92.21,6.54-3.66,5.39-7.91-1.2-4.48-4.68-6.11-8.74-6.88a39.61,39.61,0,0,0-5.1-.26c.48-.58.72-1.19,1.1-1.3,5.76-1.64,13.29,3,14.39,8.81.82,4.33-1.51,8.12-5.43,8.88-2.28.44-4.31,0-5.77-1.85a4.76,4.76,0,0,1-.11-6.11c-2.68-1.07-5.66.4-7.77,3.89l1.26.82a10.56,10.56,0,0,1,5.13,8.61,5.72,5.72,0,0,0,1.23,3.24,26.08,26.08,0,0,1,2.44,4.35c.51,1.13.87,2.34-.56,3.37a2.3,2.3,0,0,0,.05,2.23,2.81,2.81,0,0,0,2.39.66,3.92,3.92,0,0,0,2.31-5,70.13,70.13,0,0,0-2.9-6.76,11.72,11.72,0,0,1-.48-1.69l.5-.21a2.29,2.29,0,0,1,.66.34c4.7,5.12,5.75,16.22.68,21.71-1.41,1.51-3,2.75-5.14,2.74-.88,0-1.91,0-2-1.47l1.89-.29a3.46,3.46,0,0,0-3.83-4.56,5.36,5.36,0,0,0-4.7,3.27,6.26,6.26,0,0,0,1.07,6.59,5.91,5.91,0,0,0,5.09,2.32,13.23,13.23,0,0,1,1.77.16l.15.59-1.44.94c3.63,3.63,12.19,1.93,16.9-3.5-1.39-1.71-2.58-3.51-1.66-5.95s2.6-3.26,5.07-3.44c1.22-3.5.71-6.94-.44-10.34-.28-.82-.76-1.57-1-2.4a5.36,5.36,0,0,1,0-1.5l.51-.18a8.41,8.41,0,0,1,1.08,1.47,19.14,19.14,0,0,1,1.8,12.07,7,7,0,0,0,.35,2.22c.09.55.16,1.11.28,2a6.7,6.7,0,0,1-1.11-.56c-1.46-1.32-2.82-1.48-4-.46a3.61,3.61,0,0,0-.63,4.73A4.67,4.67,0,0,0,148.3,239a9.31,9.31,0,0,0,6.25-6.28,16.22,16.22,0,0,0,.36-8.52,27.12,27.12,0,0,0-4.16-10.34,13,13,0,0,0-5.53-5.09c-.39-.17-.61-.71-.9-1.08l.49-.67c1.11.57,2.51.88,3.29,1.75,3,3.29,6.37,6.43,8.51,10.25,3.4,6,3.38,12.8,1.71,19.5a4.12,4.12,0,0,1-.45.82c-.31-.06-.58,0-.68-.14-1.17-1.29-2.44-1.58-3.86-.42a4.37,4.37,0,0,0-.73,5c1.13,2.08,3.83,2.93,6.52,2a8.34,8.34,0,0,0,5.49-6.16c.08-.25.18-.5.27-.75a.93.93,0,0,1,.13-.15c4-1.31,5.85-4.55,6.1-10.51-2.2-.31-4.11-1.08-4.55-3.63a4.56,4.56,0,0,1,2.5-5c.09-4-2-6.9-4.53-9.55-.5-.52-1.5-.88-.69-1.88,3.78,1,7.25,7.6,6.65,12.65a5.72,5.72,0,0,0-1.15.55c-1.1.8-1.79,1.78-1.21,3.25a2.61,2.61,0,0,0,3.12,1.86,5.71,5.71,0,0,0,4.54-5.63A23.25,23.25,0,0,0,175,214c-1.32-4.68-3.36-9-7.48-12-.3-.22-.42-.69-.69-1.14,1.68-.55,2.52.41,3.32,1.26A27.19,27.19,0,0,1,177.43,218c0,.33.08.66.13,1a.76.76,0,0,0,.09.18c13.49,1.15,20.57,14.5,20.94,24.21.14,3.79-.75,7.24-2.34,7.93a2.34,2.34,0,0,1-.3-.67,3,3,0,0,0-2.66-3.06c-1.79-.31-3.45-.11-4.69,1.49a7.35,7.35,0,0,0-.39,8.45,6.73,6.73,0,0,0,7.95,2.62c1.76-.58,3.35-1.38,5.29-.42a3.79,3.79,0,0,0,2.69-.28,10.78,10.78,0,0,0,6.4-7.66c-2.71-1.92-3.41-3.46-2.21-4.9.69-.84,1.55-1.26,2.62,0l-1.62,1.35c.57,1.52,1.71,2.08,3,1.28a6.44,6.44,0,0,0,2-2.14c1.62-2.78,2.1-6.9,1.48-11.73-.67.68-1.22,1.31-1.85,1.85a5.06,5.06,0,0,1-5.24,1,4.19,4.19,0,0,1-3.12-4.17c.14-2,1.28-3.13,3.77-3.72,1.59-3.73-1-6-3.6-8.46,2.41-.4,3.22.94,4.09,2,2.29,2.84.84,6.27,2,9.72-.83-.35-1.17-.38-1.27-.55a1.59,1.59,0,0,0-2.66-.51,2.28,2.28,0,0,0-.13,3.24,3.4,3.4,0,0,0,4.7.52,10,10,0,0,0,2.67-3.85,11,11,0,0,0-4.68-13.09c-.48-.31-.93-.66-1.39-1l.05-.52c.46-.07,1.06-.37,1.36-.18,7.94,4.89,15.39,10.25,18.38,19.74,1.09,3.49,1.28,7-.48,10.33a23.25,23.25,0,0,0-1,2.54c-.49-.33-.67-.38-.7-.48-.62-1.93-1.47-2.58-2.84-2.16a3.08,3.08,0,0,0-1.93,4,3.9,3.9,0,0,0,5,2.61,12.93,12.93,0,0,0,4.85-3.3,16.22,16.22,0,0,0,1.05-19.74c-1.08-1.6-2.41-3-3.61-4.55-.33-.41-.63-.85-.95-1.28l.49-.61a8,8,0,0,1,1.88,1.22c8.48,9.58,11.69,20.49,8.26,33.07a16.55,16.55,0,0,0-.28,3.24c0,.77.16,1.67-.8,1.28-.84-.84-1.54-2.07-2.55-2.44-2-.72-4,1-4.12,3.2-.27,3.61,3.33,6.07,7.11,4.85a11.85,11.85,0,0,0,6.18-5.18,25.28,25.28,0,0,0,4.07-17.39,2.37,2.37,0,0,1,.48-1.61c1.87,3.06,1,6.36,1,9.72a6.48,6.48,0,0,0,4-4c2.49-6.3,2.07-12.58-.46-18.75A16.13,16.13,0,0,0,245,223.1a5.1,5.1,0,0,1-1-.82c2.75-2.69,12.28-1.94,17.8,1.27,5.81,3.38,11,12.23,9.79,16.77-.73-.12-1.54-.52-2.18-.33-1.5.44-1.6,2.73-.27,3.78a4.53,4.53,0,0,0,6.22-1.17,7.4,7.4,0,0,0,1.25-3.31c.61-6-3.83-13.92-9.29-16.62-1-.47-2-.71-3-1.13a12.25,12.25,0,0,1-1.49-.86L263,220a6.49,6.49,0,0,1,1.59,0c4.11,1.06,7.81,3.05,9.69,6.89,3.64,7.42,9.84,10.29,17.56,11.1a15.7,15.7,0,0,1,11.79,6.75c2.25,3.21,2.36,9.85-.11,12.42a18.71,18.71,0,0,1-3.14,2.15l-1-1.94c-1.28-.38-2.3-.16-2.64,1.28a2.07,2.07,0,0,0,1.64,2.59c3.65,1.15,6.82,0,9.71-2.24.36-.28.67-.63,1-.95l.05,0-.07,0,1.42-4c1.92.89.18,2.3.65,3.31,2.84-1.81,3.14-3.11,1.72-7.83.42.06.85,0,1.09.17,3.1,2.29,6.69,2.84,10.39,3.13,4.52.36,9.08.52,13.54,1.24A15.56,15.56,0,0,1,348,259.78c1.69,2.16,2.59,4.53,1.36,7.26-.4.87-.91,1.6-2.24,1.3l.37-1.8a2.12,2.12,0,0,0-2.91.09,3.25,3.25,0,0,0,.82,5.24,5.12,5.12,0,0,0,6.1-.92c3.13-3.18,3.5-8.29.42-11.16a4.17,4.17,0,0,1-.61-1c1-1.13,1.94-.43,2.48.15a49.52,49.52,0,0,1,4.44,5.36,42.79,42.79,0,0,1,2.21,4.26c1.79,3.28,4.38,5.27,8.32,5.3a46.76,46.76,0,0,1,6.77.67,9.35,9.35,0,0,1,3.56,1.25c3.36,2.24,6.88,2.09,10.35.69,6-2.42,12-4.69,17.66-8,8.7-5.1,19.84-3.42,26.12,3.61a13.58,13.58,0,0,1,1.21,1.59q5.61,8.66,11.19,17.31h-2l-.4-.39a5.74,5.74,0,0,0-.3-.72c-2.94-4.62-5.86-9.26-8.85-13.85a22.59,22.59,0,0,0-2.91-3.81c-3.91-3.91-8.73-5.34-14.52-5,.68.72,1.09,1.23,1.57,1.66a49.85,49.85,0,0,0,13.28,8.52c.69.3,1.86.29,1.58,1.62-3.15.44-11.08-4.53-18.47-11.59-2.62.48-5.28,1-8,3.17.83.57,1.48,1,2.16,1.48,3.87,2.49,7.67,5.08,11.63,7.41,3.22,1.89,6.66,3.4,9.95,5.17,4.18,2.25,8.2,4.8,12.9,5.9v.4h-4.41c-6.08-3.21-12.19-6.34-18.2-9.66-4-2.19-7.83-4.58-11.65-7a28.7,28.7,0,0,1-3.5-3.07l-8.6,4a143.43,143.43,0,0,1,26.26,12.56,2.84,2.84,0,0,1-2,0c-2-.86-3.85-1.87-5.79-2.75q-9.56-4.36-19.15-8.65a8.2,8.2,0,0,0-2-.31l-.09.52c.69.38,1.37.79,2.08,1.13q10,4.8,20.08,9.57c.78.37,1.3.66.58,1.73a16.41,16.41,0,0,1-2.22-.71c-6.92-3.34-13.85-6.66-20.72-10.11a4.39,4.39,0,0,0-3.91-.33c-3.33,1.26-6.88,1.9-10.09,0a18.61,18.61,0,0,0-10.18-2.46c-5.56.11-9-2.62-11.23-7.45-.76-1.67-1.72-3.24-2.59-4.86a13.06,13.06,0,0,1-2.57,8.33c5,4.33,10.33,7.75,16.76,9.33a54,54,0,0,1,10.75,3.78c4.65,2.28,9.31,4.35,14.46,5.15.81.13,1.24.43,1,1.3h-3.62c-3.63-1.44-7.26-2.92-10.91-4.34s-7.15-3-10.86-4.05a42.23,42.23,0,0,1-12.32-5.17c-2.21-1.49-4.29-3.15-6.5-4.79a7.2,7.2,0,0,1-7,.7,4.69,4.69,0,0,1-2.72-5.93c.84-2.52,2.48-3.33,5.38-2.67a3.22,3.22,0,0,0,.66,0,7.27,7.27,0,0,0-3-5.47,20.11,20.11,0,0,0-10.68-4.18,2.58,2.58,0,0,0-3,1.86,8.1,8.1,0,0,0-.2,3.69c.83,3.76,3.3,6.5,6,9,1,.93,2.09,1.8,3.12,2.68-.64,1.38-1.33.9-1.94.31a59.21,59.21,0,0,1-5.68-5.63c-2.92-3.64-4.66-7.67-2.05-12.26l-13.51-1a8.72,8.72,0,0,0-.23,2.36,17.21,17.21,0,0,0,1,4.07c4.42,10.92,12.34,18.46,23.05,23,3.72,1.59,7.74,2.48,11.64,3.65.81.24,1.78.24,1.27,1.59a4.6,4.6,0,0,1-.86.06c-13-2.58-24.15-8.19-32-19.28-3.39-4.8-6.27-9.85-5.44-16.12,0-.18-.21-.39-.51-.9a11.91,11.91,0,0,1-.83,3.12c-1.35,2.14-.85,4.16,0,6.27,4,10.11,11.1,17.32,20.83,22a17.9,17.9,0,0,1,1.8,1.12l-.25.63a6.31,6.31,0,0,1-1.77-.25c-11.5-5.34-19.49-13.79-22.94-26.22a9.94,9.94,0,0,0-2.84.63c-2,1.18-3.83,2.55-5.88,3.94l1.22,2.67h-.61v-.07l0,.06h.54a2.75,2.75,0,0,1,.66.42c2.11,2.49,4.21,5,6.29,7.5a3.44,3.44,0,0,1,.39,1l-.27.37c-.52-.22-1.2-.3-1.52-.68-2.25-2.72-4.56-5.39-6.57-8.28-1.23-1.76-2-3.4-4.7-3.55-2.89-.16-4.1-2.31-3.48-4.92.46-2,2-2.42,3.72-2.57-.09-5.8.52-7.56,3.22-9.47-1.84-3.36-3.47-3.84-7-2.05l-.45.05-.45.45-.07.16,0-.19.46-.45.5,0a25,25,0,0,0-1.66,4.26c-1.44,7.17.58,13.74,4.59,19.52,2.62,3.79,6.2,6.93,9.37,10.34.56.6,1.5,1.08.22,2.16-5.12-4-9.63-8.43-12.24-14.51v0A23.63,23.63,0,0,1,292,251.1c.26-4,1.18-8,5.88-9.61a5.93,5.93,0,0,0-8.23,2.9c-1.46,3-1.41,6.11-.86,9.23a38.21,38.21,0,0,0,6.46,15.2c6.08,8.82,13.78,15.41,24.36,18.16a7,7,0,0,1,1.28.65l-.12.7a8.51,8.51,0,0,1-1.75,0,36.91,36.91,0,0,1-16.33-8.61c-8.2-7.24-13.52-16.15-15.28-27-.82-5.06-.34-9.75,4.58-12.9-3.9-1.14-7.06.26-8.12,3.91a17.45,17.45,0,0,0-.6,6.7c1,8.76,5,16.26,10.5,23,1.54,1.9,3.26,3.66,4.92,5.52-1.1,1.39-1.77.21-2.29-.32a54.09,54.09,0,0,1-12.59-19.35,10.63,10.63,0,0,0-.86-1.49c-.32-1.62-.68-3.24-1-4.87-.88-5.29-1.06-10.42,3.62-14.2L278,235c0-.06-.07,0-.06.16,0,.46.14.92.19,1.38.35,3.59-.19,6.81-3.64,8.86a1.66,1.66,0,0,0-.71.9,11.91,11.91,0,0,0,.63,8.76,2.28,2.28,0,0,0,3.35,1.09c2.7-1.61,3.89-1.24,5.27,1.63.29,3.85-2.81,4.31-5.95,5.45a17.25,17.25,0,0,1,2.05,1.53c2.94,3,5,6.45,4.75,10.86s-3.4,7.06-7.43,6.58c-2.93-.36-4.85-3.07-3.67-5.6.51-1.1,1.84-1.82,2.93-2.83-2.71-4.5-8.36-4.68-12.29-7.65-1.4,2.59-1.54,5,.1,7.29,2,2.82,4.08,5.6,6.11,8.41.38.54.69,1.12,1,1.69l-.79.51A35.65,35.65,0,0,1,261.05,272a16.36,16.36,0,0,1-2,1.3c-2.41,1.05-3.09,3.24-1.57,5.35a34.94,34.94,0,0,0,9.95,9.2,8.77,8.77,0,0,1,1.32,1.27l-.58.65c-5.17-2.25-8.91-6.28-12.47-10.77l-1.38,2.12a32.42,32.42,0,0,0,9.07,8c.82.47,1.54.92.84,2h-.81l-10.22-8a44.84,44.84,0,0,1-5.55,3.26,7.22,7.22,0,0,1-8.4-2,5.32,5.32,0,0,1,.27-7.26c2.09-1.8,4.53-1.48,6.62.88.07.07.23.07.75.22.5-1.18,1.66-2.57,1.4-3.61a69.77,69.77,0,0,0-3.09-8.35c-.62.64-1.2,1.26-1.81,1.85-2.68,2.53-5.69,4-9.47,2.89a5.94,5.94,0,0,1-4.23-5.71c-.05-2.66,1.12-4.61,3.47-5.21A16.51,16.51,0,0,1,237,260a27.67,27.67,0,0,0,.3-18.66c-.77,6.36-3.17,11.68-8.58,14.49-.51,2.41-.64,4.53-1.44,6.34a7.55,7.55,0,0,0-.74,4.21,27.88,27.88,0,0,0,10.58,19.14c2.76,2.16,6,3.72,9,5.54H242.5c-5.68-3.09-10.62-7-13.61-12.89-1.71-3.35-2.83-7-4.13-10.26a18.43,18.43,0,0,1-5.24,9.92,88.09,88.09,0,0,0,6.7,7.31,95.12,95.12,0,0,0,8.25,5.92h-3.21a3.07,3.07,0,0,0-.53-.55c-5-3.17-9.28-7-12.18-12.07-2.49-.14-4.31.64-5.52,2.84a9.42,9.42,0,0,1-2.38,2.42c-3.12,2.58-7.11,3.09-10.06,1.35-3.13-1.83-4.32-5.87-2.27-8.4.82-1,2.2-1.61,3.43-2.47-2.35-3.64-4.39-7.67-4.85-12.37-.61.05-1.07.05-1.52.12a8.33,8.33,0,0,1-9.86-9c.27-4.33,3.58-7.38,7.66-6.89a19.62,19.62,0,0,1,3.62,1.23,21.67,21.67,0,0,0-3-15,2.2,2.2,0,0,0-1.69-.65,9,9,0,0,0-6,2.85c-2.94,2.94-4.11,6.68-4.65,10.65-1.38,10.17,1.34,19.47,6.32,28.21A47.61,47.61,0,0,0,206,291h-3.21c-.42-.32-.82-.65-1.25-1-15.2-10.86-22.74-25.52-21.59-44.3.29-4.88,1.73-9.6,5.69-12.86,1.82-1.5,4.21-2.31,6.35-3.44-1.32-2.39-2.08-2.75-4.82-1.92-3.51,1.05-5.72,3.6-7.34,6.71-3.38,6.53-3.7,13.43-2.28,20.51.16.81.23,1.64.34,2.46l-.54.23c-.29-.4-.74-.76-.85-1.2-1.88-7.34-1.74-14.58,1.41-21.57,2.06-4.57,5.17-8.07,10.47-9-3.84-4.29-6.93-4.21-10.28-1.52a18.16,18.16,0,0,0-4.8,6c-3.57,7.27-3.88,15.05-2.84,22.94a51.19,51.19,0,0,0,5.48,17.28c.35.66,1,1.39-.5,2.22a53.13,53.13,0,0,1-6.47-33.88c-1.75.74-3,1.48-3.69,3.38a8.33,8.33,0,0,1-6.15,5.28,28.11,28.11,0,0,1-3.07.46,27.39,27.39,0,0,0,1.23,10.47,51.24,51.24,0,0,0,26.25,31.18c.52.26.79,1,1.18,1.49h-2c-.08-.09-.15-.23-.26-.29-9-4.53-15.74-11.32-21-19.79-4.32-6.91-7-14.22-6.95-22.45a5,5,0,0,0-.65-1.64c-1.68,2.71-3.29,4.82-6.2,5.62-2.31.63-3.27,2.22-2.51,4.48,2.06,6.13,4.86,11.86,9.41,16.59a8,8,0,0,1,.84,1.54c-2,.11-2.74-1.13-3.53-2.12a50.07,50.07,0,0,1-8-14.75c-.17-.49-.36-1-.47-1.26l-7.43,4.77a41.64,41.64,0,0,0,1.91,4.78,58.13,58.13,0,0,0,15.29,17.84c.69.56,1.33,1.18,2.09,1.85-1.45.61-1.47.64-2.63-.3A60.35,60.35,0,0,1,139,271.5c-2-3.12-3.49-6.55-5.26-9.93l-3.47-1.11a70.7,70.7,0,0,1-7.23,1.89,8,8,0,0,1-9.28-5.83c-.94-3.74,1.75-7.22,5.32-6.88,2.47.24,3.43,1.39,4.08,4.82,3.29-.28,8.31-4.59,9.17-7.9l-1.2-.08c-2.87-.16-5.56-.69-7.41-3.25a3.79,3.79,0,0,0-1.53-.85,8.23,8.23,0,0,1-4.1-10.8,7.13,7.13,0,0,1,7.37-3.74c2.6.43,4,2.08,4.34,5.21,0,.09.16.16.37.35A11.89,11.89,0,0,0,135,225a3.72,3.72,0,0,0-.67.22c-2.15,1.25-3.83,1.26-5.16,0s-1.42-2.81-.18-5.23c.25-.51,0-1.26,0-2.16-.91.37-1.46.56-2,.8-12.16,5.51-18,18.49-16.78,30.85,1,9.81,5.49,18,11.65,25.5,5.14,6.24,11.36,11.29,17.87,16h-2.81c-2-1.63-4.08-3.23-6.07-4.91-8-6.74-14.91-14.46-19-24.26-5.24-12.69-4.75-24.9,3.67-36.26a1.28,1.28,0,0,0,.19-.52l-5.18-1.57c-.91,1.46-2,3.12-3,4.84a6.43,6.43,0,0,0-.79,5,11.45,11.45,0,0,1-1.8,9.92,3.55,3.55,0,0,0-.29,2.11,52,52,0,0,0,11.62,30.18,54.89,54.89,0,0,0,12.59,11.4c.6.4,1.59.67.8,2a7.84,7.84,0,0,1-1.37-.55A54.83,54.83,0,0,1,103.08,245a4.13,4.13,0,0,0-.73,0c-3,.63-4.7.07-5.71-1.92s-.61-3.75,1.49-5.84a2,2,0,0,0,.58-1.52c-.23-1.35-.67-2.66-1-4l-.46,0a14.57,14.57,0,0,0-.58,1.42,35.31,35.31,0,0,0-.85,17.44c1.53,7.82,5.39,14.46,10.47,20.47.6.71,1.12,1.5,1.67,2.25l-.5.55a5.85,5.85,0,0,1-1.58-.94c-5.75-6.54-10-13.85-11.56-22.55-.47-2.72-.65-5.49-.92-7.86l-7.05,2.55a16.37,16.37,0,0,0,.69,7A50.33,50.33,0,0,0,108,281.68c.65.44,1.22,1,1.82,1.49l-.34.53c-1.59.41-2.61-.88-3.67-1.68C93,272.43,85.44,260,84.42,243.63c-3.89-3.55-3.33-7,1.69-8.75a15.5,15.5,0,0,0-4.21-8.71c-.68.48-1.24.83-1.75,1.24-7.44,6.12-9.72,14.23-8.48,23.39,1.35,10,6.08,18.59,12.26,26.42A63.79,63.79,0,0,0,99.17,291H96.36A66.36,66.36,0,0,1,84,279.67c-7.45-9-12.85-19-13.87-31-.66-7.7,1.19-14.6,6.65-20.29,1.13-1.18,2.42-2.2,3.69-3.35a8.78,8.78,0,0,0-6.18,1.09c-1.75.88-3.47,1.77-3,4.29a5.7,5.7,0,0,1-.26,2.18c-.46,2.07-1.2,4.06-3.22,5.07a53.78,53.78,0,0,1-5.11,1.95c-.53,2-1.27,4.38-1.77,6.77A34.31,34.31,0,0,0,65.39,272a42.32,42.32,0,0,0,12,12.52c.63.44,1.73.71,1,1.9-2.71-.39-9.06-5.86-12.72-11.18-7.82-11.38-8.87-23.61-4.12-36.41a4.52,4.52,0,0,1-2.18-4.2c.16-1.93,1.44-2.66,3.29-3l-1.58-3.54a22.56,22.56,0,0,0-7,7.55A34.74,34.74,0,0,0,50,255.76a48.16,48.16,0,0,0,12.25,28.78c2,2.35,4.51,4.33,6.78,6.48H66.65a87.3,87.3,0,0,1-7-7.1A48.75,48.75,0,0,1,49,246.81c.87-7.8,4-14.33,10.25-19.27a3,3,0,0,0,.44-.57c-.83-1.24-1.75-1.06-2.82-.48-5.78,3.12-9.07,8.22-11,14.24-4.05,12.78-2.31,24.94,4.27,36.51.4.7.72,1.46,1.08,2.19l-.48.45c-.45-.3-1.06-.49-1.31-.9a46.63,46.63,0,0,1-7.08-28.1c.12-1.95.41-3.89.62-5.86a18.55,18.55,0,0,1-2.49.63c-2.3.23-3,.7-3.59,2.9-2.9,10.21-1.46,20,3.17,29.37,2.49,5.05,6.17,9.18,10.12,13.1H47.78c-.52-.6-1-1.23-1.55-1.81-8.69-9.38-13-20.37-12.15-33.21.14-2.17.49-4.33.75-6.52l-6.64,1.44a52.63,52.63,0,0,0-1.64,6.86C25.1,270.37,28.22,281.59,36.94,291H34.53a9.71,9.71,0,0,0-.69-1.17,42.33,42.33,0,0,1-9-22.76,37.89,37.89,0,0,1,1.93-16.55L23,249c-.27.34-.49.59-.68.86C19,254.69,17.67,260.22,17.27,266a16.22,16.22,0,0,1-.41,2l-1-.26a32.2,32.2,0,0,1,5.92-20l-1.62-2.31a22.56,22.56,0,0,0-7.29,10.64c-4,11.88-3.13,23.52,2,34.9H13.25a9.65,9.65,0,0,1-.67-1.22,49,49,0,0,1-2.72-28.52c1.3-6.56,3.84-12.51,9.18-16.91a1.47,1.47,0,0,0,.56-1,9.7,9.7,0,0,1,1.83-7.26,2.73,2.73,0,0,0-1.13.28c-6.28,2.9-10.56,7.84-13.83,13.76C1.19,259.73-.25,270.1.54,280.82c.25,3.43,1.23,6.8,1.87,10.2H.8l-.8-2.4Zm155.75-42.11-.17-.29.2.26c1.14,5.34,1.84,10.64-1.32,15.73l3,.34a64.89,64.89,0,0,0,.15-8.42A55.87,55.87,0,0,0,155.75,220.81ZM110.44,216c-3.53,1-5.76,3.56-8,6.05l3.17,6.3c1.41-2.18,2.76-4.29,4.19-6.51a5.56,5.56,0,0,1,.66-5.88v-.06Zm166.82,60.82c-1.34-.94-2.5-1.26-3.21.4a2.56,2.56,0,0,0,1.9,3.23,4.84,4.84,0,0,0,1.77.21,4.74,4.74,0,0,0,4.47-4.6,13.54,13.54,0,0,0-.86-5.44c-1.69-4.14-5-6.83-8.89-8.89a10.3,10.3,0,0,1-5.64-6.66,15.87,15.87,0,0,1-.17-2.94l.84-.14a12.86,12.86,0,0,1,.65,2c.73,4.18,5,7.66,9.23,7.28a6.69,6.69,0,0,0,2.95-1.06,2.53,2.53,0,0,0,1.07-1.91c-.05-.66-.83-1.26-1.29-1.87-2.95,2.11-4.81,2.15-6.46.15a6.11,6.11,0,0,1-1.38-2.83c-.34-2.47-.41-5-.59-7.53-3.22-.58-4.78-1.74-5-3.81s.77-3.33,3.44-4.43c-2.43-12.42-14.26-17.28-22.3-15.36a32.79,32.79,0,0,1,2.72,2.35c5.87,6.23,7.34,13.78,6.23,21.94-.84,6.13.62,11.37,5,15.77a23.7,23.7,0,0,0,8.15,5c2.69,1.09,5.24,2.45,6.92,4.92C277.57,273.75,278.33,275.07,277.26,276.85ZM226.5,256.43c-4.79-1-6.82-3.11-6.07-6.6a4.06,4.06,0,0,1,1.76-2.7c1.47-.61,3.22-.58,5.17-.86,3-5.41-3.26-18.75-10.77-22.3.19,2.15.42,4.44.58,6.74.09,1.38,0,2.77.09,4.15a45.71,45.71,0,0,1,.25,6.39c-.39,4-1,8.05-5.56,10.28a39.64,39.64,0,0,0-.22,4.17c.16,3.86.77,7.73.58,11.57-.24,4.8-2,9.14-6,12.21a10.34,10.34,0,0,1-2,.91,9.27,9.27,0,0,0,0-2.81c-.56-1.42-1.8-1.68-3.17-1.24a3.38,3.38,0,0,0-2.23,3.82,5.19,5.19,0,0,0,3.58,4c2.94,1.09,5.38-.15,7.55-2a20.81,20.81,0,0,0,6-9.35c.27-.76.66-1.48,1-2.22l.63.19c.94,2.32-1.52,4.15-1.39,6.69,6.43-2.84,6.82-8.6,7.65-14.11C226.61,261.42,227.27,259.73,226.5,256.43Zm-76.17-16.14c-1.51.08-3.21.1-4.9.29a3.54,3.54,0,0,0-1.85.85,20.37,20.37,0,0,1-7.52,4.46,4.29,4.29,0,0,0-2,1.69c-2.71,4-5.83,7.52-10.8,8.71a25.77,25.77,0,0,1-3.39.28,8.59,8.59,0,0,1,.79-1.31c1.23-1.26,1.13-2.69-.29-3.63a3.19,3.19,0,0,0-4.52,1.09,5.09,5.09,0,0,0,1,6.22c2.07,2,4.6,2.28,7.28,1.77a21.72,21.72,0,0,0,10.27-5.57c.63-.55,1.21-1.33,2.34,0l-5,4.31c2.3.92,4.24.29,6.12-.65,2.83-1.41,4.83-3.73,6.71-6.2a4.26,4.26,0,0,1,2-1.35,7.18,7.18,0,0,0,4.93-4.33,3,3,0,0,0,0-1.67C151.18,243.52,150.72,241.84,150.33,240.29Zm94.23,41.09c.43-2.52-.13-3.67-1.58-3.95a3,3,0,0,0-3.38,2.42,4.94,4.94,0,0,0,.53,3,5.27,5.27,0,0,0,5.91,2.33c4-.9,6.37-3.68,8.19-7.09A23.39,23.39,0,0,0,256.5,269a9.44,9.44,0,0,1,.53-1.72l.75.13v4.8c3.29-1.84,3.44-4.67,3.83-6.94a54.61,54.61,0,0,1-4.25-5.8,49,49,0,0,1-2.49-6.13l-4.56,3.53c.34,4.29.94,8.45.94,12.62a14.25,14.25,0,0,1-4.58,10.75A11,11,0,0,1,244.56,281.38Zm-38.26-4.09c4.74-3.44,5.8-15.13,3.86-20.14-1.73,1.2-3.36,2.86-5.34,3.56s-4.18.4-6.31.54C198.45,265.76,201.33,271.77,206.3,277.29ZM90.83,220.23l6.28,8c2.27,2.88,3.52,6.08,2.87,9.66-1,1-2,2-2.25,3.15a3.07,3.07,0,0,0,5.69,1.36,9.39,9.39,0,0,0,2-4.42c.41-7-2.32-12.88-7.09-17.86a2.4,2.4,0,0,0-1.71-.61C94.81,219.63,93,219.94,90.83,220.23Zm-44.36,15A24.32,24.32,0,0,1,56.33,225a16.62,16.62,0,0,0-13.25,1.93C44.29,229.86,45.35,232.47,46.47,235.2ZM249.29,272a26.86,26.86,0,0,0-.5-12.48C246.25,264.15,246.36,267.22,249.29,272Zm52.16-15c2.57-1.38,3.49-6.85,1.53-9.16C300.59,248.92,300,252.64,301.45,257.05Zm-200-36.28a25.07,25.07,0,0,1,10.16-7.26c-5-.44-8.36,2.84-12.44,5.09ZM71.11,226l6.1-2.72v-.48l-8.2-1Zm55.16-11.93c-.29,1.35-.48,2.26-.76,3.54l2.64-1.23Zm53.46,7.29c-2.25-.59-2.25-.59-2.44,1.2ZM95.92,230l.34-.25-.4-.57-.29.26Z" style="fill: #fff"/>
    <path d="M411.12,217.56a11.86,11.86,0,0,0-6.08-4.35c-5.49-1.92-10.26-4.91-13.68-9.69a18.86,18.86,0,0,1-2.84-5.69c-1.51-5.2,1.62-8.61,7-7.87a18.78,18.78,0,0,1,8.79,3.68q7.68,5.79,15.28,11.71c6.66,5.15,13.09,10.63,20,15.42,4.07,2.82,8.82,4.68,13.35,6.79A94,94,0,0,0,464,232.12a30.9,30.9,0,0,0,8.39,1,63.09,63.09,0,0,1-7.39-3.33,88.54,88.54,0,0,1-7.36-5.5c-2.67-2-5.36-4-8-6-3.16-2.39-5.57-5.24-5.59-9.46a4.55,4.55,0,0,1,3.45-4.82,9.38,9.38,0,0,1,7.77.61c3.1,1.7,6.07,3.64,9.15,5.39a18,18,0,0,0,9.37,2.56,20.52,20.52,0,0,1,10,2.41c4.83,2.49,10.05,3.58,15.37,4.3a9.45,9.45,0,0,0,2.21-.26v-.53c-1.5-.3-3-.53-4.52-.9a45.37,45.37,0,0,1-6.55-1.84c-5.09-2.13-9.39-5.58-13.64-9-2.12-1.71-1.56-4.05,1-5.27a14.57,14.57,0,0,1,10.76-.54,33.57,33.57,0,0,1,6.35,2.43c4.79,2.59,9.83,2.7,15,2,4.8-.67,9.56-2,14.51-.95a17.26,17.26,0,0,0-10.87-1.92,13.81,13.81,0,0,1-8.17-1.25c-3.4-1.56-6.82-3.08-10.25-4.59-3.19-1.41-5.93-3.24-7.48-6.59-.66-1.43-1.89-2.58-2.76-3.92-2.34-3.59-.68-6.95,3.62-7a16.86,16.86,0,0,1,5.25,1c2.22.7,4.38,1.62,6.53,2.52a9.09,9.09,0,0,1,3.14,1.72c2.69,2.92,6.24,3.74,9.86,4.41,7.44,1.39,14.92,2.41,22.52,1.91.73-.05,1.46-.16,2.19-.27A3.38,3.38,0,0,0,539,190a49,49,0,0,1-14.78-3.3,35.38,35.38,0,0,1-5.19-3.25c-1.24-.79-2.46-1.6-3.71-2.36s-2.37-1.24-3.49-2c-1.27-.83-2.07-2-1.53-3.58s2-1.79,3.49-1.74c.72,0,1.43.31,2.16.4a38.68,38.68,0,0,0,6.56.7c5.42-.3,10.43,1.06,15.44,2.89a63.34,63.34,0,0,0,7.67,1.8l.18-.57c-.22-.21-.46-.42-.68-.65-2.69-2.76-2-6.4,1.71-7.57,1.9-.61,4.06-.46,6.11-.52a9.22,9.22,0,0,1,2.55.5c4.43,1.17,8.37.07,12.26-2.18,5.22-3,9.48-7.18,13.77-11.28,8.94-8.55,17.57-17.42,26.69-25.77a107.69,107.69,0,0,1,32.49-20.68c.43-.17.87-.32,1.35-.5.85,1.44-.23,1.69-1.14,2.06a101.14,101.14,0,0,0-18.31,9.9c-8.65,5.79-16.2,12.84-23.6,20.14-10,9.86-20.27,19.43-30.64,28.89-7.75,7.07-15.93,13.68-23.76,20.66-14.16,12.63-30.3,22.15-47.19,30.5-12.16,6-24.31,12.06-36.73,17.5-8.24,3.61-17,6.07-25.42,9.24-4,1.49-7.82,3.44-11.73,5.16a11.16,11.16,0,0,1-1.53.43l-.06-.05.07.05a29.3,29.3,0,0,1-4.09,2.34c-7.68,2.92-15.39,5.74-23.1,8.55a9.44,9.44,0,0,1-5.71-.08,12.43,12.43,0,0,0-5.27-.36c-9.09,1.86-17.13-.39-24.27-6-4.69-3.69-9.69-6.76-15.53-8.06a106.09,106.09,0,0,0-11.28-1.49c-3.31-.37-6.7-.33-9.94-1a20.09,20.09,0,0,1-12.15-7.61,31.61,31.61,0,0,0-15.26-10.88c-7.77-2.62-13.26-8.22-17.06-15.33a46.44,46.44,0,0,1-5.84-21.47c-.08-6.52,1.75-12,8.55-14.85a12.46,12.46,0,0,0-7.46-2.86A24.48,24.48,0,0,0,258,180.05c-3.07,2-6.28,3.73-9.3,5.51,1.32.59,3.08,1.32,4.78,2.17a21.73,21.73,0,0,1,8.08,6.75A9.12,9.12,0,0,1,263,203.4a5.65,5.65,0,0,1-4.83,3.71,6.14,6.14,0,0,0-2.48.94c-3.14,2.2-7,2.3-9.47.14a5.74,5.74,0,0,1-.39-8.65c.18-.19.34-.39.64-.73a10.72,10.72,0,0,0-8.07.15,41.8,41.8,0,0,1,1.86,4.6,12.79,12.79,0,0,1-.45,8.45,5.7,5.7,0,0,1-3.38,3.49c-2.46.88-4.92-.12-5.67-2.29s.19-3.74,2.85-4.8c.27-3.64-2-5.81-7.74-7.25a10.46,10.46,0,0,1,2.2,8.93c-.72,4.27-4.71,6.67-8.48,5.16-1.51-.6-2.47-1.56-2.37-3.3s1.12-2.47,2.68-2.74c.19,0,.37-.11,1-.29a14.93,14.93,0,0,0-1.41-2.95,11.37,11.37,0,0,0-8-4.14c-1.05-.14-2.1-.34-3.15-.51l0-.58c.3-.19.6-.54.9-.54,4.54,0,8.6,1.24,11.55,4.94,1.66,2.09,1.72,4.07.39,5.81l-.27-.37c-.75.46-2,.79-2.15,1.4-.3,1.23.82,1.79,1.95,2.05a4.74,4.74,0,0,0,5.67-3.55,8,8,0,0,0-3.5-9.55,12.13,12.13,0,0,1-1.09-1c.54-.29.9-.66,1.24-.64,3.52.21,6.9.87,9.71,3.23a7,7,0,0,1,2.1,7.6c-.11.07-.23.2-.33.19-1.21-.11-2.36-.17-2.45,1.51a2.42,2.42,0,0,0,2.61,2.43c1.52,0,3.06-1.24,3.81-3.11a10.9,10.9,0,0,0-8.58-14.94c-1.38-.2-1.38-.2-1.74-1.24,2.32-.74,4.69,0,8.34,2.51,2.58-.33,4.8-.71,7-.87,3-.22,5.25,1.41,7.39,3.13a2.6,2.6,0,0,1-.7,4.64,3.75,3.75,0,0,1,0-1.31,1.81,1.81,0,0,0-1-2.65,2.21,2.21,0,0,0-3,.82,4.27,4.27,0,0,0,1.21,6,5.6,5.6,0,0,0,6.26.14c1.85-1.06,3.09-2.56,2.76-4.9a6.46,6.46,0,0,1,.25-1.4c2,1.15,1.21,2.72,1.08,4.23,1.92.31,2.86-.91,3.56-2.25,1.28-2.44.72-4.82-.67-7a21.41,21.41,0,0,0-9.3-7.7,27.53,27.53,0,0,0-10-2.53,30.15,30.15,0,0,1-3.11-.53l-.18-.6c.43-.23.9-.71,1.29-.65,6.58,1.08,12.14-1.09,17.4-4.94a23.8,23.8,0,0,1,19.16-4.5,12.56,12.56,0,0,1,7.28,3.93,7.38,7.38,0,0,1,1.88,6.12c-.06.46-.54.86-.83,1.29l-.44-.22a3.5,3.5,0,0,0-.2-.93c-.31-.63-.72-1.76-1-1.74a3.44,3.44,0,0,0-2.33,1c-1.12,1.4-.44,3.64,1.19,4.69a5.45,5.45,0,0,0,7.28-1.6,14.53,14.53,0,0,0,.74-1.41c3.5-1.33,4-2.37,3.26-6.26-.16-.86.21-1.82,0-2.68-.42-2-1.77-3.46-3.95-4.6-1.72,1.85-3.78,2.83-6.2,1.41-2-1.18-2.1-3.07-1.21-5.19-4.85-1.83-9.52-1.46-14.7.41.34-.9.38-1.51.67-1.68,3.36-1.95,13.18-2.26,16.43,1.15a4.48,4.48,0,0,1,.43.64,3,3,0,0,1-.4.54c-.49.4-1,.77-1.5,1.15.52.63,1,1.7,1.58,1.8a3.57,3.57,0,0,0,2.88-.65,3.74,3.74,0,0,0,.74-3.2,7.92,7.92,0,0,0-2.93-3.38,18.36,18.36,0,0,0-16-1.63,50.4,50.4,0,0,0-9.9,4.7,19.83,19.83,0,0,1-8,3c-2.82.34-5-1.19-5.29-3.67-.21-2.05,1-3.21,2.69-4-1-3-4.41-4.09-9.87-3.26q.09.63.18,1.29a5.38,5.38,0,0,1-6.67,6.05,3.73,3.73,0,0,1-2.82-2.59c-.84-2.57-1.51-3-4.2-2.61a10.88,10.88,0,0,1-1.44-.06c.44-.65.62-1.25,1-1.4a4.56,4.56,0,0,1,6,3c.31,1.21.82,2.07,2.22,2.17a3.83,3.83,0,0,0,4-2c.56-1.27.79-2.58-.44-3.66a6.06,6.06,0,0,0-.88-.56c.31-.44.43-.79.61-.83,3.78-.89,7.55-1.06,11.17.65a5.47,5.47,0,0,1,3,5.47c0,.28-.33.53-.57.9l-1.35-.75a2,2,0,0,0-.27,3.5,5.15,5.15,0,0,0,3.37.55c3.26-.77,5-4.44,4-8.06-.92-3.31-3-5.47-6.48-5.9.13-2,2-3.52,4.65-3.83,3.69-.43,5.93.72,6.74,3.52a7.27,7.27,0,0,0-.58.46c-.51.47-1,1-1.52,1.44.65.47,1.25,1.22,2,1.37,1.4.29,2.85-1,3.42-2.81a8.17,8.17,0,0,0-6.06-10.31,26.15,26.15,0,0,0-4.36-.24c-.54,0-1.08-.17-1.62-.26l0-.84c1-.17,1.92-.44,2.89-.52A9.89,9.89,0,0,1,265,155.12a8.21,8.21,0,0,1-1.31,3.09,4.31,4.31,0,0,1-6,1.1c-1.59-1.19-1.6-2.7,0-5.08-2-1.6-4.21-1.57-6.51.07,5.76,4,7.13,8,4.48,14,1.32-.87,2.31-1.55,3.33-2.17,6-3.68,12.32-5.77,19.44-4.78a16.88,16.88,0,0,1,7.94,3.11c2,1.48,3.26,3.34,3,5.47,1.61,1.8,2.93,3.35,4.33,4.84a2.75,2.75,0,0,0,1.45.85c7.57.89,13.14,4.8,17.3,11.07,1.47,2.22,3.3,4.2,4.94,6.32,4.37,5.62,10.61,8,17.17,9.59,4.14,1,8.43,1.38,12.64,2.12a30.25,30.25,0,0,1,16.53,8c2.5,2.45,3.69,4.87,3.53,7.35-.14.1-.28.28-.45.32-1.2.28-2,.86-1.63,2.23a2.11,2.11,0,0,0,3.14,1.1,4.86,4.86,0,0,0,1.86-2.82c.59-4.06-1.81-6.77-4.65-9.18-.58-.49-1.17-1-1.75-1.43l.26-.64c.58.12,1.37,0,1.72.41,1.68,1.69,3.65,3.28,4.75,5.31a26.42,26.42,0,0,0,5.94,7.23c7.81,6.91,17.05,10.05,27.39,10.15,1.94,0,3.89,0,5.82.14a7.75,7.75,0,0,1,7.12,5,11.67,11.67,0,0,1,.42,1.78,4.9,4.9,0,0,1-.53.36,5.63,5.63,0,0,0-1.81.8c-.18.18.12,1.3.47,1.5a4.24,4.24,0,0,0,2.54.64c1.28-.23,1.59-1.09,2-4.16a6.59,6.59,0,0,1,2.35.32,47.35,47.35,0,0,1,7.32,4.43,14.27,14.27,0,0,0,8.24,3.13l-5.29-3,.1,0-.12,0a30,30,0,0,1-2.93-2.3,32.57,32.57,0,0,0-21.37-9.76c-5.46-.43-10.95-.39-16.17-2.47-7.13-2.84-12.86-7.57-18-13.12-5.8-6.3-12.53-11.08-21-12.86-3-.63-6.1-.61-9.14-1-6.05-.82-11.26-3.63-16.19-7.05-3.2-2.23-6.21-4.66-8.12-8.18a11.64,11.64,0,0,1-1.59-7.11c.29-2.33,1.56-4,3.85-4.26a24.28,24.28,0,0,1,7.7-.08,45.46,45.46,0,0,1,9,3.21,15.76,15.76,0,0,1,7.2,6.5c2.19,3.77,5.51,6.06,9.27,8,2.6,1.33,5.08,2.89,7.61,4.35l.08.34.21-.17-.29-.18a39.68,39.68,0,0,0-2.4-3.83c-1.27-1.62-2.91-3-4.08-4.66-2.19-3.14-1-5.72,2.73-6.39,4.44-.79,5.81-.05,8.32,3.71a10.06,10.06,0,0,0,3.77,3.45,18.25,18.25,0,0,1,9.65,10.74,13.75,13.75,0,0,0,10.25,9.18,28.7,28.7,0,0,1,4.32,2,22.6,22.6,0,0,0,3.89,1.53c4.21,1,8.46,1.85,12.15,4.3l.4.39.39.39.05.07-.05,0-.42-.38Zm25.69,17.67.05,0-.08,0,0-.06Zm48.59-51.39-.14-.08.17.05c.36.69.65,1.42,1.07,2.07a34.72,34.72,0,0,1,2.5,3.61,10.18,10.18,0,0,0,5,4.94c4.41,2,8.84,4.06,13.32,6a9.11,9.11,0,0,0,7.19,0c-.78-.17-1.56-.31-2.33-.5a48.33,48.33,0,0,1-16.14-7.76C492.4,189.59,489,186.64,485.4,183.84Zm-77.95,28.58.71.51.15-.23-.73-.44c-.28-.28-.54-.58-.84-.84-4.29-3.52-8.46-7.2-11.62-11.82-1.54-2.26-2.77-4.72-4.16-7.11a3.28,3.28,0,0,0-1.21,3.68,20.14,20.14,0,0,0,2.34,5.68C395.79,207.35,401.2,210.53,407.45,212.42ZM336.93,198.2a1.06,1.06,0,0,1,0,.17.63.63,0,0,0-.06-.13,39.34,39.34,0,0,1-3.87-3.76c-4.08-5.21-8.26-10.45-5.52-18.18-1.79.2-3.38.24-4.91.57-2.56.55-3.64,2.25-3.25,4.87a13.2,13.2,0,0,0,3.43,7.11,41.88,41.88,0,0,0,13,9.18A3.85,3.85,0,0,0,336.93,198.2ZM485,201.91l-.07-.11.11.08a20.35,20.35,0,0,0,2.09,1.43,41.42,41.42,0,0,0,16.68,4.59c.75,0,1.56-.05,1.23,1.52-1.87-.15-3.78-.18-5.65-.48a43.78,43.78,0,0,1-16.89-6.51c-.75-.48-1.47-.88-2.33.1,1.79,1.95,4.16,2.7,6.41,3.67s4.49,2.07,6.81,2.91a48.71,48.71,0,0,0,7.09,2.06c2.3.47,4.69.54,7,.79v.83a6.13,6.13,0,0,1-1.7.35c-2.33-.16-4.76,0-6.95-.7-3.88-1.16-7.62-2.81-11.41-4.26-3.34-1.29-6.77-2.41-9.17-5.26-1.62.91-1.59,1.91-.38,2.89a46.42,46.42,0,0,0,4,3c3,1.94,5.93,4.13,9.17,5.58a36.67,36.67,0,0,0,8.9,2.25c2.06.34,4.24.74,6.27-.42,4.76-2.73,9.54-5.4,14.3-8.11,1-.57,2-1.23,3.13-2-4.16-1.23-7.9-.2-11.63.42-6.6,1.1-13,1-19.11-2.25C490.57,203,487.67,202.67,485,201.91Zm-82.31-7.22-.07-.13.11.1c1.45,2.06,2.78,4.23,4.37,6.18,8.68,10.67,19.67,18.63,31,26.17a26,26,0,0,0,12,4.7,3.62,3.62,0,0,1,1,.47c-.45,1.4-1.54,1.15-2.29.88-3.43-1.25-7.08-2.19-10.16-4.05a140.61,140.61,0,0,1-26.93-20.79,63.29,63.29,0,0,1-10.88-13.57,6.48,6.48,0,0,0-8-2.64,31.88,31.88,0,0,0,1.68,3.92,49.43,49.43,0,0,0,10.69,12.15q10.69,9.1,21.55,18c4.34,3.55,8.68,7.14,13.28,10.34,6.42,4.46,13.31,6,20.73,2.14,2.67-1.39,5.53-2.43,8.31-3.63a1.48,1.48,0,0,0-1-.53,33.37,33.37,0,0,1-12-3.56c-2.87-1.57-6-2.63-8.92-4.1a55.14,55.14,0,0,1-8.9-5c-10.33-7.84-20.48-15.93-30.72-23.88C406,196.72,404.28,195.75,402.68,194.69Zm-7.05,69.21a71,71,0,0,1-23.64-8,131.67,131.67,0,0,1-43.69-38.57c-4.53-6.16-8.43-12.7-9.9-20.39a2.55,2.55,0,0,0-.53-1.05q-3.33-4.12-6.71-8.23a8.45,8.45,0,0,0-1.06-.91,32.89,32.89,0,0,0,3,13.88c2.19,4.78,4.87,9.34,7.34,14,.37.7,1.16,1.41-.21,2.16a8.94,8.94,0,0,1-1.16-1.38c-2.34-4.27-4.85-8.47-6.9-12.88A35,35,0,0,1,308.65,187a6.06,6.06,0,0,0-4.15-6.19c-1,3.19-.41,6.38.09,9.53a42.22,42.22,0,0,0,5.19,14.86c.41.69.91,1.44-.67,1.95-4.88-8.49-7.25-17.51-6.21-27.56l-3.13-1.33A19.87,19.87,0,0,0,298.18,190c1.36,9.86,5.88,18.38,11.47,26.41,7.72,11.09,17.38,20.28,28.2,28.28,2.63,1.94,5.18,4.27,8.16,5.41a65.8,65.8,0,0,1,15.76,9,25.9,25.9,0,0,0,21.61,4.83,15.17,15.17,0,0,1,6.47.47A8.54,8.54,0,0,0,395.63,263.9Zm-54.9-15.21c-.73-.53-1.24-.93-1.77-1.3a136.15,136.15,0,0,1-19-16.27c-8.25-8.52-15.34-17.85-19.91-28.89-2.53-6.11-4.22-12.41-3.29-19.12.24-1.76.79-3.47,1.24-5.37l-3.65-.73c.09,1.37.1,2.41.26,3.43a6.19,6.19,0,0,1-2.48,5.95c-3,1.74-5,4.05-4.33,7.8a46,46,0,0,0,1.15,5.88c2.52,8,7.55,14.38,13.23,20.31a135.05,135.05,0,0,0,24.2,19.41c.66.44,1.24,1,1.86,1.51l-.33.66a6.47,6.47,0,0,1-1.75-.51c-11-7.08-21.34-15-29.69-25.21-4.26-5.21-7.87-10.84-9.44-17.49-.59-2.5-.73-5.11-1.07-7.64l-5.12-.49a41.76,41.76,0,0,0,0,4.75,37.45,37.45,0,0,0,5.75,15.47c.46.75,1.44,1.5.25,3-.87-1.31-1.68-2.39-2.33-3.55-3.52-6.21-6-12.7-5.07-20a2.5,2.5,0,0,0-.25-1.31c-2.1-4.32-.82-7,3.78-7.74-.21-1.28-1-1.18-1.88-.81-2.95,1.21-5.21,3.26-6,6.32a31.09,31.09,0,0,0-1,8.47,42.65,42.65,0,0,0,3.77,15.3c3.52,8.42,9,15.13,17.77,18.3,6.44,2.35,11.85,5.81,16,11.2s9.55,7.6,15.92,8.15C331.8,248.46,336.07,248.49,340.73,248.69Zm72.88,8.6c-19.1-5-33.55-16.53-45.92-31.65-1.55-.08-3.32-.43-3.95-2.55a3.35,3.35,0,0,1,2-4.24c-2.33-7.26-16.34-14.77-24.41-13.06a23.39,23.39,0,0,0,1,2.81,53.59,53.59,0,0,0,3.57,6.48c9.94,14.23,22.65,25.55,37.16,34.93a64.35,64.35,0,0,0,19.06,8.71C406.17,259.76,410.08,259.82,413.61,257.29Zm3.2-29.17c-.49-.83-.95-1.54-1.34-2.29a19.34,19.34,0,0,0-15-10.75,25.14,25.14,0,0,1-5.35-1.6c-2.41-.95-4.69-2.24-7.11-3.14a12.88,12.88,0,0,1-7.8-7c-.35-.79-.85-1.53-1.13-2.35-1.81-5.3-5.65-8.56-11.06-10.81.93,2.05,1.65,3.9,2.57,5.62a93.31,93.31,0,0,0,13.86,18.87c4.91,5.33,10.23,10.19,16.65,13.71a13.26,13.26,0,0,0,6.07,1.7A32.79,32.79,0,0,1,426,236.48a66.93,66.93,0,0,1,5.32,4.81c4.9,4.53,11.28,4.87,17.72,1-2.08-.86-4.42-1.47-6.35-2.71-4.53-2.91-9-6-13.26-9.27-5.77-4.53-11.28-9.37-16.44-13.69,1.34,2.81,2.93,6.08,4.45,9.37C417.75,226.63,418.31,227.5,416.81,228.12Zm-81.73-49.23a32,32,0,0,0,.49,4.9,29.32,29.32,0,0,0,8.69,13.94,13.13,13.13,0,0,0,7,3.57c9.06,1.49,16.46,6,22.75,12.56a102.25,102.25,0,0,0,8,7.58,33.28,33.28,0,0,0,17.41,7.95c-.8-.67-1.7-1.2-2.54-1.8a93.36,93.36,0,0,1-27.73-31.22,31.77,31.77,0,0,1-2.67-7.68,6.07,6.07,0,0,0-8.69-4.24c-1.25.61-1.69,1.59-.95,2.78a15.87,15.87,0,0,0,2.43,3.14c3.24,3.09,5.58,6.65,6.23,11.16a9.05,9.05,0,0,1-.09,1.87l-.49.08a5.41,5.41,0,0,1-.9-1,16.46,16.46,0,0,0-8.39-7.4,23.86,23.86,0,0,1-11.82-9.8C342,182.25,339,180.19,335.08,178.89Zm-6.43,23.81a22.13,22.13,0,0,0,1,2.71,98.06,98.06,0,0,0,5.26,9.2,132.54,132.54,0,0,0,38.54,36.09c7.45,4.69,15.36,8.41,24.12,10a17.79,17.79,0,0,0,7,.39C401.2,260,398,259.16,395,258c-10.23-4.09-19.22-10.25-27.49-17.42-11.55-10-22.59-20.49-28.25-35.27Zm92.7,51c-3.25-1.39-6.58-2.58-9.69-4.18-7.59-3.9-14.78-8.47-20.4-15a19.22,19.22,0,0,0-5.95-4.4,76.69,76.69,0,0,1-8.17-5,57.42,57.42,0,0,1-5-4.4c-.76,1.51-1.52,3-2.32,4.61a2.37,2.37,0,0,0,.2.41c.29.45.6.89.92,1.31,5.62,7.29,12.61,13.08,20.12,18.26,6.3,4.35,13,8,20.5,9.8C415,256,418.41,256.45,421.35,253.7ZM543.65,191c-3.76.43-7.56,1.17-11.38,1.26a89.35,89.35,0,0,1-21.66-2.49c-2.17-.48-4.66-1.12-6.21-2.54-4-3.67-9.13-4.54-13.81-6.52,0,0-.16.13-.32.28,12.92,9,26.15,16.89,43,14.31-.34,1.47-.51,1.63-2.08,1.77a45.29,45.29,0,0,1-16.1-1.35c-7.23-2-13.72-5.58-20-9.62-2.63-1.7-5.18-3.53-7.8-5.33l-1.65,1.07c2.64,2.24,5,4.47,7.62,6.44,6.75,5.14,13.89,9.53,22.5,10.88.55.08,1,.84,1.53,1.32l10.31,3.18ZM421.41,240c-.55,2.82-1.6,4.5-4.08,4.69a4.25,4.25,0,0,1-4-2.26c-.82-2,.32-3.26,1.79-4.28-1.38-2.52-2.9-3.53-5.64-3.71-4.4-.3-8.8-.5-13.2-.83-1.39-.1-2.76-.48-4.63-.82a18.61,18.61,0,0,0,1.67,1.9c3.67,3,7.21,6.18,11.11,8.85,5.63,3.86,11.6,7.18,18.38,8.69a3.43,3.43,0,0,0,1.91-.06c3.13-1.34,6.2-2.77,9.13-4.1ZM320.29,198.42a15.68,15.68,0,0,0,.66,2.28c1.64,3.43,3.07,7,5,10.23,7.08,11.65,16.34,21.44,26.79,30.11,9.79,8.13,20.38,14.91,32.55,18.93a44.39,44.39,0,0,0,12.28,2.43,1.27,1.27,0,0,0-.69-.31c-8.52-1.63-16.25-5.21-23.6-9.68a136.56,136.56,0,0,1-31.74-26.8c-6.05-6.9-11.63-14.14-14.61-23a2,2,0,0,0-.76-1.09C324.36,200.47,322.46,199.53,320.29,198.42Zm129,6.82a13,13,0,0,0,2.06,2.82,37.22,37.22,0,0,0,6.6,4.44c6.77,3.17,13.61,6.19,20.54,9a60,60,0,0,0,9.27,2.36c3.81.85,6.59-1.46,9.57-3.16a50.26,50.26,0,0,1-14.73-4.61,17.19,17.19,0,0,0-8.48-2.06,19.17,19.17,0,0,1-10.33-2.63c-2.84-1.62-5.57-3.43-8.4-5.06A8.06,8.06,0,0,0,449.3,205.24Zm38.54,20.38c-2.74-.68-5.62-1.05-8.22-2.1q-11.42-4.64-22.63-9.75c-3.85-1.75-7.38-4.06-9.23-8.31L446,206.6a9.51,9.51,0,0,0,4.53,7c5.31,3.22,10.69,6.33,16.24,9.1a82.41,82.41,0,0,0,11.92,4.64A9.43,9.43,0,0,0,487.84,225.62ZM511.59,176l-.22.82c1.11.78,2.18,1.6,3.33,2.31,1.64,1,3.62,1.67,4.92,3a16.48,16.48,0,0,0,7.63,4.13c5.94,1.73,11.91,2.84,18.16,1.77,1.3-.23,2.32-.3,3.09-1.41-3.19-.46-6.3-.73-9.33-1.37-7-1.49-13.23-4.88-19.54-8.1a24.28,24.28,0,0,0-6.09-1.68C513,175.31,512.25,175.78,511.59,176Zm46.65,2.41c-4.92-.58-9.3-1.32-12.74-4.59-1.17,1.59-.3,2.8.78,3.51a20.11,20.11,0,0,0,4.2,1.67,13.06,13.06,0,0,0,1.53.35l0,.68a13,13,0,0,1-2.06.59,30,30,0,0,1-15.27-2.19,22.24,22.24,0,0,0-11.89-1.71c.09.19.11.36.2.4,7.86,4.32,16.05,7.59,25.17,7.76a5.35,5.35,0,0,0,3.08-.54C553.6,182.57,555.72,180.56,558.24,178.38ZM330,177c-2,1.56-2.53,3.17-1.79,5.93,1.47,5.39,4.65,9.69,8.73,13.39a16.06,16.06,0,0,0,8.15,4.36c-6.74-6.14-11.85-12.82-11.52-22.46Zm116.24,35.13c.73,1.94,2.48,3.58,4.46,5.07,3.42,2.56,6.9,5.07,10.11,7.87a33.15,33.15,0,0,0,10.38,5.86,8.78,8.78,0,0,0,8.88-1.45C467.74,225.61,456.22,220.08,446.28,212.11Zm100.31-39.56a18.11,18.11,0,0,0,2,1.69,21.28,21.28,0,0,0,10.57,2.54,2,2,0,0,0,1.28-.41c1.79-1.52,3.52-3.1,5.27-4.66-4,1.72-8,1.17-12,.31A10.77,10.77,0,0,0,546.59,172.55Z" style="fill: #fff"/>
    <path d="M556.66,229c1.94,1.56,3.55,2.64,5.73,2.48,4.13-.29,8.27-.53,12.4-.86a2.69,2.69,0,0,0,1.45-.85,4.29,4.29,0,0,1,5.46-.75,6.37,6.37,0,0,0,2.94.76c12.54-.34,24.68,1.46,36.09,6.88,3,1.43,5.78,3.35,8.67,5,3.88,2.23,7.79,4.4,11.66,6.65a8.19,8.19,0,0,1,1.5,1.5l-.49.64c-2.25-1.11-4.58-2.08-6.73-3.34-4.85-2.83-9.48-6.07-14.45-8.65a65.23,65.23,0,0,0-26.39-6.9c-3.45-.21-6.92,0-10.41,0,.11,1.69.21,3.51.33,5.48,3.36.44,6.86.82,10.33,1.39,10.35,1.7,20.41,4.31,29.53,9.74a30.59,30.59,0,0,1,11.14,10.74,5,5,0,0,0,1.78,1.51c1.38.81,2.88,1.43,4.23,2.28.52.32.76,1.08,1.13,1.63l-.43.31c-3.16-1.57-6.29-3.21-9.49-4.69-9-4.17-18.37-7.34-28.31-8.44a112.53,112.53,0,0,0-23.64,0c-8.24.84-16.46,1.88-24.66,3-4.62.66-9.16,1.84-13.76,2.62-11.33,1.94-22.68,3.8-34.25,3.25a21.6,21.6,0,0,1-9.68-2.23,11.8,11.8,0,0,1-5.13-16c2-4.13,8.51-6.92,12.89-5.56,1.56.47,2.85,1.28,3.24,2.95a6.41,6.41,0,0,1-.14,1.93l-.49.09-1.18-1.35c-.58,1.37-.37,1.92,1,2.51,2.24.94,4.21.15,6-1.15a5.54,5.54,0,0,0,2.41-5.59c-.58-4-2.52-5.38-7.21-5.38-.6-1.11.16-1.35,1-1.51,2.58-.51,4.51.44,6.69,3.25,2.93-.95,5.79-2.08,8.74-2.79A32.4,32.4,0,0,1,547,231.78c4.66,2,9.12,4.45,13.69,6.67,5,2.46,10.3,3.79,15.92,2.73,2.92-.54,5.3-1.93,6.14-5a5,5,0,0,0-1.19-5,4.52,4.52,0,0,0-2.82-1c-.46,0-1.2.94-1.39,1.58-.24.86.26,1.54,1.29,1.61a7.13,7.13,0,0,1,1,.18,2.69,2.69,0,0,1-1,3,7.5,7.5,0,0,1-8.05,1.59,114.34,114.34,0,0,1-11.68-5.68c-4.73-2.48-9.34-5.19-14.08-7.65-5.27-2.74-6.27-7.4-2.22-11.77,3.74-4,8.64-5.78,14-6.21a41.67,41.67,0,0,1,21.33,3.61c12.65,5.94,25.15,5.14,37.61-.34,4.83-2.13,9.5-4.61,14.31-6.78a20.53,20.53,0,0,1,10.58-1.72c.87.09,2.19-.15,1.9,1.77-6.25-1.17-11.78.88-17.1,4.06,1.16.06,2.32,0,3.46.2a27,27,0,0,1,12.93,5.57,3.35,3.35,0,0,1,.83,2.12c-3.73-2.42-7.37-4.83-11.73-5.74s-8.67-1-12.73,1.31a36.75,36.75,0,0,1,20,9.12c-1,1.44-1.68.41-2.27,0a37.2,37.2,0,0,0-11.87-6.15c-4.7-1.39-9.41-1.75-14.31.3,2.76.47,5.29.81,7.79,1.35,4.7,1,8.85,3.3,12.93,5.77,3.55,2.15,7.21,4.09,10.84,6.09.87.48,1.72.86,1,2.42-4.25-2.4-8.65-4.54-12.67-7.23-9.1-6.11-19.15-7.44-29.74-6.68-11.71.85-23.08,3.57-34.45,6.32-6.23,1.51-12.55,2.64-19.4,1.22,2.76,1.46,5.12,2.78,7.54,4a4.74,4.74,0,0,0,2.14.27c8.39-.13,16.63-1.45,24.86-2.93,8.87-1.58,17.73-3.57,26.83-3,8.74.52,17,2.65,24.46,7.48a11.82,11.82,0,0,1,1.26,1c.13.12.15.35.23.54-.68,1.17-1.37.43-2,0-4.41-3.07-9.4-4.74-14.51-6.13a3.36,3.36,0,0,0-1.31-.07c6.44,2.37,11.76,6.59,17.49,10.13,2.66,1.65,5.49,3,8.2,4.61a9.83,9.83,0,0,1,1.6,1.44l-.51.74c-2.28-1.14-4.64-2.13-6.81-3.44-5-3-9.78-6.3-14.78-9.27a36.52,36.52,0,0,0-23.2-4.71c-8,.91-16,2.36-24,3.47-4.49.61-9,1-13.53,1.49C558.88,228.94,558,229,556.66,229Zm76.1,29.06.26.12-.27-.11a14.54,14.54,0,0,0-1.12-1.82,32.5,32.5,0,0,0-9-7.29,74.33,74.33,0,0,0-23.17-8.09c-5.29-1-10.65-1.7-15.72-2.49-2.94,3.28-5.12,4.27-9,4.51a29.84,29.84,0,0,1-14.4-2.89,8.82,8.82,0,0,0-3.81-.7c-5.14.14-10.28.76-15.4.57a52.14,52.14,0,0,1-11-2,12.75,12.75,0,0,1-7.52-5.69l-3.09,1.38c2,3.93,5.33,5.67,9.06,6.74a47,47,0,0,0,17.87,1.5c.92-.1,1.85-.11,2.78-.16l.13.82a14.44,14.44,0,0,1-2.83.6,101.42,101.42,0,0,1-11.83-.13,35.13,35.13,0,0,1-9.64-2.4c-2.44-1-4.46-3-6.38-4.42l-.92,5.17a13.32,13.32,0,0,0,7.29,2.53c.69.07,1.58-.12,1.23,1.55a36.92,36.92,0,0,1-5.18-.74,33.36,33.36,0,0,1-4.53-2,32.87,32.87,0,0,1-5.49,2,4.92,4.92,0,0,1-5.1-2.07c-1-1.43-.42-2.78.62-4-2.56-1.22-3.94-.45-3.87,2.17a7.3,7.3,0,0,0,.79,3,8.73,8.73,0,0,0,5.57,4.28c7.91,2.35,15.95,2.4,24,1.16,6.45-1,12.82-2.47,19.43-2.5a32.58,32.58,0,0,1,15.39,3.79,4.47,4.47,0,0,0,2.24.45c6.94-.46,13.86-1.17,20.8-1.47a80.74,80.74,0,0,1,30.59,4.31C625.3,255.2,629,256.68,632.76,258.1Zm-67.13-6.57a25.52,25.52,0,0,0-15.15-3.35c-6.82.74-13.61,1.85-20.41,2.84a51.6,51.6,0,0,1-20.66-1.18,11.57,11.57,0,0,1-6.78-4.35,7.93,7.93,0,0,1-1.17-7.25c-4,.94-5.33,3.45-3.5,6.84a13.81,13.81,0,0,0,3.51,4c4.12,3.25,9,4.09,14.15,4.17.74,0,1.48.11,2.37.19-1,1.54-3.5,1.79-8,.86-6.92-1.44-12.86-4.13-14.53-12-.15.13-.33.22-.41.37-1.56,2.85-1.12,5.64,1.3,8.26,2.58,2.78,5.93,4,9.53,4.73.73.14,1.76-.06,1.36,1.62a19.76,19.76,0,0,1-13.37-6.4,14.34,14.34,0,0,0,2.14,3.55c2.94,3.43,7,4.38,11.21,4.43,5.47.07,11-.05,16.42-.47,5.05-.4,10.06-1.22,15.06-2,5.2-.82,10.38-1.81,15.56-2.74C558.08,252.94,561.85,252.23,565.63,251.53Zm-21.71-37.59c-3.25,3.12-2.76,5.95,1.23,7.54a10.79,10.79,0,0,0,1.93.52,37,37,0,0,0,14.33-.65c8.56-1.78,17.09-3.69,25.64-5.55.18,0,.32-.27.41-.35-2.35-.78-4.68-1.41-6.88-2.34a5.76,5.76,0,0,0-4.06-.2c-5.72,1.6-11.46,3.15-17.19,4.75a20.53,20.53,0,0,1-9.5.65C547.18,217.81,544.75,217,543.92,213.94Zm31.86-2.82c-6.95-2.54-14-3.83-21.37-2.51a25.15,25.15,0,0,0-6.19,2.16c-1.28.6-2.7,1.63-2.49,3.31s1.91,2.22,3.3,2.48a15,15,0,0,0,5.93.38c6.93-1.64,13.78-3.62,20.66-5.48C575.65,211.45,575.67,211.36,575.78,211.12Zm-51.37,20.73c1.55,2.4,3.41,3.79,6.8,4.87,7.93,2.53,16,2.05,24.28,1.22C548.12,231.51,532.83,228.55,524.41,231.85Zm39.09,1.21c5.85,4.18,11.89,5.25,14.07,2-.79-1-1.54-2-2.24-2.84Z" style="fill: #fff"/>
    <path d="M610.68,169a42.9,42.9,0,0,1,23.88,1.65,58.28,58.28,0,0,1,6.73,3.08c.59.31.89,1.18,1.13,2-11.16-5.87-22.55-8.28-34.75-3.68,1.06.18,2.13.32,3.18.57a12.86,12.86,0,0,1,7.68,4.73,4.12,4.12,0,0,0,2.5,1.28c6.45,1,12.75,2.38,18.42,5.8A16.5,16.5,0,0,1,641.4,186l-.5.78c-2.11-1-4.16-2.26-6.35-3.12a57.45,57.45,0,0,0-7.25-2.27c-2.37-.6-4.8-1-7-1.37-.68,2.06-1.26,3.8-1.92,5.78.44.15,1.09.41,1.75.6,8.19,2.36,15.22,6.78,21.68,12.19.36.3.42.93.57,1.29-3-.34-5.82-.86-8.64-.91-3.75-.07-7.18,1.38-10.57,2.84-6.32,2.72-12.56,5.65-19.37,7.06-6.11,1.26-11.91.77-17.47-2.34a64.74,64.74,0,0,0-17.79-6.61,9.82,9.82,0,0,1-5.46-3.16,5.36,5.36,0,0,1,.1-7.45c3.75-4.09,12.26-4.91,16.66-1.54,1.23.95,2.31,2.07,1.8,3.9-.21.09-.38.18-.56.24-.5.17-1,.32-1.5.48.21.57.27,1.32.67,1.7a3.7,3.7,0,0,0,4.1.74,4.62,4.62,0,0,0,3.06-3.67,5.38,5.38,0,0,0-2-5c-.44-.4-.87-.81-1.54-1.45a13.38,13.38,0,0,1,1.75-1.83,29.33,29.33,0,0,1,14-5,41.39,41.39,0,0,1,9,0,6.36,6.36,0,0,1,5.41,3.45c-.47.84-1.1,1.5-1.16,2.2-.11,1.36,1.85,2.19,3.2,1.47a4.65,4.65,0,0,0,1-7.1c-3.28-3.81-7.66-4.58-12.37-4.37-.33,0-.66.11-1,.14-4.26.41-6.78-3-5-6.88,2-4.24,5.36-7.32,9.1-10,9.92-7,20.95-9.41,32.93-7.53.82.12,1.86.11,1.46,1.69-1.81-.23-3.63-.53-5.47-.68-11.49-.89-21.61,2.56-30.55,9.72a1.71,1.71,0,0,0-.31.49l-.1.14.07-.17c3.9-1.69,7.7-3.74,11.73-5,7.13-2.23,14.42-2.8,21.7-.46.76.25,2,.23,1.8,1.88a6,6,0,0,1-1.51-.16c-7.1-2.67-14.2-1.91-21.27,0-5.33,1.47-10.38,3.65-14.45,7.5a18,18,0,0,0-3.33,4.88,2.65,2.65,0,0,0,.51,2.42,2.12,2.12,0,0,0,3-.13A34.55,34.55,0,0,1,627.87,163a33.82,33.82,0,0,1,13.36,3.2c.56.26.9,1,1.35,1.47l-.42.5c-1.27-.51-2.53-1-3.8-1.53a31.93,31.93,0,0,0-26.77,1.63,5,5,0,0,0-.88.73l-.17.06Zm-36.35,30.69c2.41,1.07,4.36,2,6.85.77a22.53,22.53,0,0,1,5.93-1.74c9.94-1.91,19.52-.54,28.83,3.24a3.35,3.35,0,0,0,2,.39c2.34-.87,4.61-1.93,7.09-3-.47-.37-.72-.57-1-.76-9.52-6.87-20.17-9.09-31.7-7.72-1.88.22-3.73.25-4.29,2.68-.16.68-.94,1.29-1.56,1.77-2.58,2-5.17,1.76-7.79-.32Zm63-2.65A52.32,52.32,0,0,0,612,186.21a44.66,44.66,0,0,0-21.11,2,14.23,14.23,0,0,0-1.9,1l.18.43c.84-.07,1.68-.13,2.51-.22s1.85-.29,2.78-.36c11.55-.81,22.12,1.85,31.49,8.84a2.44,2.44,0,0,0,1.59.56C630.78,198,634,197.5,637.32,197Zm-22,6.3c-11.5-4.42-22.64-5.5-33.93-1.44C592.21,210.27,603.44,209,615.33,203.3ZM579.4,189.47c-3.54-3-9.51-3.22-13.74-.3-3.38,2.33-3.45,5.73.12,7.81,2.07,1.2,4.53,1.73,6.61,2.48,1.85-2,3.4-3.59,4.94-5.24a3.45,3.45,0,0,0,.6-1C578.41,192.06,578.85,190.88,579.4,189.47Zm9.1-2a48.18,48.18,0,0,1,22.71-2.92c.22-1.29.42-2.37.61-3.45-4.8-3.92-21.18-1.61-25.6,3.63Z" style="fill: #fff"/>
    <path d="M205.42,180.42c3.71,4.11,4.27,8.63,2.5,13.43a10,10,0,0,1-2.62,3.92,6.35,6.35,0,0,1-3.64,1.27,3.93,3.93,0,0,1-4.1-3.37q-.39-3.06,3.44-4.1c.31-2.34-.52-3.85-2.8-4.9-3.25-1.5-6.61-1.37-10-.6s-6.88,1.69-10.35,2.28a17.13,17.13,0,0,1-4.78-.22,6,6,0,0,1-1.75-.85l.11-.5a3,3,0,0,1,1.21-.23c4.22,1.12,8.22,0,12.21-1.16,3.37-1,6.77-1.76,10.26-1.14A14.73,14.73,0,0,1,200,186a5.86,5.86,0,0,1,2.15,7.76c-.21,0-.51.06-.69-.06-.87-.54-1.71-.38-2,.5a3.12,3.12,0,0,0,.23,2.37c1,1.42,3.08,1.39,4.63.13,3-2.43,4-8.54,2.05-12.24A11.34,11.34,0,0,0,200.2,179c-.65-.25-1.28-.54-1.92-.81l0-.64c.51-.08,1.19-.42,1.53-.21,2.72,1.71,5.53,1.5,8.53.87a8,8,0,0,1,7.17,2.35,4.64,4.64,0,0,1,1.09,2.77c.05.47-.75,1-1.16,1.54l-.52-.33a2.77,2.77,0,0,1,0-.91c.42-1.08.17-1.87-1-2.17a1.84,1.84,0,0,0-2.32,1.38,3.6,3.6,0,0,0,2.93,4.62c3.13.55,5.3-1.22,5.47-4.4a4.38,4.38,0,0,1,.4-1.17l.68,0,.68,3.37a3.85,3.85,0,0,0,2.8-4.62,9.66,9.66,0,0,0-3.54-5.66,21.74,21.74,0,0,0-10.54-5l-1.7-.36c-.11-1.29.56-1.34,1.38-1.21a22.13,22.13,0,0,1,13.65,7.34,8.09,8.09,0,0,1,2.15,7A5.15,5.15,0,0,1,221.6,187a4.84,4.84,0,0,0-2.06.81,6.76,6.76,0,0,1-5.13,1.22c-3.52-.53-6.47-4.79-2.71-8.93A7.67,7.67,0,0,0,205.42,180.42Z" style="fill: #fff"/>
    <path d="M410.73,139.63l5.82,4.48.34-.19c-.16-.52-.34-1-.47-1.58-.37-1.51.27-2.26,1.78-1.87a7.47,7.47,0,0,1,2.81,1.42c1.71,1.37,3.28,2.91,5.15,4.59-.52,0-1.24.26-1.66,0-1.34-.84-2.58-1.84-3.84-2.81a9.75,9.75,0,0,0-2.55-1.62,11,11,0,0,1,.27,1.27,1.75,1.75,0,0,1-2.37,2,2.18,2.18,0,0,1-.91-.38c-2-1.91-4-3.84-5.94-5.76-.41-.39-.94-1.12-1.26-1a2.18,2.18,0,0,0-1.33,1.23c-.6,1.67-1,3.41-1.52,5.12a24.33,24.33,0,0,1-1.42,4.55c-1.54,3-4.56,3-6,0a32.49,32.49,0,0,1-2.14-7.63c-.47-2.47-.44-5-1.83-7.33-.26.11-.54.14-.59.26-1.55,4.16-4.8,7.76-3.89,12.75a3.78,3.78,0,0,1-2.34,4.32l-.2-1.8,0,0c1.26-.83,1.17-2.06,1.07-3.35a8.82,8.82,0,0,1,.08-3.52,94.93,94.93,0,0,1,3.83-9c1-2,2.93-2,3.66.12.89,2.55,1.14,5.31,1.79,7.94a38,38,0,0,0,2,6.43c.88,1.95,2.3,1.85,3.31-.1a17.68,17.68,0,0,0,1.1-3.39c.53-1.91,1-3.83,1.54-5.73a2.91,2.91,0,0,1,2.87-2.36c1.36,0,2.08,1,2.56,2.2l.3.74-.05.06Zm2.41,2.42.07.06-.06-.05-.07,0Z" style="fill: #fff"/>
    <path d="M386.68,149.61c-.27.95-.49,1.92-.84,2.84a2.41,2.41,0,0,1-1.3,1.25c.59-4.62.85-9.16,1.07-14.09l-4.14,1.45A3.25,3.25,0,0,1,385,138.4a2.1,2.1,0,0,1,2.05,2.46c-.1,2.94-.28,5.87-.43,8.8Z" style="fill: #fff"/>
    <path d="M363.29,143.92c1.61-1.72,3.53-2.77,5.75-2a7.05,7.05,0,0,0,6.76-1.08,2.18,2.18,0,0,1,2.95,0c.83.77.91,2.1.06,3.81l-1.35-2.9-2.75,1.48a5.43,5.43,0,0,1-5,.41,4.3,4.3,0,0,0-4.53.6C364.61,144.65,364,145.28,363.29,143.92Z" style="fill: #fff"/>
    <path d="M429.49,156.17c-1.8.78-2.78-.71-3.81-1.52-3.47-2.77-5.69-6.14-5.1-7.59Z" style="fill: #fff"/>
    <path d="M359.83,155.41c-.3-1.89,5.86-9.79,7.84-9.94,0,.23.2.57.1.71-2.44,3.22-4.92,6.41-7.39,9.61Z" style="fill: #fff"/>
    <path d="M404,153.68c1.25,3.79,2.43,7.3,3.55,10.83.06.19-.31.51-.49.78C404.94,163.59,402.59,155.36,404,153.68Z" style="fill: #fff"/>
    <path d="M399.78,152.28c1.45,1,2.05,5.56,1.07,7C399.73,158.24,399.15,154.69,399.78,152.28Z" style="fill: #fff"/>
    <path d="M357.23,161.77c-1.27,1.26-2.53,2.53-3.73,3.73-1.59-1-.89-1.7-.28-2.12,1.16-.79,1.58-2.86,3.42-2.51Z" style="fill: #fff"/>
    <path d="M346.52,154.33c1.8-.67,3.43-1.91,5.39-2l.39,1.07c-1.72.71-3.43,1.47-5.18,2.12-.27.1-.72-.24-1.08-.38Z" style="fill: #fff"/>
    <path d="M384.91,155c-.76,2.17-.43,4.29-2.38,5.77C382,158.43,383,155.73,384.91,155Z" style="fill: #fff"/>
    <path d="M336.65,159.19c.16-1.48,1.94-2.32,4.22-2.13C340.7,158.45,339.84,158.9,336.65,159.19Z" style="fill: #fff"/>
    <path d="M381.77,163.08c1,1.15,1,1.33.1,3.78C380.5,166.41,380.43,165.09,381.77,163.08Z" style="fill: #fff"/>
    <path d="M424,138v.44c-.15-.15-.3-.29-.44-.44Z" style="fill: #fff"/>
    <path d="M428,143.26v.44l-.44-.44Z" style="fill: #fff"/>
    <path d="M226.26,27.15c-.95,4.62-1.9,9.24-2.89,14.08-.66.38-1.3.19-1.11-.86.79-4.26,1.66-8.5,2.57-12.73.08-.37.69-.62,1-.93Z" style="fill: #fff"/>
    <path d="M224.1,60c-1.91-1.13-2.62-7.3-1.07-9.31A53.68,53.68,0,0,1,224.1,60Z" style="fill: #fff"/>
    <path d="M108.9,138.23c-.41.19-1,.6-1.11.48-2.26-1.68-4.47-3.43-6.87-5.3C102.55,132.6,106.58,135.29,108.9,138.23Z" style="fill: #fff"/>
    <path d="M244,32.71a56.6,56.6,0,0,1,7-11.53l.65.16c0,.52.1,1.13-.13,1.53-1.86,3.21-3.78,6.4-5.73,9.56-.25.41-.83.61-1.26.91Z" style="fill: #fff"/>
    <path d="M246.11,57.41c-.3,3.38-.59,6.77-.93,10.14,0,.27-.49.49-1,.68-.64-3.43.05-6.75.56-10.08.06-.36.55-.65.84-1Z" style="fill: #fff"/>
    <path d="M217.76,104.71c-1.84-.9-5.15-7.95-4.58-9.51C214.54,95.9,218,102.87,217.76,104.71Z" style="fill: #fff"/>
    <path d="M336.05,232.92c-.55,0-1.09.22-1.31,0a54.72,54.72,0,0,1-8.5-8.44l.34-.55c.43.11,1,.08,1.28.35,2.68,2.57,5.32,5.19,8,7.81C335.91,232.2,335.9,232.37,336.05,232.92Z" style="fill: #fff"/>
    <path d="M311.94,235c-1.95.66-5.75-1.65-11.54-6.5-.58-.48-1.45-.89-.51-2.17Z" style="fill: #fff"/>
  </g>
</svg>
